<svg width="809" height="607" viewBox="0 0 809 607" fill="none" xmlns="http://www.w3.org/2000/svg">
<path fill-rule="evenodd" clip-rule="evenodd" d="M345.085 244.634C336.688 245.17 328.222 244.951 319.817 244.684C318.989 244.657 317.01 244.273 316.505 244.767C315.925 245.337 316.048 248.478 315.952 249.256C315.226 255.148 314.5 261.042 313.774 266.934C313.44 269.64 313.107 272.346 312.773 275.052C312.679 275.821 311.737 279.147 312.186 279.814C313.004 281.028 318.859 281.306 320.402 281.603L338.777 285.144C340.508 285.477 344.924 285.556 345.727 286.923C346.235 287.791 345.925 290.14 345.985 291.125L346.484 299.247C347.139 309.886 347.794 320.525 348.448 331.163C361.453 330.117 374.458 329.072 387.461 328.025C390.626 327.771 393.79 327.517 396.954 327.262C397.708 327.202 399.287 327.36 399.902 326.944C401.245 326.034 402.39 322.142 403.115 320.743C404.961 317.177 406.809 313.612 408.656 310.046C410.436 306.61 412.216 303.174 413.995 299.738C414.451 298.859 415.588 297.391 415.56 296.43C415.528 295.346 413.913 293.406 413.408 292.48C411.929 289.765 410.45 287.05 408.97 284.335C401.646 270.893 394.324 257.45 386.999 244.009C386.628 243.327 385.799 240.849 385.073 240.473C383.663 239.743 378.729 241.212 377.209 241.386C366.528 242.606 355.818 243.949 345.085 244.634Z" fill="#FF5678"/>
<path fill-rule="evenodd" clip-rule="evenodd" d="M221.211 221.541C223.807 224.623 226.403 227.705 229 230.786C235.884 222.286 242.768 213.785 249.652 205.285C246.201 203.742 242.75 202.2 239.299 200.656C236.236 199.287 236.627 199.938 234.689 202.652C230.197 208.949 225.703 215.245 221.211 221.541Z" fill="black"/>
<path fill-rule="evenodd" clip-rule="evenodd" d="M353.97 422.054C353.959 426.533 353.949 431.012 353.938 435.491C367.632 434.816 381.326 434.142 395.02 433.467C394.398 431.588 393.775 429.708 393.153 427.831C392.668 426.362 392.053 421.926 390.872 420.941C389.581 419.865 383.906 420.975 382.173 421.037C372.772 421.376 363.371 421.715 353.97 422.054Z" fill="black"/>
<path fill-rule="evenodd" clip-rule="evenodd" d="M321.347 82.9883C305.349 93.0986 289.352 103.21 273.354 113.321C276.886 117.454 280.417 121.586 283.949 125.719C284.795 126.709 284.945 127.336 285.913 127.239C287.039 127.127 288.933 125.359 289.871 124.774C301.212 117.712 312.552 110.651 323.892 103.59C327.323 101.453 330.755 99.3156 334.187 97.1793C329.907 92.4489 325.626 87.7186 321.347 82.9883Z" fill="black"/>
<path fill-rule="evenodd" clip-rule="evenodd" d="M693.042 241.017C692.464 236.316 690.095 231.539 688.362 227.186C686.32 222.057 684.168 216.971 681.966 211.909C680.57 208.704 680.065 209.492 676.418 209.635C672.156 209.801 667.893 209.969 663.633 210.135C666.914 222.053 670.196 233.971 673.477 245.889C674.045 247.952 674.963 255.687 676.753 256.731C677.372 257.093 679.513 256.627 680.216 256.601C682.226 256.525 684.236 256.45 686.247 256.375C688.98 256.272 691.712 256.17 694.444 256.068C694.064 251.046 693.657 246.016 693.042 241.017Z" fill="black"/>
<path fill-rule="evenodd" clip-rule="evenodd" d="M422.383 542.784C415.051 540.931 407.074 542.687 399.686 542.739C395.333 542.769 390.99 542.479 386.64 542.704C385.182 542.779 378.516 542.585 378.289 543.462C378.114 544.135 379.44 545.831 379.953 546.111C381.393 546.897 382.405 545.887 383.858 545.513C387.794 544.497 392.397 545.124 396.442 544.931C400.673 544.729 404.904 544.477 409.135 544.283C413.351 544.088 418.729 544.963 422.383 542.784ZM63.1437 162.56C62.581 161.27 62.3499 159.224 61.0574 158.416C59.8602 157.667 57.3515 158.214 55.968 158.195C53.0259 158.155 46.6383 158.269 44.7163 160.948C42.3796 164.205 49.2538 166.527 51.5464 166.466C55.5298 166.357 59.1539 163.296 63.1437 162.56ZM136.376 121.676C136.679 120.851 135.615 120.306 134.846 120.044C132.89 119.375 131.603 120.487 129.882 121.324C125.535 123.437 120.809 124.833 116.236 126.359C112.255 127.688 108.562 129.55 104.658 131.046C101.891 132.107 96.049 131.901 94.4555 134.577C91.308 139.864 99.552 135.898 101.004 135.385C105.172 133.915 109.609 133.009 113.695 131.328C117.627 129.711 121.637 128.067 125.529 126.315C127.304 125.516 129.069 124.838 130.879 124.14C132.573 123.487 134.574 121.849 136.376 121.676ZM255.333 213.306C254.294 212.669 250.037 209.113 248.607 209.582C247.49 209.949 246.24 214.034 245.544 215.106C242.058 220.477 238.298 225.625 234.56 230.82C236.219 231.713 237.878 232.604 239.537 233.496C242.92 225.477 249.441 219.476 255.333 213.306ZM319.88 241.968C325.219 241.98 330.508 241.311 335.841 241.385C341.817 241.468 347.688 241.63 353.658 241.142C359.533 240.661 365.384 240.637 371.259 240.28C373.106 240.168 383.396 239.382 377.368 236.439C375.34 235.449 372.902 236.682 370.699 237.127C368.147 237.643 365.572 237.836 362.992 238.146C360.534 238.443 357.923 239.261 355.443 239.201C352.842 239.137 350.889 238.672 348.274 239.048C342.853 239.829 337.456 239.392 332.038 238.889C328.302 238.542 320.1 236.441 319.88 241.968ZM465.174 546.105C468.611 543.333 474.046 544.533 478.128 543.65C482.637 542.673 479.087 537.893 477.358 535.348C475.556 532.694 472.842 527.39 469.813 531.318C466.648 535.421 466.275 541.207 465.174 546.105ZM357.006 425.644C356.891 428.136 355.658 430.7 358.249 431.556C360.735 432.377 365.003 431.129 367.579 430.907C370.938 430.617 374.241 430.062 377.59 429.716C379.084 429.562 380.586 429.448 382.088 429.585C383.123 429.679 385.617 430.804 386.542 430.338C387.678 429.767 388.229 426.684 387.301 425.495C386.295 424.207 380.219 425.484 378.045 425.649C370.962 426.186 364.059 425.327 357.006 425.644ZM356.572 417.65C359.834 416.306 363.707 416.935 367.141 416.916C371.181 416.896 375.174 417.116 379.205 417.379C380.988 417.495 386.189 418.817 387.686 417.675C388.472 417.075 388.755 411.932 388.089 411.144C387 409.855 383.584 411.405 382.185 411.615C378.437 412.171 374.612 412.157 370.831 412.122C367.292 412.09 363.742 411.933 360.205 411.925C356.014 411.915 356.581 414.057 356.572 417.65ZM244.399 206.77C243.067 205.997 238.694 202.446 237.061 202.985C235.672 203.444 234.196 207.682 233.366 209.013C231.785 211.55 230.115 214.037 228.476 216.538C227.429 218.137 224.636 221.025 225.113 223.186C225.367 224.337 227.692 226.325 228.867 225.975C230.079 225.616 232.076 221.105 232.748 220.216C236.388 215.405 240.963 211.785 244.399 206.77ZM668.398 211.979C673.064 221.129 673.664 231.475 676.192 241.295C676.781 243.581 677.688 245.836 678.187 248.136C678.466 249.417 677.953 251.612 678.67 252.702C680.465 255.431 688.766 254.564 690.557 252.162C691.608 250.75 690.791 249.286 690.344 247.821C689.739 245.842 690.029 244.118 689.678 242.143C688.976 238.184 685.411 234.189 683.719 230.535C681.871 226.543 681.022 221.741 678.374 218.175C676.603 215.79 671.633 210.867 668.398 211.979ZM364.129 568.907C370.373 568.086 380.194 566.229 379.867 557.834C379.542 549.49 368.607 548.008 362.52 547.276C360.736 547.062 360.541 546.959 358.731 548.041C357.486 548.785 356.246 549.579 355.085 550.445C352.825 552.134 350.265 554.434 349.783 557.379C348.558 564.861 358.65 568.244 364.129 568.907ZM328.44 94.8966C331.273 95.1969 327.504 92.4425 326.79 92.109C324.622 91.0973 322.214 91.2807 319.913 91.6656C314.345 92.5966 309.416 97.2732 304.658 100.165C299.62 103.226 294.647 106.688 289.393 109.359C286.991 110.582 285.005 111.619 283.009 113.442C281.992 114.372 281.639 115.017 280.272 115.016C279.513 115.016 277.823 113.243 277.015 114.269C274.762 117.132 286.116 118.058 287.301 117.865C293.221 116.896 298.357 114.649 303.436 111.601C308.622 108.491 314.13 105.966 319.342 102.938C321.595 101.628 323.524 99.8925 325.579 98.337C325.873 98.1141 326.405 97.3633 326.702 97.078C327.18 97.2187 327.58 97.0946 327.902 96.7065C328.069 96.0995 328.248 95.4957 328.44 94.8966ZM442.96 542.863C437.202 544.907 427.79 546.499 425.088 553.256C422.028 560.911 435.782 566.368 441.18 566.784C446.851 567.219 456.929 564.923 457.719 557.869C458.173 553.809 454.955 551.218 451.948 549.193C448.876 547.122 444.489 546.678 442.96 542.863ZM74.5262 116.545C70.4561 117.013 67.6898 117.414 64.4475 120.056C61.7574 122.25 59.5409 124.465 58.4447 127.848C55.9103 135.668 62.1742 142.381 70.2206 141.47C71.1076 141.37 71.974 141.042 72.8745 141.132C73.7018 141.216 74.2801 141.809 74.9793 141.929C76.6275 142.209 76.9468 141.919 78.299 140.637C81.0572 138.018 83.8263 135.142 85.3542 131.609C89.0335 123.101 83.5 116.697 74.5262 116.545ZM167.062 100.249C167.457 91.4435 154.058 89.9963 147.88 90.6657C140.865 91.4269 129.356 98.552 132.027 107.294C134.379 114.988 147.646 114.402 153.379 112.838C154.606 112.504 156.512 111.777 157.719 112.023C159.533 112.39 159.62 113.883 161.329 112.532C162.403 111.682 163.373 109.208 164.131 107.989C165.642 105.561 166.423 103.029 167.062 100.249ZM355.391 461.872C355.206 463.757 354.487 466.181 356.515 467.078C357.769 467.633 361.248 467.026 362.507 467.07C367.764 467.257 373.159 466.839 378.384 467.257C379.928 467.38 384.545 468.948 385.92 467.897C387.264 466.869 386.215 463.654 386.125 462.215C385.759 456.341 386.546 450.633 386.799 444.792C386.866 443.223 387.514 439.412 386.312 438.25C384.848 436.835 381.6 437.653 379.856 437.83C374.414 438.381 368.815 439.189 363.344 439.201C361.843 439.204 358.517 438.138 357.215 438.7C355.214 439.563 355.685 442.575 355.575 444.498C355.24 450.296 355.018 456.069 355.391 461.872ZM233.039 198.949C225.904 193.661 218.507 188.646 211.373 183.504C208.832 181.674 206.943 179.06 204.562 177.274C203.069 176.152 202.614 175.664 200.573 176.747C198.214 177.999 196.022 179.964 193.846 181.517C192.019 182.821 190.183 184.115 188.353 185.413C186.658 186.616 186.09 186.889 187.291 188.888C189.406 192.404 193.796 195.576 196.666 198.468C203.749 205.604 210.668 212.987 218.627 219.151C221.362 211.166 227.022 204.673 233.039 198.949ZM313.027 75.6988C300.64 70.8025 299.701 54.2239 295.368 43.6564C294.026 50.8907 297.586 62.6479 291.577 68.3292C287.882 71.8227 285.741 66.8923 283.757 64.2087C280.735 60.1224 277.492 56.2157 274.607 52.0255C275.493 57.0806 278.031 62.754 277.557 67.8946C277.184 71.9302 274.605 77.4584 270.852 72.882C268.275 69.739 264.976 66.799 261.971 64.0113C258.358 60.6603 254.235 58.4954 250.308 55.6373C251.829 63.1971 254.728 69.9078 259.002 76.3058C261.194 79.5888 263.593 82.7416 265.663 86.1053C267.355 88.855 268.153 92.2749 270.394 94.6113C272.488 96.7934 275.566 98.5354 278.073 100.212C281.643 102.599 282.499 101.92 285.782 99.6514C292.136 95.2617 299.035 91.747 305.431 87.4126C304.247 85.8469 302.357 84.3002 302.418 82.1685C302.468 80.4432 303.788 78.8725 305.555 79.079C306.94 79.241 307.58 80.6921 309.12 80.2021C310.423 79.788 312.203 76.6769 313.027 75.6988ZM739.56 207.725C733.82 208.402 728.461 210.449 722.578 210.076C720.197 209.925 718.42 210.364 717.374 207.973C716.539 206.064 717.393 203.162 714.77 202.641C712.825 202.257 710.419 204.063 708.982 205.085C706.399 206.923 704.11 208.553 701.187 209.851C696.002 212.152 690.74 214.152 685.074 214.404C686.445 218.568 687.889 222.739 689.787 226.697C691.607 230.492 693.397 233.719 693.938 237.945C694.169 239.755 694.169 241.726 695.944 242.521C697.685 243.302 700.788 242.658 702.673 242.692C706.989 242.769 711.308 242.87 715.624 242.88C718.913 242.887 722.185 243.671 725.389 243.626C729.37 243.568 733.875 241.836 737.758 241.014C745.117 239.457 755.413 238.492 761.277 233.47C755.849 232.616 750.321 233.198 744.989 234.367C742.548 234.904 736.948 237.694 735.312 234.9C733.363 231.572 737.178 226.977 739.869 225.431C742.906 223.684 747.438 223.873 749.578 220.727C745.535 221.068 741.276 221.217 737.368 222.407C734.373 223.318 730.508 225.915 729.323 221.418C727.402 214.134 734.553 210.679 739.56 207.725ZM311.172 270.087C312.186 260.445 314.048 250.7 314.213 240.992C314.283 236.799 309.546 237.549 306.231 236.357C301.412 234.625 296.688 232.575 291.956 230.621C287.239 228.673 282.497 226.795 277.764 224.887C273.466 223.156 269.342 220.538 265.01 218.999C262.652 218.161 262.468 218.979 261.1 221.144C259.769 223.25 258.37 225.311 256.923 227.339C253.883 231.598 250.628 235.698 247.301 239.735C257.311 245.765 267.76 251.336 278.089 256.8C288.63 262.376 300.096 265.752 311.172 270.087ZM525.002 233.508C530.297 233.521 535.453 232.759 540.725 232.597C545.936 232.437 550.976 232.666 556.144 232.802C561.108 232.931 565.974 233.938 570.925 234.173C572.129 234.23 573.38 234.225 574.577 234.359C575.782 234.493 576.495 234.94 577.613 235.13C580.359 235.596 583.032 234.937 585.803 235.085C596.017 235.63 606.082 237.73 616.3 238.262C626.804 238.809 637.055 239.625 647.51 240.885C653.037 241.551 658.572 241.942 664.123 242.332C665.261 242.412 667.699 243.129 668.322 241.829C669.08 240.252 666.511 234.861 666.037 233.191C665.423 231.019 664.917 228.8 664.092 226.695C663.608 225.465 662.589 221.448 661.609 220.667C660.241 219.579 658.199 220.625 656.603 220.855C653.369 221.322 650.082 221.602 646.831 221.922C642.017 222.398 637.201 223.536 632.391 223.68C626.961 223.842 621.558 223.61 616.136 223.407C605.273 223 594.15 223.211 583.344 222.101C570.857 220.817 558.313 220.297 545.796 219.355C542.829 219.131 539.854 219.075 536.884 218.896C534.761 218.769 530.424 217.277 528.439 217.969C526.422 218.672 526.804 221.06 526.576 222.916C526.141 226.457 525.577 229.987 525.002 233.508ZM394.981 331.775C387.446 332.934 380.054 333.388 372.437 333.606C369.077 333.703 365.739 333.864 362.392 334.201C359.595 334.482 358.026 334.605 357.923 337.669C357.467 351.111 356.737 364.407 356.324 377.853C356.09 385.446 356.36 393.047 356.333 400.641C356.323 403.524 355.732 405.602 358.899 405.938C362.746 406.347 366.783 405.81 370.653 405.847C374.216 405.881 377.78 405.968 381.342 406.046C383.63 406.095 387.871 407.234 388.64 404.463C388.884 403.577 388.443 402.02 388.466 401.04C388.509 399.216 388.734 397.375 388.844 395.551C389.096 391.369 389.279 387.182 389.534 382.999C390.572 365.863 393.365 348.867 394.981 331.775ZM308.706 118.435C313.676 122.25 319.329 124.874 324.642 128.21C327.189 129.81 329.648 131.526 332.143 133.202C334.71 134.928 337.693 135.973 340.119 137.889C344.813 141.599 350.621 143.962 355.777 147.181C361.018 150.452 366.241 153.728 371.6 156.801C373.971 158.161 376.564 158.979 378.997 160.205C381.911 161.676 384.556 163.603 387.512 165.008C393.838 168.019 400.155 171.032 406.454 174.1C418.819 180.122 431.494 185.686 444.117 191.142C446.808 192.305 449.636 192.816 452.471 193.502C453.81 193.827 455.508 193.995 456.715 194.639C457.09 194.84 457.487 194.868 457.786 195.205C458.355 195.851 457.872 196.756 458.223 197.237C460.187 199.929 465.647 192.364 466.917 190.531C468.877 187.699 468.082 187.24 465.054 186.065C462.001 184.88 458.919 183.762 455.898 182.496C450.334 180.163 444.643 177.523 439.326 174.665C433.798 171.692 428.04 169.237 422.569 166.135C416.433 162.658 410.345 159.109 404.14 155.754C393.669 150.094 384.051 142.958 373.88 136.814C368.262 133.423 362.983 129.386 357.55 125.652C352.246 122.008 347.22 117.938 341.804 114.533C338.825 112.66 335.727 111.101 332.943 108.938C330.862 107.322 328.786 105.663 326.178 107.02C323.359 108.486 320.699 110.951 317.961 112.654C314.873 114.576 311.79 116.508 308.706 118.435ZM539.426 181.517C537.814 180.672 531.891 178.418 534.672 175.655C536.651 173.69 541.329 176.302 543.247 176.951C543.207 174.234 543.211 172.359 542.337 169.769C541.459 167.165 541.702 165.196 543.843 163.223C544.822 162.32 548.373 161.542 548.785 160.358C549.426 158.518 546.239 159.102 545.152 158.844C539.406 157.485 539.753 151.459 539.611 146.846C539.443 141.421 538.174 136.206 533.984 132.681C532.091 131.088 531.408 131.086 529.077 132.131C528.217 132.516 527.444 133.137 526.495 133.308C525.155 133.549 524.256 132.674 523.063 132.734C521.214 132.825 519.327 135.885 517.527 136.863C515.196 138.129 512.902 137.751 510.599 138.657C508.551 139.462 506.571 141.648 504.66 142.811C502.058 144.394 502.65 145.947 502.817 149.058C502.955 151.653 502.872 153.355 500.321 154.318C499.499 154.628 498.052 154.488 497.353 154.988C496.318 155.725 496.878 156.279 496.546 157.513C495.701 160.633 493.913 158.729 491.629 158.312C488.849 157.804 485.786 159.767 487.238 162.753C487.757 163.822 488.874 164.795 489.99 165.128C491.311 165.52 492.96 164.438 494.178 164.927C497.285 166.172 494.801 169.124 494.95 171.134C496.836 170.111 497.477 167.176 499.426 170.429C500.834 172.78 500.274 176.352 499.924 178.918C499.113 184.857 497.292 192.131 493.432 196.895C492.875 197.581 492.045 198.87 491 198.707C490.13 198.573 490.026 197.444 489.274 197.156C487.662 196.534 485.192 197.454 484.574 198.948C483.531 201.472 483.64 205.177 483.558 207.848C483.462 210.924 483.101 214.404 483.847 217.42C485.12 222.573 489.912 224.367 494.572 225.505C497.17 226.138 500.017 226.878 502.647 225.987C505.514 225.016 507.486 222.409 509.507 220.305C511.028 218.724 513.977 216.924 514.175 214.636C514.268 213.566 513.506 212.089 513.333 210.993C513.058 209.253 512.98 207.494 513.026 205.733C513.111 202.498 514.016 199.21 513.74 195.975C513.456 192.665 510.997 192.428 509.658 189.879C508.86 188.358 508.673 185.99 510.613 185.472C511.742 185.172 513.853 186.028 515.075 186.115C516.938 186.248 518.826 186.277 520.694 186.295C524.138 186.331 526.732 186.154 529.85 184.654C533.058 183.111 535.923 182.148 539.426 181.517ZM459.583 544.057C459.713 541.236 460.105 538.415 460.978 535.722C461.721 533.434 463.314 531.43 463.582 529.065C464.141 524.13 462.505 519.493 457.751 517.713C453.14 515.986 448.144 516.014 443.33 516.338C440.534 516.526 438.166 515.569 435.423 515.695C432.535 515.829 429.987 515.433 427.12 515.129C421.794 514.562 417.255 512.216 412.083 511.224C409.552 510.738 408.676 511.819 407.128 513.601C405.421 515.563 403.5 517.214 401.337 518.656C398.015 520.872 392.069 524.943 391.752 518.074C391.486 512.307 397.259 508.035 400.823 504.301C397.212 502.766 397.521 497.064 393.325 499.359C391.505 500.354 390.067 501.827 388.385 503.021C386.969 504.026 383.72 506.825 381.858 506.607C379.231 506.3 378.949 502.563 379.344 500.49C380.059 496.725 383.992 494.558 386.785 492.346C388.472 491.01 390.996 489.958 392.43 488.389C393.954 486.721 393.615 484.851 393.564 482.755C393.541 481.801 394.256 478.208 393.867 477.385C393.269 476.115 391.197 476.451 389.721 476.319C386.981 476.074 384.262 475.594 381.532 475.335C379.393 475.133 377.337 475.616 375.196 475.694C369.788 475.892 364.317 475.61 358.902 475.595C357.919 475.592 353.802 474.889 353.118 475.739C352.527 476.472 353.09 479.87 353.087 480.748C353.068 486.2 353.087 491.645 353.249 497.094C353.569 507.848 353.21 518.889 351.003 529.459C350.603 531.374 349.344 533.496 351.285 534.438C352.777 535.164 356.76 534.037 358.388 533.931C363.665 533.585 369 533.925 374.249 533.542C383.388 532.873 392.839 533.487 402.16 533.704C414.56 533.993 426.89 535.334 439.287 535.652C444.675 535.79 450.156 534.806 455.474 534.969C457.565 535.033 458.156 535.563 458.274 537.803C458.414 540.467 457.256 541.896 459.583 544.057ZM199.386 163.786C194.623 155.736 190.133 147.528 185.375 139.476C183.226 135.841 180.812 132.384 178.413 128.912C177.184 127.133 175.825 125.336 174.885 123.377C174.024 121.583 173.768 119.52 172.754 117.799C170.836 122.04 166.72 124.367 162.412 125.885C159.065 127.064 155.799 128.754 152.307 129.482C143.172 131.388 134.137 135.495 125.174 138.473C106.141 144.794 85.7967 148.265 67.4728 156.479C73.7253 162.67 71.7826 175.873 82.2154 177.869C86.3663 178.664 90.7012 177.386 94.6735 176.291C99.6895 174.908 104.709 173.536 109.731 172.169C115.179 170.684 120.682 169.531 126.174 168.234C128.933 167.583 131.709 167.131 134.473 166.545C136.776 166.055 136.803 165.577 138.01 163.407C140.05 159.739 143.835 155.987 147.036 160.826C148.339 162.798 148.063 165.271 149.205 167.225C150.181 168.894 152.267 169.759 153.734 170.886C154.752 168.012 155.968 164.117 158.217 161.909C160.671 159.499 163.109 161.438 163.992 164.27C165.053 167.673 163.489 171.814 162.805 175.162C162.471 176.799 161.836 178.679 162.22 180.358C162.731 182.588 164.673 184.887 165.831 186.823C176.649 178.757 187.7 170.519 199.386 163.786ZM410.87 299.303C407.702 295.007 404.354 291.201 401.977 286.388C399.435 281.246 397.379 275.706 394.669 270.693C391.977 265.716 389.5 260.644 387.043 255.533C385.327 251.967 383.375 243.403 378.463 243.617C376.01 243.725 373.508 244.609 371.039 244.851C368.146 245.136 365.241 245.12 362.351 245.473C356.013 246.248 349.843 247.635 343.446 248.011C337.949 248.334 332.38 248.499 326.876 248.26C325.377 248.195 321.472 247.026 320.082 247.695C318.461 248.476 319.003 251.522 318.866 253.08C318.349 258.942 317.557 264.81 316.667 270.625C316.514 271.617 314.982 276.572 315.668 277.41C316.725 278.702 321.269 277.838 322.751 277.953C328.596 278.403 334.34 279.738 340.163 280.385C343.116 280.712 346.073 280.788 349.043 280.798C351.928 280.808 356.138 280.012 358.874 281.001C360.635 281.637 361.633 283.133 361.065 285.039C360.439 287.139 358.402 287.609 356.513 288.002C355.128 288.29 351.111 288.13 350.239 289.404C349.294 290.783 350.948 293.382 351.414 294.69C352.308 297.197 351.8 298.273 351.735 300.726C351.664 303.306 353.158 305.578 352.959 308.188C352.764 310.739 352.658 312.776 352.906 315.377C353.125 317.662 352.973 320.165 353.294 322.384C354.035 327.521 365.139 324.414 368.584 324.337C375.706 324.177 382.857 325.33 389.952 324.989C392.039 324.888 396.879 325.267 398.351 323.494C399.844 321.698 400.081 317.6 401.043 315.377C403.555 309.57 407.301 304.479 410.87 299.303ZM474.287 184.964C473.767 190.924 473.478 195.516 469.91 200.531C466.102 205.887 461.721 205.407 455.706 205.996C450.308 206.525 446.073 208.309 441.736 211.502C436.636 215.257 431.136 218.375 425.701 221.607C415.363 227.756 403.033 229.456 391.293 231.283C388.341 231.743 382.892 233.065 386.365 236.565C390.099 240.328 392.19 245.88 394.7 250.587C400.451 261.381 404.86 272.975 411.421 283.312C414.071 287.489 417.242 292.528 421.31 295.477C425.171 298.275 432.923 293.078 436.854 291.359C441.964 289.125 447.325 287.429 452.139 284.673C456.628 282.101 461.198 279.882 465.917 277.766C470.55 275.686 475.038 273.616 479.891 272.099C485.601 270.313 491.636 269.679 497.436 268.124C503.388 266.529 508.084 264.838 512.893 260.891C515.128 259.058 517.852 257.225 518.751 254.327C519.673 251.363 518.994 247.583 518.855 244.543C518.708 241.367 518.215 238.113 518.28 234.935C518.345 231.732 519.915 229.217 520.864 226.24C522.36 221.543 524.063 213.026 519.323 209.863C518.989 214.881 517.22 219.385 515.564 224.092C513.968 228.626 511.347 231.4 507.429 234.043C505.939 235.049 504.326 236.449 502.561 236.906C500.69 237.391 498.071 237.142 496.126 237.164C491.75 237.21 487.009 236.063 483.639 233.112C476.817 227.138 475.328 216.431 475.987 207.938C476.367 203.053 477.171 198.132 479.409 193.725C480.179 192.209 481.709 190.592 480.855 188.817C479.961 186.959 475.958 185.834 474.287 184.964ZM339.684 289.044C331.638 287.994 323.258 287.138 315.443 284.866C312.599 284.04 309.168 282.993 309.138 279.581C309.129 278.534 309.913 276.642 309.461 275.658C308.999 274.648 306.118 274.58 304.784 274.315C289.283 271.24 274.885 265.228 261.046 257.7C247.051 250.085 234.123 241.101 220.916 232.227C208.032 223.57 197.326 212.998 186.616 201.88C185.128 200.335 183.602 198.83 182.065 197.334C180.944 196.242 179.387 194.018 177.914 193.425C175.265 192.36 171.561 196.396 169.219 197.597C166.172 199.161 162.538 199.397 160.527 196.103C159.199 193.927 160.434 193.529 160.624 191.482C160.781 189.798 159.629 188.844 158.616 187.672C157.835 189.517 156.796 192.892 154.137 192.473C151.747 192.096 151.484 188.801 151.315 186.922C151.116 184.731 151.798 181.948 150.316 180.175C149.151 178.78 146.873 177.761 145.381 179.025C142.378 181.566 144.326 189.137 140.089 191.025C134.115 193.684 134.698 181.546 134.571 179.119C121.198 180.599 108.628 186.443 95.24 188.356C89.7911 189.134 83.4977 188.879 78.7422 185.767C74.3697 182.907 69.8286 176.612 67.9593 171.782C63.4744 175.108 58.7855 177.658 53.0266 176.174C47.1725 174.666 42.0226 171.417 39.8715 165.53C37.712 159.622 38.3365 155.122 43.7276 151.788C45.9333 150.423 47.6775 149.754 50.1052 149.095C52.7933 148.366 56.1984 147.838 58.7364 146.682C56.1195 142.857 53.1426 139.11 51.9533 134.539C50.6117 129.384 51.281 123.584 53.3617 118.71C57.1224 109.901 67.694 104.007 77.2164 106.02C85.5265 107.777 91.4075 114.974 93.7674 122.846C94.8402 126.425 93.8985 128.638 98.2745 126.702C103.244 124.503 107.592 121.267 112.725 119.327C117.179 117.642 122.034 116.228 126.16 113.81C128.295 112.559 128.195 112.451 127.324 110.155C126.244 107.304 125.575 104.649 125.816 101.55C126.506 92.6772 133.847 86.3875 141.702 83.4679C150.608 80.1586 161.651 81.4659 168.325 88.6179C171.567 92.0931 173.78 96.6599 174.063 101.442C174.189 103.561 172.926 106.783 173.631 108.737C174.244 110.438 177.145 111.742 178.264 113.367C180.04 115.947 180.863 119.035 182.625 121.66C184.153 123.932 185.701 126.186 187.169 128.5C190.736 134.115 194.079 139.869 196.994 145.852C198.327 148.589 199.58 151.366 200.801 154.155C201.641 156.068 202.333 159.562 203.842 161.086C205.367 162.626 207.64 162.133 208.948 164.083C210.597 166.538 209.031 168.708 207.724 170.847C217.66 173.758 223.76 182.174 231.711 188.342C239.737 194.567 248.547 199.958 257.175 205.296C266.156 210.853 274.974 216.149 284.752 220.187C293.863 223.95 302.67 228.384 311.757 232.195C313.029 232.729 314.022 233.437 315.282 232.608C316.447 231.84 316.681 229.364 317.898 228.361C320.983 225.82 328.241 227.23 331.912 227.172C337.208 227.09 342.58 226.79 347.872 227.064C349.663 227.156 351.394 227.871 353.148 227.634C355.838 227.272 358.35 226.722 361.149 226.608C363.479 226.514 365.805 226.341 368.138 226.425C369.245 226.465 371.116 226.94 372.108 226.186C373.346 225.248 372.601 222.996 373.446 221.63C373.994 220.745 375.078 220.503 375.609 219.805C375.541 219.894 376.454 218.318 376.201 218.518C377.832 217.231 382.395 216.841 384.322 217.3C384.879 217.432 384.969 218.37 385.67 218.372C386.368 218.374 386.422 217.669 386.915 217.5C387.426 217.324 387.564 216.615 388.248 216.508C389.005 216.388 389.974 217.239 390.793 217.287C391.716 217.34 392.596 216.728 393.454 216.489C394.596 216.173 395.476 216.405 396.427 216.293C398.16 216.087 400.024 215.892 401.824 215.681C404.443 215.374 406.994 214.556 409.549 213.935C410.669 213.661 411.788 213.344 412.943 213.257C414.277 213.155 416.012 213.783 417.271 213.486C418.348 213.232 417.471 212.847 418.404 212.524C419.413 212.174 420.503 212.078 421.526 211.724C423.876 210.91 426.044 209.559 428.155 208.27C433.072 205.267 437.471 201.525 442.332 198.442C441.222 196.827 437.091 196.553 435.343 195.982C432.937 195.195 430.577 194.274 428.224 193.345C422.875 191.233 417.565 189.017 412.257 186.805C402.188 182.608 392.061 178.559 382.437 173.41C373.397 168.574 363.742 164.804 354.778 159.795C350.218 157.246 345.652 154.564 341.219 151.8C337.089 149.225 332.645 147.469 328.366 145.115C320.008 140.515 312.332 134.792 303.941 130.29C301.96 129.227 299.76 126.976 297.622 126.397C295.784 125.9 293.919 126.926 292.258 127.645C290.499 128.407 288.848 129.658 286.873 129.701C284.698 129.748 282.21 128.576 280.158 127.866C276.345 126.547 273.034 122.89 271.647 119.081C270.97 117.219 270.656 115.15 270.406 113.191C270.11 110.869 270.893 108.139 270.328 105.931C269.252 101.731 264.285 97.7869 261.507 94.7741C258.058 91.0333 255.068 86.8467 252.345 82.5558C246.258 72.9618 242.035 61.5822 245.428 50.2901C245.945 48.569 246.867 45.7251 248.39 44.5796C250.503 42.9881 251.408 44.8453 253.236 45.7678C255.507 46.9141 257.661 47.5816 259.789 49.1389C262.37 51.026 264.492 53.3277 266.87 55.4385C266.883 50.5643 266.125 46.2914 267.176 41.4102C267.716 38.9047 268.924 33.6929 272.11 33.2462C275.415 32.7825 277.785 38.7751 279.223 40.9614C281.897 45.0241 284.886 48.8361 287.861 52.678C288.247 46.7174 287.456 32.5474 294.947 30.2029C301.658 28.1014 305.128 46.1967 306.754 50.2459C308.27 54.0237 310.399 57.7559 312.703 61.112C315.117 64.6283 317.747 62.8366 321.488 63.0019C324.945 63.1551 326.5 65.548 326.462 68.9404C326.413 73.2325 323.004 76.3677 320.646 79.6062C325.75 82.0753 332.361 85.2865 335.41 90.3709C336.087 91.4972 336.552 92.7902 336.594 94.1196C336.634 95.434 335.432 97.8407 336.057 99.0555C336.512 99.9438 338.051 100.266 338.871 100.749C340.566 101.75 342.071 103.044 343.746 104.081C354.725 110.881 365.047 119.005 375.638 126.183C385.201 132.665 395.331 138.439 405.003 144.916C417.303 153.153 430.236 160.161 443.402 166.932C446.438 168.495 449.254 170.229 452.169 171.978C455.16 173.772 458.729 174.983 461.921 176.436C464.158 177.453 466.598 179.39 468.946 180.024C471.739 180.778 472.916 177.813 476.171 178.582C478.98 179.245 482.042 179.538 483.729 182.067C485.207 184.285 485.07 187.677 487.451 189.111C490.212 190.772 490.986 188.991 491.625 186.684C492.351 184.058 494.402 181.057 491.885 179.167C489.507 177.381 486.139 177.185 483.358 176.525C481.948 176.19 480.079 174.97 478.737 174.859C477.06 174.721 476.668 176.284 475.242 176.287C474.485 176.288 473.819 175.554 473.097 175.321C472.934 175.269 472.507 175.866 472.31 175.811C471.604 175.613 471.547 175.378 470.859 175.095C468.405 174.086 465.162 172.497 465.902 169.433C466.298 167.79 468.99 165.146 467.111 163.639C465.346 162.221 462.976 165.177 462.003 162.219C461.312 160.118 462.998 159.555 460.854 157.825C459.279 156.554 457.828 156.208 458.7 153.877C459.26 152.375 462.178 150.092 461.342 148.281C460.157 145.719 455.652 148.309 456.086 143.679C456.396 140.364 460.564 137.97 460.592 134.707C460.612 132.372 458.398 132.388 457.823 130.871C457.254 129.371 457.773 129.377 458.603 128.324C459.22 127.542 459.62 127.282 460.08 126.36C460.64 125.239 461.606 123.788 461.243 122.485C460.917 121.313 459.545 120.617 459.201 119.318C457.901 114.428 468.226 103.317 470.857 110.05C472.81 107.79 475.37 103.057 478.822 103.436C480.909 103.666 480.017 104.262 480.742 105.468C481.267 106.343 482.726 106.788 483.139 107.734C483.957 105.193 483.089 100.482 485.364 98.6168C487.58 96.799 488.973 99.9976 489.915 101.777C490.522 100.098 490.911 96.9468 493.003 96.3445C495.242 95.7012 496.639 98.503 497.729 99.9296C498.904 98.2604 501.106 93.3388 503.643 93.9387C505.545 94.3884 506.487 97.5664 507.376 99.0333C509.458 97.6652 512.739 94.371 515.434 94.7195C518.059 95.0578 517.828 97.5198 520.898 96.5129C523.124 95.7818 525.438 93.8406 527.801 93.6952C530.292 93.5419 531.609 95.2886 534.375 94.865C537.312 94.4152 537.761 93.7316 539.675 96.1303C540.62 97.3143 540.369 97.8336 542.009 98.0809C543.396 98.2912 544.61 97.3744 546.064 97.9521C547.14 98.3789 547.891 99.3756 548.342 100.4C548.873 101.61 548.257 103.706 548.788 104.658C549.809 106.489 553.67 104.873 555.404 106.145C557.742 107.861 555.54 110.466 556.786 112.368C557.785 113.894 560.601 113.505 561.722 115.565C562.738 117.431 562.499 119.897 561.32 121.627C560.826 122.353 559.435 122.955 559.108 123.613C558.436 124.969 559 124.811 559.391 126.197C560.139 128.848 559.54 129.849 557.498 131.663C556.316 132.712 556.07 132.41 555.991 134.005C555.93 135.235 556.977 136.376 556.782 137.753C556.466 139.989 554.267 141.395 553.605 143.594C552.752 146.424 550.422 147.974 548.666 150.303C550.742 151.556 553.471 152.595 554.478 154.947C555.578 157.513 555.374 161.165 554.595 163.768C553.847 166.263 552.246 167.855 550.707 169.835C548.834 172.246 548.993 174.158 548.877 177.099C548.632 183.319 545.964 188.967 539.867 190.943C537.448 191.727 535.263 192.88 532.809 193.61C529.808 194.505 527.612 194.577 524.498 194.4C522.551 194.29 520.272 193.87 519.595 195.934C519.256 196.965 519.38 200.98 519.843 201.896C520.633 203.465 522.875 203.256 524.226 204.613C526.661 207.06 525.972 209.145 530.083 209.201C543.4 209.387 556.675 208.359 569.992 209.323C576.559 209.799 582.986 210.935 589.578 211.269C596.835 211.636 604.11 211.758 611.361 212.199C618.206 212.615 624.903 213.512 631.783 213.157C638.209 212.826 644.381 212.385 650.781 211.675C652.97 211.432 656.362 211.781 657.909 210.106C658.766 209.178 658.964 207.586 659.819 206.563C660.61 205.62 661.682 204.937 662.652 204.2C665.004 202.414 667.222 200.808 670.325 200.866C673.044 200.918 675.212 202.883 677.428 204.328C680 206.006 681.065 206.777 684.114 206.126C687.154 205.479 689.942 204.278 692.908 203.394C699.163 201.531 705.025 198.852 710.724 195.674C713.531 194.108 715.508 193.055 718.741 193.998C722.055 194.964 722.997 195.915 723.037 199.357C723.049 200.451 722.633 202.393 723.889 203.025C724.8 203.482 726.807 202.204 727.58 201.868C730.999 200.384 734.356 198.838 737.93 197.755C741.192 196.765 744.494 195.888 747.769 194.943C750.509 194.152 754.163 193.008 756.892 194.479C763.788 198.196 753.641 207.642 751.006 210.785C754.292 209.997 761.346 210.446 763.073 213.974C765.12 218.151 761.019 222.291 758.705 225.327C761.945 226.804 768.49 225.534 769.403 230.183C770.17 234.087 766.112 238.018 763.467 240.302C756.62 246.212 746.001 250.349 736.959 250.428C734.664 250.447 732.428 250 730.146 249.891C728.476 249.812 726.969 250.39 725.347 250.392C723.06 250.394 721.032 249.945 718.673 250.268C715.955 250.639 713.258 251.096 710.527 251.404C707.994 251.689 705.458 251.949 702.916 252.147C701.241 252.279 698.714 251.909 697.157 252.472C695.143 253.199 695.731 253.927 695.567 255.865C695.365 258.246 694.16 260.397 692.408 261.984C686.039 267.751 675.194 266.366 671.994 257.902C671.215 255.844 672.249 254.768 671.955 252.913C671.66 251.045 669.924 251.108 668.224 250.983C663.049 250.599 657.807 250.564 652.61 250.205C642.551 249.512 632.189 248.1 622.134 248.34C611.64 248.59 601.081 247.959 590.598 247.389C585.707 247.122 580.639 245.406 575.826 245.777C570.712 246.169 565.281 245.067 560.14 244.533C548.648 243.338 535.821 242.991 525.202 238.215C526.041 249.731 527.436 261.423 518.095 270.012C514.181 273.611 509.263 277.734 504.131 279.268C497.515 281.246 491.174 282.886 484.442 284.353C471.924 287.082 459.487 293.614 448.193 299.481C442.882 302.241 436.648 303.316 430.889 304.863C428.147 305.601 425.056 306.572 422.179 306.469C419.345 306.368 417.378 304.441 414.876 303.29C412.482 308.933 409.25 314.099 406.84 319.667C405.646 322.43 404.704 325.367 403.312 328.039C402.25 330.076 400.532 331.171 400.37 333.532C399.975 339.265 401.024 345.246 400.743 351.044C400.436 357.368 399.454 363.786 398.875 370.117C397.623 383.799 398.207 397.575 397.191 411.276C396.263 423.792 396.843 436.212 395.455 448.739C395.07 452.216 394.643 455.689 394.365 459.178C394.182 461.467 392.916 466.737 394.109 468.789C394.63 469.686 395.883 469.782 396.721 470.231C398.029 470.933 399.218 472.006 400.195 473.123C402.258 475.481 402.751 478.289 403.221 481.293C405.891 479.856 417.085 472.482 415.409 480.558C414.89 483.063 412.618 484.413 410.827 486.011C409.513 487.182 408.26 488.425 406.862 489.498C405.92 490.222 403.922 491.12 403.467 492.302C402.655 494.416 406.852 497.433 408.832 497.409C411.614 497.378 415.086 493.202 417.444 491.871C423.7 488.335 423.135 495.969 420.776 499.287C418.996 501.791 420.501 501.598 422.95 502.107C426.776 502.902 430.31 503.58 434.199 504.065C441.632 504.993 448.947 503.795 456.323 505.512C463.668 507.223 468.034 511.807 469.104 519.367C469.67 523.36 470.2 521.355 473.552 522.292C476.648 523.158 478.396 526.699 480.178 529.1C483.735 533.891 490.385 545.961 484.937 551.61C482.624 554.008 477.007 553.399 473.962 553.809C472.003 554.072 469.644 554.986 467.668 554.513C465.789 554.063 464.539 552.381 463.183 551.148C463.165 558.731 463.119 565.318 457.113 570.792C452.267 575.211 445.787 577.24 439.288 576.792C432.919 576.354 426.379 573.762 422.344 568.64C420.214 565.938 418.698 562.623 418.149 559.218C417.895 557.649 417.822 556 418.067 554.424C418.213 553.487 419.104 551.789 418.539 550.885C417.548 549.301 412.692 550.618 411.09 550.779C406.859 551.206 402.64 551.74 398.425 552.305C394.941 552.772 391.387 553.268 387.891 552.607C384.886 552.039 383.738 551.715 384.279 555.272C385.365 562.428 383.555 568.775 377.673 573.175C371.787 577.578 366.355 578.45 359.156 577.291C352.579 576.231 346.563 570.019 344.647 563.837C342.097 555.61 344.726 548.116 350.868 542.5C347.143 540.612 344.673 539.497 343.359 535.137C341.985 530.579 343.269 525.785 343.918 521.214C345.313 511.399 344.77 501.846 345.249 491.999C345.46 487.654 346.357 483.231 346.371 478.898C346.379 476.427 346.243 476.515 343.7 476.496C342.123 476.484 340.452 476.594 339.788 474.755C338.185 470.321 345.705 470.695 347.597 468.93C349.852 466.825 348.294 458.52 348.229 455.598C348.015 446.106 348.952 436.834 349.136 427.367C349.22 423.091 349.48 418.594 349.127 414.333C348.986 412.632 348.013 411.257 348.078 409.564C348.16 407.397 348.578 405.372 348.466 403.116C347.485 383.278 347.27 363.073 349.814 343.365C349.966 342.185 350.799 339.529 350.354 338.343C349.678 336.548 347.533 337.184 346.035 336.527C341.842 334.688 340.805 331.77 340.577 327.496C340.441 324.964 340.307 322.431 340.176 319.898C340.108 318.597 340.042 317.295 339.971 315.993C339.889 314.485 340.509 312.789 340.474 311.522C340.462 311.116 340.286 310.508 340.283 310.268C339.797 310.029 339.609 309.679 339.714 309.216C339.692 308.78 339.763 308.356 339.923 307.943C339.948 308.19 339.631 306.547 339.604 306.691C339.648 306.467 340.47 305.134 340.388 304.972C340.004 304.217 339.19 305.134 338.918 303.728C338.691 302.547 339.459 301.16 339.202 299.777C338.513 296.088 339.163 292.778 339.684 289.044Z" fill="black"/>
<path fill-rule="evenodd" clip-rule="evenodd" d="M135.616 346.97C182.196 347.077 228.885 348.226 275.347 349.602C280.467 349.754 285.604 350.187 290.726 350.407C291.618 350.444 294.549 350.072 295.209 351.027C296.284 352.584 293.823 354.168 292.664 354.879C288.676 357.321 283.397 356.894 278.877 357.048C272.642 357.26 266.403 357.284 260.164 357.197C238.488 356.896 216.801 355.248 195.17 353.966C181.846 353.176 168.481 352.693 155.138 352.3C148.552 352.106 141.961 351.999 135.375 351.781C133.596 351.723 130.357 352.278 130.356 349.94C130.356 347.503 133.91 347.102 135.616 346.97Z" fill="black"/>
<path fill-rule="evenodd" clip-rule="evenodd" d="M191.322 373.181C224.283 374.602 257.266 375.575 290.23 376.891C292.367 376.977 296.916 376.347 297.718 378.97C298.553 381.697 295.077 384.433 292.777 385.14C289.791 386.059 285.989 385.544 282.872 385.632C278.678 385.751 274.692 385.713 270.512 385.43C254.584 384.352 238.682 382.951 222.75 381.869C213.731 381.257 204.718 380.533 195.712 379.755C193.311 379.548 186.178 380.191 184.496 378.233C183.46 377.027 184.558 375.163 185.582 374.233C187.269 372.702 189.207 373.049 191.322 373.181Z" fill="black"/>
<path fill-rule="evenodd" clip-rule="evenodd" d="M288.576 409.229C277.865 409.805 267.034 408.957 256.505 407.188C255.07 406.946 251.755 406.919 250.838 405.586C249.437 403.55 252.069 401.775 253.839 401.595C258.743 401.097 264.575 402.809 269.523 403.111C274.7 403.426 279.947 402.875 285.136 402.834C288.103 402.81 291.069 402.789 294.036 402.78C295.776 402.774 298.278 402.334 299.996 402.729C304.804 403.834 298.689 407.884 296.548 408.351C295.805 408.513 288.6 409.582 288.576 409.229Z" fill="black"/>
<path fill-rule="evenodd" clip-rule="evenodd" d="M522.32 152.161C522.391 150.904 522.065 147.726 523.62 147.13C526.654 145.968 526.453 153.417 527.635 154.466C531.974 158.311 530.804 143.497 534.939 148.274C538.298 152.157 535.6 161.511 530.874 163.257C527.393 164.542 525.024 162.069 523.671 159.204C523.64 159.138 521.759 152.131 522.32 152.161Z" fill="black"/>
<path fill-rule="evenodd" clip-rule="evenodd" d="M526.249 135.2C528.343 134.802 531.069 136.977 529.786 139.085C528.848 140.626 522.493 143.015 520.772 143.055C518.658 143.105 518.838 141.423 519.513 139.711C520.569 137.031 523.386 135.17 526.249 135.2Z" fill="black"/>
<path fill-rule="evenodd" clip-rule="evenodd" d="M144.577 101.445C145.221 98.7641 146.17 95.5884 149.342 98.1721C151.472 99.9085 153.029 104.19 153.243 106.868C153.499 110.074 151.74 111.705 148.896 109.906C146.009 108.081 144.909 104.716 144.577 101.445Z" fill="black"/>
<path fill-rule="evenodd" clip-rule="evenodd" d="M75.8437 135.155C74.8119 142.323 68.4565 135.652 68.7428 131.279C68.8914 129.003 70.1942 127.138 72.6686 128.503C74.8837 129.725 75.6548 132.941 75.8437 135.155Z" fill="black"/>
<path fill-rule="evenodd" clip-rule="evenodd" d="M437.682 554.116C438.154 552.336 438.258 548.673 440.316 547.892C443.36 546.737 444.681 551.799 444.782 553.836C444.892 556.044 444.121 560.735 440.961 560.346C438.37 560.026 438.199 556.049 437.682 554.116Z" fill="black"/>
<path fill-rule="evenodd" clip-rule="evenodd" d="M361.048 556.956C361.63 554.777 361.743 550.841 364.36 550.182C367.24 549.456 368.123 553.385 368.157 555.606C368.191 557.682 367.029 563.058 364.093 562.724C361.832 562.468 361.531 558.716 361.048 556.956Z" fill="black"/>
</svg>
