<svg width="388" height="466" viewBox="0 0 388 466" fill="none" xmlns="http://www.w3.org/2000/svg">
<path d="M34.4747 461.791C43.7275 462.086 52.9803 462 62.2329 461.874C88.0475 461.537 113.862 461.242 139.677 460.902C143.69 460.861 148.887 460.101 149.141 457.355C149.394 454.904 145.296 453.343 141.831 452.582C129.452 449.919 116.439 449.37 103.595 448.864C84.7097 448.146 65.7818 447.554 46.8963 447.048C35.1087 446.753 22.9829 446.499 11.998 449.201C5.9985 450.68 -2.7894 456.932 6.75903 460.015C9.42078 460.861 14.7443 460.524 17.6173 460.733C23.2365 461.199 28.8135 461.579 34.4747 461.791Z" fill="url(#paint0_linear_53_1501)"/>
<path opacity="0.22" d="M34.467 461.791C43.7198 462.086 52.9726 462 62.2251 461.874C88.0397 461.537 113.854 461.242 139.669 460.902C143.682 460.861 148.879 460.101 149.133 457.355C149.386 454.904 145.288 453.343 141.824 452.582C129.444 449.919 116.432 449.37 103.588 448.864C84.7019 448.146 65.7741 447.554 46.8886 447.048C35.1009 446.753 22.9751 446.499 11.9901 449.201C5.99068 450.68 -2.79721 456.932 6.75121 460.015C9.41297 460.861 14.7365 460.524 17.6094 460.733C23.2287 461.199 28.8055 461.579 34.467 461.791Z" fill="url(#paint1_linear_53_1501)"/>
<path d="M86.4424 130.149C81.2034 119.631 76.9785 108.691 72.7536 97.7511C71.1902 93.6538 70.0917 88.3737 73.3028 85.3747C75.2463 83.5583 78.2881 83.2626 80.8229 84.1074C83.358 84.9522 85.4706 86.7263 87.3298 88.6271C90.076 91.4573 92.3574 94.6675 94.5123 97.9201C104.272 112.746 105.835 132.346 107.103 150.045C108.032 163.266 105.919 177.29 111.581 189.286C109.468 190.088 107.314 190.891 105.201 191.694C104.694 191.862 104.145 192.074 103.638 191.82C103.131 191.567 102.962 190.976 102.793 190.426C100.216 180.627 98.357 170.742 95.0192 161.027C91.597 151.101 91.0475 139.654 86.4424 130.149Z" fill="#EDEDED"/>
<path d="M129.606 201.2C130.62 201.369 131.676 201.58 132.605 201.158C133.831 200.651 134.422 199.299 134.929 198.032C141.436 181.094 143.295 162.761 144.435 144.64C140.591 143.119 136.366 142.782 132.268 142.486C121.071 141.641 109.833 140.796 98.6368 139.951C92.0458 139.445 85.3704 138.98 78.8639 140.205C78.1035 158.622 77.3008 176.996 76.5401 195.413C76.4557 196.553 125.254 200.397 129.606 201.2Z" fill="#E2E2E2"/>
<path d="M110.646 170.528C110.731 170.528 110.858 170.486 110.942 170.401C110.773 170.401 110.689 170.443 110.646 170.528Z" fill="white"/>
<path d="M104.808 174.848C107.892 175.481 111.019 176.03 114.146 176.495C114.61 176.579 114.948 176.284 115.117 175.988C115.455 175.819 115.709 175.481 115.582 175.017C114.272 170.37 112.963 165.724 111.653 161.077C111.399 160.19 110.216 160.275 109.963 161.077C108.526 165.47 106.625 169.61 104.301 173.623C104.005 174.003 104.217 174.721 104.808 174.848ZM110.681 164.161C111.653 167.667 112.667 171.131 113.638 174.636C111.188 174.256 108.78 173.834 106.372 173.369C108.062 170.37 109.498 167.329 110.681 164.161Z" fill="white"/>
<path d="M83.5191 69.5823C80.8152 72.9614 76.7591 74.9889 72.8721 76.8476C69.6613 78.4104 66.2814 79.9734 62.7324 79.6356C56.6061 79.0441 52.6349 73.0461 49.5928 67.6815C45.0298 59.6134 40.34 51.1232 40.2554 41.8727C40.1287 33.4668 44.1004 25.1032 50.649 19.8654C57.1976 14.6276 66.239 12.6423 74.3933 14.5854C84.1954 16.9508 95.6028 23.836 93.1521 35.1986C92.0536 40.352 90.1524 45.2095 89.2651 50.4473C88.2089 56.8678 87.702 64.3022 83.5191 69.5823Z" fill="#EDDCD1"/>
<path d="M95.6009 24.8956C98.3471 30.9781 99.1498 37.7789 99.53 44.4528C99.5724 45.0442 99.5726 45.72 99.2345 46.1848C98.6429 46.9873 97.4177 46.9027 96.4459 46.7339C86.0947 44.8752 75.7859 43.0167 65.4347 41.2003C61.928 40.5668 57.7031 40.1865 55.4215 42.89C54.1539 44.3684 53.8582 46.4382 53.7314 48.3813C53.3936 52.9854 53.7314 57.5897 54.7032 62.1094C51.957 58.6033 50.8585 54.1259 50.478 49.6906C50.2669 47.1563 49.6332 43.8193 47.0981 43.4812C44.6054 43.1858 43.0846 46.5226 43.7606 48.9304C44.4366 51.3803 46.2957 53.2811 47.2251 55.6043C47.9434 57.4207 48.1122 59.4058 48.3234 61.3489C48.9149 66.8402 49.9711 72.3314 52.3795 77.2735C54.7876 82.2157 58.6323 86.651 63.6599 88.8898C59.5197 87.2424 55.4215 85.5527 51.281 83.9053C46.9291 82.1733 42.6198 80.3993 38.3102 78.6252C35.2258 77.3582 32.0997 75.9642 29.776 73.5987C28.1705 71.9936 26.9874 70.0082 26.1003 67.8964C21.5373 57.5051 23.1427 45.4666 26.3537 34.6108C28.8886 26.1206 32.691 17.4613 40.0003 12.3924C48.4924 6.52105 59.6885 6.85899 69.9551 7.78827C80.4755 8.84427 91.1223 14.9691 95.6009 24.8956Z" fill="#EDDDB2"/>
<path d="M28.7647 338.948C30.1166 308.197 27.1593 276.812 27.3283 245.892C26.3989 235.163 27.8776 224.223 31.5956 214.128C31.807 213.494 32.0602 212.861 32.525 212.396C33.9614 210.918 36.4121 211.678 38.3556 212.481C56.6919 220.041 78.366 218.225 95.0545 207.496C98.35 212.523 99.322 218.732 100.167 224.688C101.519 234.361 102.955 243.992 103.336 253.708V253.748C103.42 255.819 103.462 257.93 103.42 260C103.209 272.124 100.885 284.036 99.1106 295.991C97.9277 303.762 96.9139 311.618 96.8292 319.517C96.7448 325.981 97.6742 331.853 96.2376 338.188C92.731 353.775 92.731 370.712 91.2523 386.596C89.689 403.619 89.3932 403.07 88.1259 420.133C88.0836 420.811 88.0413 421.486 87.9566 422.161C87.1116 422.372 74.0143 425.413 74.0143 422.035C72.9158 388.962 70.5077 373.417 69.4092 340.341C68.9444 326.402 69.8738 279.346 66.3249 266.084C64.8882 266.21 63.4098 266.378 61.9732 266.547C54.0726 310.351 46.0451 369.488 38.1442 413.292C37.4682 417.136 36.6232 421.317 34.0881 423.808C31.5533 426.302 26.8214 425.624 26.061 421.781C28.3848 388.327 27.3281 372.445 28.7647 338.948Z" fill="#736357"/>
<path d="M64.1143 111.561C64.1571 111.561 64.2429 111.603 64.286 111.603C64.1999 111.603 64.1571 111.561 64.1143 111.561Z" fill="white"/>
<path d="M63.7881 111.482C63.8309 111.482 63.8311 111.525 63.8739 111.525C63.8311 111.482 63.7881 111.482 63.7881 111.482Z" fill="white"/>
<path d="M63.9154 111.525C63.8728 111.525 63.873 111.482 63.873 111.482C63.9585 111.525 64.0439 111.525 64.1293 111.567C64.0439 111.567 64.0008 111.567 63.9154 111.525Z" fill="#1D4360"/>
<path d="M24.4925 210.667C31.5905 197.953 35.2238 183.085 33.3226 168.596C31.886 157.698 27.4497 146.631 30.365 136.029C31.886 130.538 35.2661 125.765 38.2238 120.907C44.9835 109.755 49.631 97.3368 51.9126 84.4956C52.0393 83.8197 52.1661 83.1439 52.6307 82.6794C53.6024 81.7079 55.2502 82.257 56.5177 82.7215C61.0384 84.4535 66.1084 84.6646 70.7558 83.4396C73.4174 82.7215 74.0515 81.7079 75.6993 83.9464C77.0933 85.8475 77.7695 89.0576 78.6143 91.2541C82.417 101.138 85.7545 111.318 86.5575 121.921C86.98 127.243 86.7686 132.65 88.3317 137.761C89.5992 141.943 92.0074 145.617 93.9932 149.546C101.091 163.781 101.978 180.255 107.26 195.292C108.105 197.742 109.119 200.15 109.372 202.726C109.626 205.303 109.076 208.091 107.217 209.907C105.908 211.217 104.091 211.85 102.359 212.442C99.8238 213.329 97.2466 214.258 94.7115 215.145C91.1626 216.412 87.6136 217.637 83.938 218.355C79.4593 219.242 74.854 219.284 70.2489 219.327C61.7988 219.411 53.3913 219.538 44.9412 219.622C40.1247 219.665 35.3505 219.749 30.5341 219.369C27.3232 219.116 23.3094 217.848 23.0559 214.638C23.0136 213.286 23.7742 211.935 24.4925 210.667Z" fill="#F2F2F2"/>
<path d="M77.6399 420.894C76.6682 420.851 75.6541 420.723 74.8093 421.231C73.8796 421.781 73.4148 422.879 73.1613 423.934C71.5136 430.481 74.0487 437.239 74.767 443.957C75.1895 447.927 74.9781 451.982 75.612 455.952C76.964 455.826 78.3159 455.698 79.6681 455.572C79.3723 453.207 79.33 450.841 79.5835 448.476C79.6679 447.715 79.7949 446.955 80.2174 446.322C80.6399 445.688 81.4847 445.307 82.203 445.562C82.8366 445.814 83.1324 446.491 83.3861 447.123C83.9354 448.602 84.3997 450.123 84.7378 451.645C84.9069 452.489 85.0759 453.418 85.6675 454.05C86.5546 455.065 88.1177 455.149 89.512 455.108C94.5399 455.023 99.5675 454.94 104.553 454.854C106.708 454.811 109.116 454.642 110.468 452.995C112.116 450.967 111.102 447.758 109.243 445.982C107.342 444.166 104.806 443.237 102.61 441.844C100.201 440.322 98.1732 438.211 96.7369 435.72C94.2864 431.496 94.2017 425.116 90.9486 421.443C89.5966 419.922 88.0756 420.173 86.2168 420.471C83.3859 420.851 80.555 421.063 77.6399 420.894Z" fill="#3D322B"/>
<path d="M25.2942 415.755C24.8294 415.712 24.3647 415.755 23.9844 416.007C23.731 416.176 23.5619 416.473 23.4352 416.768C21.6185 420.486 21.7028 424.793 20.9424 428.849C19.8861 434.594 17.2243 439.874 15.0273 445.28C14.3935 446.844 13.8022 448.491 13.8444 450.179C13.9289 453.474 16.5907 456.305 19.6749 457.489C22.7591 458.67 26.2237 458.458 29.4768 457.867C30.1528 457.741 30.8288 457.615 31.4201 457.317C32.054 457.023 32.5609 456.516 33.0258 456.01C36.9972 451.7 37.2086 445.279 37.4197 439.408C37.5467 436.03 37.7576 432.692 38.011 429.355C38.2224 426.526 39.2789 422.934 38.7719 420.148C38.3494 417.78 36.5749 417.612 34.5047 417.36C31.4203 416.854 28.4206 415.924 25.2942 415.755Z" fill="#3D322B"/>
<path d="M48.3251 192.711C48.8744 213.662 50.6912 234.951 61.6761 254.721C57.7047 251.045 48.7053 251.383 42.3258 253.326C35.9459 255.268 30.2844 258.394 23.3133 259.197C17.3138 259.872 10.8495 258.605 6.58229 255.86C-1.65642 250.622 -0.515673 242.132 1.30106 234.825C10.3425 198.16 20.6094 161.538 26.1018 124.62C27.2003 117.354 28.2144 109.835 33.7492 103.415C37.0023 99.6556 41.7763 96.3186 43.0861 92.0946C43.7621 89.9402 43.4666 87.7016 44.5651 85.6318C45.6636 83.562 54.747 81.2809 58.1269 81.83C63.4927 87.8283 54.2822 95.0513 53.3528 101.81C52.3387 109.117 51.4939 116.383 50.7756 123.69C49.2969 138.559 48.4519 153.47 48.1561 168.381C48.114 176.491 48.1138 184.601 48.3251 192.711Z" fill="#ACB18F"/>
<path d="M82.5883 214.719C81.236 226.673 79.0391 238.965 84.109 250.538C84.6583 251.763 85.2919 253.031 86.6018 254.003C89.9817 256.494 96.108 256.24 101.347 256.114C113.6 255.776 112.755 252.65 123.782 256.031C121.036 240.147 118.289 224.265 115.543 208.383C112.374 189.966 109.163 171.465 100.333 153.808C87.9958 129.14 86.0946 109.287 76.2928 84.1961C75.6589 82.5487 66.9556 83.0976 64.4629 82.3374C62.0547 84.5339 66.4487 90.7854 67.4205 93.4889C68.9836 97.7552 70.4622 102.021 71.8142 106.33C74.5184 114.905 76.8 123.564 78.6168 132.265C82.2925 149.753 84.1511 167.409 84.2357 185.066C84.2357 194.908 83.6867 204.834 82.5883 214.719Z" fill="#ACB18F"/>
<path d="M65.8555 183.815C67.1651 183.942 68.6441 184.027 69.3624 185.125C69.7426 185.716 69.827 186.518 70.4185 186.941C70.7987 187.237 71.3059 187.237 71.7705 187.321C73.714 187.701 75.3194 189.518 75.4041 191.503C75.4885 193.488 74.1365 195.474 72.2353 196.065C70.0804 196.741 67.7567 195.727 65.7708 194.629C62.0528 192.644 58.5462 190.362 55.2084 187.786C54.8282 187.49 54.448 187.194 54.279 186.772C53.3496 184.702 54.8282 181.619 56.9408 181.45C59.4336 181.281 63.1093 183.604 65.8555 183.815Z" fill="#EDDCD1"/>
<path d="M51.9214 176.755C44.1052 170.334 38.5281 161.506 34.8524 152.129C33.7539 149.299 32.7821 146.384 32.4019 143.385C31.895 139.71 32.2329 136.035 32.5287 132.36C32.9512 127.376 33.3737 122.307 35.0638 117.618C36.1623 114.493 37.8098 111.536 39.0773 108.452C40.9785 103.763 41.9505 98.7791 42.922 93.837C43.2178 92.4007 43.4713 90.9223 43.1757 89.5284C42.88 88.0923 41.8659 86.7407 40.4293 86.487C38.8662 86.2336 37.4296 87.3319 36.2467 88.4301C25.7687 98.2723 20.1494 112.338 17.6989 126.489C15.9667 136.5 15.7554 147.144 19.8114 156.437C21.5014 160.281 23.8674 163.787 26.4023 167.124C33.8383 176.839 43.3022 185.583 54.9631 189.216C55.3857 189.342 55.8507 189.469 56.1886 189.258C56.5267 189.089 56.6532 188.709 56.8223 188.371C57.5826 186.555 59.5264 183.851 58.597 181.824C57.752 179.923 53.4847 178.064 51.9214 176.755Z" fill="#EDEDED"/>
<path d="M292.711 464.617C300.357 464.574 308.047 464.111 315.693 463.645C337.031 462.338 358.366 461.028 379.744 459.718C383.082 459.506 387.35 458.577 387.476 455.831C387.602 453.383 384.18 451.944 381.308 451.355C370.999 449.159 360.225 449.116 349.578 449.116C333.947 449.116 318.271 449.242 302.638 449.453C292.88 449.579 282.824 449.834 273.825 452.917C268.924 454.607 261.784 461.196 269.811 463.899C272.008 464.66 276.445 464.068 278.811 464.196C283.374 464.491 288.062 464.66 292.711 464.617Z" fill="url(#paint2_linear_53_1501)"/>
<path opacity="0.22" d="M292.698 464.617C300.347 464.574 308.037 464.111 315.683 463.645C337.018 462.338 358.356 461.028 379.733 459.718C383.072 459.506 387.337 458.577 387.466 455.831C387.592 453.383 384.17 451.944 381.296 451.355C370.988 449.159 360.215 449.116 349.568 449.116C333.934 449.116 318.261 449.242 302.627 449.453C292.867 449.579 282.812 449.834 273.812 452.917C268.912 454.607 261.771 461.196 269.798 463.899C271.995 464.66 276.432 464.068 278.798 464.196C283.361 464.491 288.052 464.66 292.698 464.617Z" fill="url(#paint3_linear_53_1501)"/>
<path d="M255.425 88.5512C255.171 86.9884 253.989 85.7635 252.805 84.6652C252.215 84.1161 251.581 83.5247 250.947 83.0179C247.609 80.399 243.257 79.0894 238.99 79.4695C237.765 79.5962 236.497 79.8498 235.61 80.6523C234.892 81.3282 234.469 82.2574 234.3 83.2289C234.258 83.4403 234.216 83.6937 234.3 83.9048C234.469 84.7073 235.441 85.003 236.244 85.1297C237.089 85.2564 237.976 85.4254 238.652 85.9323C239.328 86.4393 239.751 87.4529 239.328 88.1711C239.117 88.5091 238.779 88.7625 238.694 89.1426C238.567 89.7761 239.201 90.3252 239.835 90.5366C242.159 91.2968 244.694 90.0718 247.06 90.5787C247.778 90.7477 248.496 91.0434 249.214 91.2547C249.933 91.4235 250.735 91.5081 251.411 91.1278C252.087 91.0434 252.805 90.9167 253.482 90.7477C254.158 90.5789 254.919 90.3252 255.256 89.7341C255.468 89.396 255.511 88.9736 255.425 88.5512Z" fill="#EADDD0"/>
<path d="M217.026 61.4217C222.561 60.6192 228.18 59.7743 233.799 60.0277C234.898 60.07 236.081 60.1965 236.884 60.9146C237.644 61.5905 237.898 62.6466 238.151 63.6603C243.897 88.3288 249.601 112.997 255.347 137.665C255.432 138.088 255.558 138.51 255.473 138.933C255.304 139.904 254.334 140.453 253.487 140.876C239.123 147.845 222.561 148.141 206.633 148.268C205.239 148.268 203.76 148.268 202.661 147.465C201.436 146.62 200.972 145.1 200.549 143.664C194.042 120.389 192.521 95.9742 187.071 72.4042C186.691 70.7568 186.269 68.9827 186.818 67.3354C188.001 63.787 196.282 64.4628 199.324 64.0406C205.196 63.1958 211.111 62.3086 217.026 61.4217Z" fill="#545454"/>
<path d="M217.314 64.5973C222.427 63.8369 227.624 63.0767 232.778 63.2034C233.792 63.2454 234.89 63.3301 235.609 63.9636C236.285 64.555 236.538 65.4419 236.749 66.3291C241.777 87.7026 246.805 109.076 251.833 130.492C251.917 130.83 252.001 131.21 251.917 131.591C251.748 132.435 250.861 132.942 250.058 133.322C236.749 139.531 221.455 139.954 206.752 140.25C205.484 140.292 204.133 140.292 203.076 139.616C201.978 138.898 201.513 137.546 201.175 136.321C195.429 116.13 194.246 94.9679 189.472 74.5236C189.134 73.0876 188.796 71.5669 189.303 70.1307C190.444 67.0049 198.049 67.554 200.837 67.1316C206.372 66.2445 211.864 65.3999 217.314 64.5973Z" fill="#F7F7F7"/>
<path d="M226.786 143.659C226.913 143.871 227.124 144.04 227.293 144.166C227.758 144.462 228.265 144.631 228.814 144.589C229.363 144.546 229.871 144.335 230.209 143.955C231.265 142.73 230.842 140.618 229.025 140.491C227.673 140.407 225.984 142.35 226.786 143.659Z" fill="#F7F7F7"/>
<path d="M284.288 121.114C280.02 115.833 277.105 109.582 272.754 104.386C266.881 97.3745 260.628 92.348 256.74 84.0688C254.924 86.8989 248.84 89.7291 247.023 92.5591C254.079 102.148 261.134 110.215 264.092 123.394C265.488 129.477 272.079 138.559 275.246 143.966C276.936 146.838 279.219 149.33 281.625 151.653C286.823 156.68 292.99 161.073 300.09 162.34C310.864 164.241 321.382 157.145 321.171 145.613C320.962 135.264 306.933 136.236 299.836 133.025C293.794 130.322 288.387 126.225 284.288 121.114Z" fill="#E0C74E"/>
<path d="M304.02 78.4049C307.399 79.7989 310.652 80.686 313.017 80.7281C315.807 80.7704 318.384 79.3765 320.835 78.0671C325.862 75.3215 331.143 72.2802 333.72 67.169C335.199 64.17 335.579 60.7486 335.877 57.4115C336.595 49.0059 336.932 40.6 336.847 32.1518C336.806 27.8434 336.595 23.2392 334.186 19.6487C330.173 13.5661 321.848 12.5101 314.539 12.0877C307.356 11.6653 299.752 11.3274 293.373 14.7066C286.739 18.2548 288.261 23.4926 287.752 29.9976C287.12 38.1501 286.739 46.3446 286.654 54.4971C286.613 59.1435 286.782 64.0433 289.191 68.0139C291.514 71.7734 297.936 75.9127 304.02 78.4049Z" fill="#EADDD0"/>
<path d="M345.758 340.371C344.577 308.608 346.9 276.25 346.645 244.275C347.363 233.208 346.139 221.93 343.055 211.496C342.843 210.863 342.674 210.187 342.294 209.68C341.11 208.159 339.124 208.962 337.562 209.764C322.647 217.621 304.988 215.805 291.34 204.78C288.637 209.976 287.876 216.396 287.243 222.563C286.188 232.532 285.046 242.501 284.749 252.554V252.597C284.709 254.751 284.666 256.905 284.709 259.058C284.918 271.562 286.82 283.854 288.342 296.187C289.312 304.215 290.201 312.323 290.284 320.434C290.37 327.109 289.652 333.19 290.834 339.696C293.749 355.747 293.791 373.236 295.016 389.667C296.369 407.239 297.679 424.811 298.778 442.425C298.818 443.143 298.861 443.818 298.903 444.536C299.622 444.791 310.269 447.874 310.269 444.368C311.073 410.196 311.874 376.022 312.677 341.85C313.015 327.487 312.128 278.912 314.958 265.184C316.142 265.353 317.323 265.479 318.508 265.648C325.056 310.845 332.914 390.047 339.465 435.244C340.054 439.214 340.732 443.524 342.8 446.101C344.871 448.675 348.716 447.917 349.349 443.987C347.28 409.435 347.026 374.923 345.758 340.371Z" fill="#4D4D4D"/>
<path d="M314.91 444.247C314.781 443.869 314.698 443.446 314.572 443.065C313.262 437.912 312.584 432.589 312.584 427.267C312.584 424.859 312.713 422.41 312.164 420.045C309.08 420.085 300.418 419.536 297.334 419.579C297.079 419.579 296.785 419.579 296.573 419.748C296.361 419.917 296.278 420.257 296.235 420.509C294.882 427.859 299.445 435.927 297.797 443.234C297.122 446.149 294.419 447.204 291.925 448.683C289.77 449.992 285.502 453.161 282.925 453.161C281.446 453.753 279.884 454.343 278.785 455.527C277.687 456.708 277.264 458.653 278.279 459.92C279.166 461.018 280.771 461.101 282.167 461.144C292.897 461.229 303.67 460.3 314.232 458.355C314.867 458.229 315.542 458.103 316.008 457.637C316.389 457.257 316.557 456.751 316.683 456.287C317.908 451.597 316.134 448.302 314.91 444.247Z" fill="#BE9F3E"/>
<path d="M354.12 447C353.783 445.859 353.022 444.889 352.641 443.791C352.218 442.65 352.43 441.214 352.43 439.987C352.43 434.413 352.43 428.879 352.43 423.304C352.43 421.614 352.261 419.629 350.825 418.783C349.852 418.191 348.585 418.362 347.486 418.571C344.234 419.12 340.938 419.712 337.686 420.261C336.842 420.43 335.869 420.599 335.403 421.317C334.939 422.035 335.065 422.964 335.234 423.811C336.207 429.173 336.587 434.624 336.418 440.03C336.375 441.594 336.249 443.156 336.418 444.72C332.657 447.929 328.517 450.718 324.038 452.871C322.73 453.506 321.377 454.138 320.447 455.237C319.518 456.378 319.263 458.151 320.279 459.206C321.165 460.136 322.601 460.136 323.828 460.053C333.46 459.461 343.092 457.939 352.43 455.531C352.979 455.405 353.571 455.237 353.951 454.773C354.246 454.433 354.375 453.97 354.458 453.506C354.924 451.393 354.795 449.113 354.12 447Z" fill="#BE9F3E"/>
<path d="M303.965 89.9871C305.358 89.5226 306.754 88.9735 308.105 88.4664C314.993 85.8054 321.879 83.1442 328.724 80.5253C329.737 80.1452 330.835 79.7227 331.891 79.9338C332.738 80.1028 333.413 80.6099 334.088 81.159C346.975 91.5078 350.482 108.362 354.03 123.695C366.579 177.889 370.593 233.858 365.904 289.192C335.186 294.472 304.177 297.935 272.996 299.543C274.729 299.457 278.234 261.567 278.657 257.849C280.98 235.97 282.207 213.92 281.952 191.913C281.698 169.821 282.839 147.772 284.404 125.722C285.036 116.81 285.754 107.897 286.558 98.9844C286.853 95.4783 296.951 91.8881 299.485 91.339C301.05 90.9166 302.529 90.4518 303.965 89.9871Z" fill="#FCEE9F"/>
<path d="M234.817 117.302C231.817 113.458 229.198 109.361 226.537 105.221C225.565 103.659 224.677 101.631 225.734 100.111C226.368 99.2235 227.593 98.8433 228.691 98.97C229.79 99.0967 230.804 99.6459 231.733 100.279C233.085 101.209 234.268 102.307 235.451 103.49C240.648 108.728 242.929 116.584 244.915 123.681C246.394 129.003 246.69 134.874 249.985 139.31C249.182 139.816 248.379 140.323 247.577 140.83C247.408 140.957 247.154 141.084 246.943 140.999C246.732 140.957 246.605 140.703 246.478 140.492C244.619 136.691 243.056 132.847 240.859 129.172C238.662 125.412 237.479 120.808 234.817 117.302Z" fill="#EDEDED"/>
<path d="M258.305 142.686C258.726 142.686 259.192 142.686 259.529 142.432C259.993 142.137 260.121 141.503 260.204 140.954C261.431 133.52 260.671 125.874 259.655 118.397C257.967 118.102 256.234 118.313 254.5 118.524C249.854 119.115 245.206 119.707 240.559 120.298C237.813 120.636 235.067 121.016 232.532 122.03C233.757 129.591 234.982 137.152 236.165 144.713C236.249 145.22 256.488 142.728 258.305 142.686Z" fill="#E2E2E2"/>
<path d="M228.562 92.8387C227.717 94.444 226.238 95.5843 224.802 96.6825C223.619 97.5697 222.394 98.4989 220.915 98.668C218.38 98.9214 216.267 96.8092 214.577 94.8661C212.042 91.9518 209.423 88.8681 208.62 85.1089C207.859 81.6874 208.789 77.9702 211.028 75.2667C213.268 72.6057 216.774 71.0004 220.281 71.1271C224.464 71.2961 229.703 73.1125 229.661 77.9702C229.661 80.1667 229.28 82.3209 229.365 84.5174C229.449 87.263 229.872 90.3465 228.562 92.8387Z" fill="#EDDCD1"/>
<path d="M229.779 73.6654C231.427 75.9042 232.272 78.6075 232.99 81.3111C233.075 81.5645 233.117 81.8179 233.032 82.029C232.863 82.4093 232.356 82.4937 231.934 82.4937C227.582 82.5781 223.188 82.7051 218.836 82.7894C217.358 82.8318 215.625 83.0005 214.907 84.3101C214.527 85.0283 214.569 85.8729 214.654 86.6756C214.907 88.5764 215.414 90.4349 216.175 92.2089C214.78 91.0263 213.935 89.2522 213.428 87.4782C213.133 86.4643 212.583 85.155 211.527 85.2393C210.471 85.324 210.133 86.8023 210.64 87.7316C211.105 88.6608 212.034 89.2946 212.626 90.1815C213.09 90.8573 213.302 91.6598 213.555 92.4203C214.231 94.6168 215.118 96.771 216.512 98.5873C217.907 100.404 219.85 101.882 222.09 102.389C220.273 102.051 218.456 101.713 216.639 101.375C214.738 101.037 212.795 100.657 210.893 100.277C209.542 100.023 208.147 99.7277 207.006 98.9251C206.203 98.4183 205.57 97.7002 205.021 96.8977C202.317 93.0538 201.936 87.985 202.359 83.2963C202.697 79.6214 203.5 75.7775 206.077 73.1163C209.034 70.0329 213.639 69.2304 217.907 68.7656C222.301 68.3432 227.117 69.9483 229.779 73.6654Z" fill="#EDDDB2"/>
<path d="M216.219 155.271C218.036 149.484 218.289 143.148 216.304 137.403C214.825 133.095 212.079 128.955 212.417 124.393C212.586 122.028 213.558 119.789 214.36 117.55C216.177 112.439 217.064 106.99 216.937 101.583C216.937 101.288 216.937 100.992 217.064 100.781C217.36 100.316 218.078 100.401 218.67 100.485C220.655 100.823 222.726 100.485 224.542 99.598C225.556 99.0912 225.725 98.6265 226.613 99.3869C227.331 100.063 227.88 101.288 228.387 102.133C230.753 105.85 232.95 109.736 234.175 113.96C234.767 116.072 235.147 118.311 236.203 120.254C237.091 121.859 238.358 123.168 239.499 124.562C243.597 129.758 245.287 136.432 248.709 142.092C249.259 143.021 249.85 143.908 250.188 144.964C250.526 145.978 250.526 147.161 249.892 148.09C249.47 148.723 248.794 149.146 248.118 149.526C247.146 150.117 246.174 150.667 245.245 151.258C243.893 152.061 242.583 152.863 241.146 153.455C239.372 154.173 237.513 154.595 235.654 154.975C232.232 155.735 228.809 156.454 225.387 157.214C223.444 157.636 221.5 158.059 219.515 158.312C218.163 158.481 216.43 158.312 216.092 157.003C215.839 156.454 216.05 155.862 216.219 155.271Z" fill="#F2F2F2"/>
<path d="M224.461 145.986C226.404 154.477 228.939 163.009 235.066 170.148C233.122 168.965 229.488 169.852 227.08 171.204C224.63 172.513 222.602 174.287 219.813 175.174C217.405 175.935 214.701 175.977 212.715 175.217C208.913 173.78 208.702 170.19 208.829 167.107C209.462 151.393 210.603 135.638 209.758 120.135C209.589 117.094 209.378 113.926 211.11 110.843C212.124 109.026 213.772 107.294 213.983 105.478C214.067 104.549 213.772 103.662 214.067 102.732C214.363 101.803 217.87 100.113 219.264 100.029C221.968 102.014 218.799 105.731 218.968 108.561C219.18 111.603 219.433 114.644 219.729 117.685C220.363 123.852 221.25 130.02 222.391 136.102C223.024 139.397 223.7 142.691 224.461 145.986Z" fill="#ACB18F"/>
<path d="M240.259 152.098C240.681 157.083 240.85 162.278 243.85 166.587C244.188 167.051 244.526 167.516 245.159 167.769C246.765 168.53 249.216 167.896 251.328 167.389C256.271 166.249 255.679 165.024 260.453 165.488C258.005 159.237 255.596 152.985 253.144 146.734C250.314 139.51 247.483 132.203 242.413 125.74C235.357 116.701 232.907 108.759 226.823 99.34C226.443 98.7064 222.936 99.678 221.838 99.5513C221.035 100.65 223.359 102.846 223.992 103.86C225.006 105.465 225.936 107.112 226.865 108.717C228.682 112.012 230.33 115.349 231.809 118.728C234.766 125.571 237.005 132.583 238.484 139.764C239.287 143.861 239.878 147.959 240.259 152.098Z" fill="#ACB18F"/>
<path d="M230.896 140.855C231.445 140.77 232.037 140.728 232.417 141.108C232.628 141.32 232.713 141.658 233.008 141.784C233.177 141.869 233.389 141.826 233.6 141.826C234.445 141.826 235.205 142.418 235.417 143.22C235.628 144.023 235.205 144.952 234.487 145.332C233.642 145.797 232.628 145.544 231.741 145.29C230.051 144.783 228.445 144.15 226.882 143.389C226.713 143.305 226.544 143.22 226.417 143.052C225.868 142.291 226.206 140.897 227.051 140.644C228.065 140.348 229.755 141.024 230.896 140.855Z" fill="#EDDCD1"/>
<path d="M224.599 139.175C220.881 137.189 217.881 134.063 215.6 130.557C214.924 129.501 214.29 128.403 213.868 127.22C213.361 125.784 213.192 124.221 212.98 122.701C212.727 120.631 212.516 118.519 212.769 116.491C212.98 115.14 213.403 113.788 213.656 112.436C214.036 110.367 214.036 108.255 213.994 106.142C213.994 105.551 213.994 104.917 213.741 104.368C213.487 103.819 212.98 103.354 212.346 103.354C211.67 103.397 211.206 103.946 210.826 104.495C207.361 109.395 206.263 115.562 206.432 121.56C206.558 125.784 207.361 130.135 209.769 133.599C210.783 135.035 212.051 136.26 213.36 137.4C217.205 140.737 221.768 143.525 226.838 144.032C227.007 144.032 227.218 144.074 227.345 143.948C227.472 143.863 227.514 143.694 227.514 143.525C227.683 142.723 228.232 141.455 227.683 140.695C227.261 139.977 225.359 139.555 224.599 139.175Z" fill="#EDEDED"/>
<path d="M242.626 144.384C242.161 142.653 241.654 140.921 240.767 139.315C239.626 137.246 237.809 135.598 235.781 134.416C234.514 133.655 232.993 133.064 231.556 133.444C230.288 133.824 229.359 134.965 228.936 136.19C228.514 137.457 228.599 138.809 228.81 140.118C229.739 145.567 235.19 154.395 241.738 152.959C242.879 152.706 244.147 152.03 244.273 150.847C244.315 150.425 244.189 150.002 244.104 149.58C243.597 147.89 243.09 146.158 242.626 144.384Z" fill="#EADDD0"/>
<path d="M307.026 168.472C303.857 176.033 299.463 184.354 291.479 186.34C286.281 187.607 280.831 185.748 275.888 183.594C266.044 179.286 256.707 173.836 248.172 167.331C242.764 163.192 237.103 157.152 238.75 150.562C239.004 149.548 239.469 148.535 240.356 147.943C242.426 146.591 245.004 148.492 246.82 150.14C255.692 158.25 266.889 163.868 278.72 166.149C280.196 166.444 281.761 166.656 283.197 166.318C287.042 165.431 288.944 161.164 290.169 157.405C295.155 142.537 299.42 127.456 302.97 112.208C303.645 109.251 304.323 106.252 306.054 103.76C308.717 99.9159 313.912 97.9728 318.475 99.1134C333.305 102.873 324.476 120.487 321.518 129.653C317.208 142.748 312.393 155.715 307.026 168.472Z" fill="#E0C74E"/>
<path d="M383.926 120.013C381.56 117.352 377.715 115.662 376.869 112.157C376.236 109.411 377.841 106.623 379.744 104.553C381.686 102.483 384.009 100.709 385.405 98.2595C388.234 93.1907 385.531 85.883 380.038 83.8976C377.799 83.0951 375.35 83.0954 373.153 82.1659C370.956 81.279 369.011 78.8711 369.897 76.6323C370.787 74.3091 374.377 72.9154 373.573 70.5919C373.321 69.9161 372.772 69.4093 372.18 68.9869C370.278 67.5509 368.167 66.4103 365.927 65.5654C364.196 64.8896 362.336 64.3828 360.858 63.2846C357.013 60.3699 356.927 54.583 354.012 50.7391C353.42 49.9366 352.702 49.2607 351.941 48.6693C351.984 48.2469 351.984 47.8244 351.984 47.402C352.07 44.0652 352.112 40.6438 350.885 37.5178C350.167 35.6593 348.986 34.012 348.013 32.2799C347.97 32.2379 347.97 32.1532 347.928 32.1112C351.309 32.956 355.068 32.4913 357.814 30.3371C360.983 27.8449 362.208 22.9872 360.097 19.5657C359.253 18.2141 358.026 17.2003 357.053 15.9331C354.012 11.878 353.506 7.69623 347.676 7.18935C344.294 6.89368 340.281 7.44275 338.422 10.5263C333.226 3.55666 324.27 -0.202762 315.565 0.0084399C306.396 0.219642 297.651 4.40146 290.723 10.3996C288.569 12.3004 286.498 14.4124 285.23 16.9891C283.963 19.5657 283.583 22.4381 283.328 25.2683C283.076 28.056 282.61 32.2379 283.963 34.8145L283.709 36.2508C282.441 37.9825 284.089 40.3901 285.822 41.6574C296.933 50.0633 313.834 47.4867 324.522 56.4414C329.042 60.2009 331.873 65.6498 333.564 71.3101C334.365 74.0136 334.957 76.8437 334.662 79.6737C333.987 86.0098 329.253 90.9519 325.663 96.232C321.312 102.61 318.397 110.002 317.339 117.648C316.789 121.492 316.875 125.927 319.621 128.672C322.199 131.291 326.55 131.798 328.492 134.924C330.944 138.852 327.946 143.921 328.072 148.568C328.198 152.961 331.579 157.058 335.887 157.987C339.394 158.748 342.984 157.607 346.534 157.185C350.084 156.805 354.307 157.523 355.997 160.691C357.182 162.929 356.758 165.717 357.774 168.041C359.253 171.42 363.475 172.856 367.111 172.265C370.744 171.673 373.911 169.561 376.954 167.449C378.602 166.309 380.376 164.957 380.588 162.972C380.714 161.578 380.038 160.226 379.235 159.086C376.743 155.411 373.024 151.525 374.334 147.301C375.181 144.513 377.967 142.823 380.207 140.964C383.248 138.43 385.657 135.051 386.503 131.207C387.347 127.236 386.544 122.928 383.926 120.013Z" fill="#5E625E"/>
<defs>
<linearGradient id="paint0_linear_53_1501" x1="2.72156" y1="452.159" x2="149.038" y2="459.149" gradientUnits="userSpaceOnUse">
<stop stop-color="white"/>
<stop offset="1"/>
</linearGradient>
<linearGradient id="paint1_linear_53_1501" x1="2.71375" y1="452.159" x2="149.03" y2="459.149" gradientUnits="userSpaceOnUse">
<stop/>
<stop offset="1"/>
</linearGradient>
<linearGradient id="paint2_linear_53_1501" x1="266.186" y1="456.219" x2="387.426" y2="457.63" gradientUnits="userSpaceOnUse">
<stop stop-color="white"/>
<stop offset="1"/>
</linearGradient>
<linearGradient id="paint3_linear_53_1501" x1="266.173" y1="456.219" x2="387.413" y2="457.63" gradientUnits="userSpaceOnUse">
<stop/>
<stop offset="1"/>
</linearGradient>
</defs>
</svg>
