<svg width="936" height="577" viewBox="0 0 936 577" fill="none" xmlns="http://www.w3.org/2000/svg">
<path d="M936 0H0V577H936V0Z" fill="white"/>
<path fill-rule="evenodd" clip-rule="evenodd" d="M678.749 194.5C678.398 194.248 677.579 194.158 677.196 194.082C675.603 193.769 673.965 193.633 672.34 193.633C667.342 193.641 662.259 194.131 657.345 194.98C654.218 195.519 650.448 197.334 647.341 196.348C641.93 194.632 636.462 194.716 631.328 197.167C626.634 199.408 623.072 203.665 620.992 208.264C620.678 208.958 619.406 211.514 619.046 213.237C618.892 213.589 618.743 213.943 618.61 214.303C618.232 215.325 617.892 216.365 617.577 217.407C617.441 217.851 617.103 218.832 617.505 219.022C616.862 220.209 616.292 221.432 615.817 222.695C614.436 226.367 612.925 230.396 612.44 234.288C612.26 235.729 612.253 237.179 612.42 238.623C612.503 239.337 612.469 240.771 612.953 241.315C613.98 242.466 614.507 240.854 614.392 240.086C613.508 234.234 615.215 228.738 617.239 223.237C618.548 219.68 620.698 216.426 623.107 213.479C625.056 211.093 627.147 209.214 629.819 207.633C633.088 205.698 636.581 204.135 640.043 202.567C642.32 201.535 644.599 200.53 646.939 199.641C647.46 199.443 648.278 198.936 648.855 198.934C650.078 198.93 651.807 199.83 652.983 200.164C656.857 201.266 660.783 202.677 664.794 203.24C667.361 203.601 669.773 203.194 672.171 202.339C672.418 202.251 672.828 202.027 673.335 201.706C675.122 201.019 676.806 200.156 678.275 198.91C679.126 198.192 679.893 197.264 680.595 196.415C680.803 196.162 680.894 195.871 680.901 195.594C681.057 195.511 681.161 195.414 681.187 195.301C681.362 194.465 679.77 194.45 678.749 194.5Z" fill="#89C5CC"/>
<path fill-rule="evenodd" clip-rule="evenodd" d="M272.527 264.16C271.546 264.954 270.584 265.766 269.646 266.609C268.93 267.253 267.664 268.023 267.407 268.998C267.14 270.01 267.983 270.958 268.649 271.57C272.17 274.809 276.135 276.998 281.014 277.362C288.526 277.923 295.065 276.005 301.583 272.232C306.161 269.58 309.194 265.66 309.857 260.365C315.31 262.63 320.583 265.753 325.065 269.586C327.276 271.476 329.181 273.572 330.942 275.894C332.07 277.382 333.162 278.893 334.175 280.463C334.615 281.145 335.062 282.354 335.789 282.747C336.643 283.209 337.674 282.485 337.632 281.537C337.596 280.747 336.744 279.832 336.345 279.187C335.683 278.115 335.011 277.051 334.303 276.009C333.158 274.322 331.974 272.658 330.683 271.079C327.782 267.532 324.09 264.602 320.264 262.103C312.923 257.309 304.866 254.289 295.934 254.033C290.441 253.875 285.821 255.751 281.124 258.552C278.2 260.297 275.181 262.012 272.527 264.16Z" fill="#DDE3E9"/>
<path fill-rule="evenodd" clip-rule="evenodd" d="M343.774 240.973C338.05 235.08 332.307 229.261 325.912 224.073C322.143 221.015 318.172 218.235 314.282 215.336C314.731 215.729 315.171 216.133 315.6 216.548C314.386 215.724 312.797 215.258 311.51 214.495C310.074 213.644 308.701 212.672 307.355 211.69C304.727 209.776 302.139 207.826 299.437 206.011C296.428 203.99 293.309 202.123 290.248 200.178C287.65 198.527 285.021 196.72 282.242 195.371C280.727 194.635 279.209 193.763 277.688 192.996C277.179 192.739 272.014 189.479 272.027 189.469C272.313 189.254 274.912 190.475 275.314 190.639C276.488 191.119 277.611 191.692 278.739 192.263C278.12 191.042 277.63 189.759 277.363 188.407C277.28 187.991 276.62 184.954 276.958 184.699C277.126 184.573 278.774 190.004 278.858 190.527C278.927 190.95 278.917 191.562 279.056 191.963C279.28 192.612 279.269 192.416 279.763 192.781C280.669 193.451 281.87 193.87 282.85 194.43C283.379 194.725 285.015 195.894 286.001 196.227C288.982 197.675 292.005 199.902 294.838 201.752C294.094 200.354 293.528 198.894 293.116 197.364C293.018 197 291.958 193.74 292.216 193.546C292.505 193.328 294.523 198.308 294.642 198.779C294.864 199.655 294.91 200.629 295.188 201.481C295.493 202.416 296.445 202.748 297.303 203.293C300.46 205.298 303.51 207.429 306.507 209.657C309.779 203.841 306.007 196.818 302.828 191.939C300.536 188.422 297.452 185.406 294.195 182.774C289.848 179.262 284.875 176.454 279.907 173.887C274.12 170.896 267.864 169.043 261.36 168.187C257.959 167.739 254.479 167.751 251.044 167.895C249.365 167.965 247.754 168.187 246.146 168.735C245.42 168.981 244.72 169.293 244.037 169.641C243.518 169.905 242.263 170.185 241.966 170.58C239.51 173.774 238.254 176.957 238.446 180.972C238.627 184.772 239.828 188.573 241.457 191.963C243.271 195.738 245.605 199.163 248.657 202.038C250.986 204.232 253.589 206.141 256.175 208.025C265.373 214.726 277.035 220.555 288.948 219.058C292.805 218.573 296.473 217.225 299.9 215.393C300.708 214.961 301.511 214.524 302.273 214.015C302.787 213.671 304.162 212.123 304.678 212.067C305.387 211.989 306.914 213.431 307.579 213.869C312.632 217.203 317.552 220.718 322.369 224.375C327.495 228.267 332.369 232.422 337.1 236.773C339.111 238.624 341.111 240.479 343.064 242.392C343.519 242.837 344.631 244.475 345.456 244.55C345.977 244.597 346.329 244.152 346.255 243.669C346.126 242.831 344.36 241.576 343.774 240.973Z" fill="#C1DEE2"/>
<path fill-rule="evenodd" clip-rule="evenodd" d="M672.737 218.103C670.52 217.619 668.07 217.656 665.814 217.696C653.705 217.861 641.808 223.593 634.068 232.752C627.478 240.55 625.666 250.244 624.364 260.044C624.235 261.017 624.18 261.984 624.107 262.959C624.091 263.168 624.068 263.355 624.043 263.531C623.531 263.988 623.262 264.522 623.565 265.108C622.438 267.575 621.484 270.105 620.665 272.714C618.255 280.394 615.804 288.221 617.314 296.297C617.667 291.853 618.409 287.308 619.296 282.936C619.347 282.685 619.402 282.437 619.459 282.188C619.466 282.162 619.471 282.136 619.477 282.11C619.791 280.771 620.199 279.473 620.696 278.195C620.701 278.181 620.706 278.167 620.711 278.153C620.777 277.985 620.847 277.817 620.915 277.65C621.058 277.304 621.204 276.958 621.359 276.615C621.411 276.497 621.461 276.379 621.51 276.26C622.233 274.489 622.538 272.492 623.186 270.66C623.341 270.244 623.502 269.828 623.672 269.415C623.682 269.391 623.692 269.367 623.703 269.343C624.162 268.231 624.668 267.134 625.204 266.047C625.495 265.828 625.651 265.286 625.902 264.793C625.954 264.695 626.36 264.047 626.481 263.674C626.797 263.064 627.111 262.453 627.428 261.844C627.419 261.848 627.41 261.851 627.4 261.855C627.718 261.27 628.037 260.687 628.353 260.107C628.423 259.98 628.493 259.852 628.563 259.724C628.677 259.521 628.791 259.318 628.904 259.115C629.965 257.217 631.09 255.357 632.258 253.52C632.675 252.865 633.671 251.924 633.862 251.189C633.869 251.161 633.871 251.136 633.875 251.11C636.41 247.55 639.328 244.268 642.828 241.667C642.405 242.124 641.505 243.675 641.268 243.982C640.54 244.923 639.75 245.798 638.958 246.684C637.538 248.271 636.152 249.909 634.92 251.641C632.667 254.808 630.725 258.14 628.887 261.541C628.87 261.56 628.851 261.579 628.834 261.6C627.911 262.737 627.33 264.457 626.665 265.758C629.295 264.541 632.204 263.747 634.903 262.666C637.595 261.588 640.213 260.387 642.742 258.978C646.102 257.104 649.588 254.989 652.762 252.595C656.402 250.339 659.457 247.234 662.155 243.975C665.353 240.119 668.278 236.23 670.085 231.549C670.975 229.249 671.671 226.85 672.087 224.423C672.106 224.317 672.132 224.203 672.152 224.084C672.581 223.245 672.958 222.388 673.276 221.512C673.783 220.121 674.973 218.592 672.737 218.103Z" fill="#69A1AC"/>
<path fill-rule="evenodd" clip-rule="evenodd" d="M251.09 225.48C250.211 224.605 249.224 223.815 248.066 223.251C247.773 223.109 245.591 222.155 245.449 222.364C245.118 222.852 250.826 225.201 251.09 225.48ZM261.433 219.631C261.426 219.669 262.182 220.85 262.389 221.213C262.827 221.986 263.232 222.773 263.612 223.562C263.049 222.168 262.47 220.876 261.433 219.631ZM208.531 229.249C207.803 229.465 206.927 228.614 207.872 228.404C208.637 228.236 208.599 228.196 208.942 227.63C209.221 227.169 209.393 226.607 209.638 226.125C210.156 225.099 210.745 224.122 211.468 223.207C213.016 221.244 214.903 219.552 217.02 218.127C220.713 215.639 224.854 213.366 229.246 212.223C236.231 210.407 244.18 210.295 251.175 211.554C255.508 212.334 259.467 213.689 262.344 216.9C263.781 218.505 264.911 220.385 265.404 222.455C265.533 222.996 265.509 223.598 265.67 224.128C265.917 224.942 265.808 224.725 266.843 224.884C267.973 225.056 269.102 225.233 270.231 225.413C273.186 225.884 276.159 226.383 279.039 227.147C279.987 227.398 280.914 227.705 281.82 228.062C282.504 228.331 285.231 229.178 285.563 229.997C286.115 231.36 284.266 230.742 283.692 230.446C283.189 230.185 282.672 229.943 282.149 229.72C280.829 229.158 279.454 228.723 278.048 228.377C276.529 228.003 274.979 227.724 273.435 227.444C271.995 227.183 270.549 226.946 269.102 226.72C268.298 226.594 267.493 226.472 266.688 226.349C266.413 226.307 265.929 226.088 265.965 226.417C264.274 226.117 262.444 226.16 260.721 226.077C258.61 225.977 256.491 225.893 254.373 225.954C252.846 225.998 251.317 226.09 249.797 226.279C248.909 226.389 248.036 226.551 247.164 226.756C246.686 226.868 244.799 227.106 244.538 227.49C244.65 227.325 246.733 227.485 246.998 227.476C248.058 227.439 249.11 227.342 250.167 227.234C252.127 227.032 254.089 226.927 256.055 226.942C256.048 227.26 254.704 227.826 254.376 228.036C253.641 228.509 252.937 229.024 252.28 229.589C251.123 230.585 249.737 231.817 248.936 232.997C249.172 232.649 250.336 232.197 250.749 231.932C251.411 231.506 252.059 231.052 252.672 230.567C253.238 230.119 253.767 229.635 254.286 229.14C254.806 228.646 255.511 227.618 256.193 227.288C256.235 227.268 256.533 227.485 256.702 227.411C256.872 227.337 257.084 226.966 257.127 226.951C257.763 226.726 258.97 227.006 259.638 227.035C261.371 227.108 263.102 227.205 264.833 227.292C265.369 227.319 265.825 227.207 266.027 227.571C266.243 227.96 265.848 228.98 265.735 229.403C265.317 230.975 264.576 232.384 263.409 233.601C261.224 235.881 258.528 237.401 255.484 238.418C243.822 242.313 231.415 243.872 219.756 239.821C214.93 238.144 207.661 235.146 208.531 229.249Z" fill="#89C5CC"/>
<mask id="mask0_53_954" style="mask-type:luminance" maskUnits="userSpaceOnUse" x="198" y="302" width="545" height="178">
<path d="M742.736 302.123H198.464V479.213H742.736V302.123Z" fill="white"/>
</mask>
<g mask="url(#mask0_53_954)">
<g opacity="0.6">
<path fill-rule="evenodd" clip-rule="evenodd" d="M742.274 412.729C750.21 462.166 557.88 494.413 392.34 471.909C226.799 449.405 150.857 361.526 229.85 314.7C308.843 267.875 734.344 363.293 742.274 412.729Z" fill="#DDE3E9"/>
</g>
</g>
<path d="M417.95 116.959H325C322.128 116.959 319.8 119.287 319.8 122.158V307.993C319.8 310.864 322.128 313.191 325 313.191H417.95C420.822 313.191 423.15 310.864 423.15 307.993V122.158C423.15 119.287 420.822 116.959 417.95 116.959Z" fill="#F2F2F2"/>
<path fill-rule="evenodd" clip-rule="evenodd" d="M371.15 300.846C376.535 300.846 380.9 296.482 380.9 291.099C380.9 285.716 376.535 281.353 371.15 281.353C365.765 281.353 361.4 285.716 361.4 291.099C361.4 296.482 365.765 300.846 371.15 300.846Z" fill="white"/>
<path fill-rule="evenodd" clip-rule="evenodd" d="M362.7 129.955C363.418 129.955 364 129.374 364 128.656C364 127.938 363.418 127.356 362.7 127.356C361.982 127.356 361.4 127.938 361.4 128.656C361.4 129.374 361.982 129.955 362.7 129.955Z" fill="white"/>
<path d="M379.6 127.356H368.55C367.832 127.356 367.25 127.938 367.25 128.656C367.25 129.373 367.832 129.955 368.55 129.955H379.6C380.318 129.955 380.9 129.373 380.9 128.656C380.9 127.938 380.318 127.356 379.6 127.356Z" fill="white"/>
<path d="M411.45 135.153H331.5C330.064 135.153 328.9 136.317 328.9 137.752V167.642C328.9 169.078 330.064 170.241 331.5 170.241H411.45C412.886 170.241 414.05 169.078 414.05 167.642V137.752C414.05 136.317 412.886 135.153 411.45 135.153Z" fill="white"/>
<mask id="mask1_53_954" style="mask-type:luminance" maskUnits="userSpaceOnUse" x="354" y="145" width="48" height="15">
<path d="M401.7 145.68H354.25V159.715H401.7V145.68Z" fill="white"/>
</mask>
<g mask="url(#mask1_53_954)">
<path d="M399.75 145.68H356.2C355.123 145.68 354.25 146.552 354.25 147.629V148.994C354.25 150.07 355.123 150.943 356.2 150.943H399.75C400.827 150.943 401.7 150.07 401.7 148.994V147.629C401.7 146.552 400.827 145.68 399.75 145.68Z" fill="#DDE3E9"/>
<path d="M384.15 154.452H356.2C355.123 154.452 354.25 155.324 354.25 156.401V157.766C354.25 158.842 355.123 159.715 356.2 159.715H384.15C385.227 159.715 386.1 158.842 386.1 157.766V156.401C386.1 155.324 385.227 154.452 384.15 154.452Z" fill="#DDE3E9"/>
</g>
<path fill-rule="evenodd" clip-rule="evenodd" d="M342.55 160.494C346.858 160.494 350.35 157.003 350.35 152.697C350.35 148.391 346.858 144.9 342.55 144.9C338.242 144.9 334.75 148.391 334.75 152.697C334.75 157.003 338.242 160.494 342.55 160.494Z" fill="#C5CFD6"/>
<path d="M411.45 175.439H331.5C330.064 175.439 328.9 176.603 328.9 178.039V200.131C328.9 201.566 330.064 202.73 331.5 202.73H411.45C412.886 202.73 414.05 201.566 414.05 200.131V178.039C414.05 176.603 412.886 175.439 411.45 175.439Z" fill="white"/>
<mask id="mask2_53_954" style="mask-type:luminance" maskUnits="userSpaceOnUse" x="354" y="183" width="48" height="12">
<path d="M401.7 183.626H354.25V194.543H401.7V183.626Z" fill="white"/>
</mask>
<g mask="url(#mask2_53_954)">
<path d="M399.75 183.626H356.2C355.123 183.626 354.25 184.499 354.25 185.576V185.771C354.25 186.847 355.123 187.72 356.2 187.72H399.75C400.827 187.72 401.7 186.847 401.7 185.771V185.576C401.7 184.499 400.827 183.626 399.75 183.626Z" fill="#DDE3E9"/>
<path d="M384.15 190.449H356.2C355.123 190.449 354.25 191.322 354.25 192.399V192.593C354.25 193.67 355.123 194.543 356.2 194.543H384.15C385.227 194.543 386.1 193.67 386.1 192.593V192.399C386.1 191.322 385.227 190.449 384.15 190.449Z" fill="#DDE3E9"/>
</g>
<path fill-rule="evenodd" clip-rule="evenodd" d="M342.55 196.882C346.858 196.882 350.35 193.391 350.35 189.085C350.35 184.779 346.858 181.288 342.55 181.288C338.242 181.288 334.75 184.779 334.75 189.085C334.75 193.391 338.242 196.882 342.55 196.882Z" fill="#C5CFD6"/>
<path d="M411.45 207.928H331.5C330.064 207.928 328.9 209.092 328.9 210.527V232.62C328.9 234.055 330.064 235.219 331.5 235.219H411.45C412.886 235.219 414.05 234.055 414.05 232.62V210.527C414.05 209.092 412.886 207.928 411.45 207.928Z" fill="white"/>
<mask id="mask3_53_954" style="mask-type:luminance" maskUnits="userSpaceOnUse" x="354" y="216" width="48" height="12">
<path d="M401.7 216.115H354.25V227.031H401.7V216.115Z" fill="white"/>
</mask>
<g mask="url(#mask3_53_954)">
<path d="M399.75 216.115H356.2C355.123 216.115 354.25 216.988 354.25 218.065V218.259C354.25 219.336 355.123 220.209 356.2 220.209H399.75C400.827 220.209 401.7 219.336 401.7 218.259V218.065C401.7 216.988 400.827 216.115 399.75 216.115Z" fill="#DDE3E9"/>
<path d="M384.15 222.938H356.2C355.123 222.938 354.25 223.811 354.25 224.887V225.082C354.25 226.159 355.123 227.032 356.2 227.032H384.15C385.227 227.032 386.1 226.159 386.1 225.082V224.887C386.1 223.811 385.227 222.938 384.15 222.938Z" fill="#DDE3E9"/>
</g>
<path fill-rule="evenodd" clip-rule="evenodd" d="M342.55 229.371C346.858 229.371 350.35 225.88 350.35 221.574C350.35 217.268 346.858 213.776 342.55 213.776C338.242 213.776 334.75 217.268 334.75 221.574C334.75 225.88 338.242 229.371 342.55 229.371Z" fill="#AFB9C5"/>
<path d="M411.45 240.417H331.5C330.064 240.417 328.9 241.581 328.9 243.016V265.108C328.9 266.544 330.064 267.708 331.5 267.708H411.45C412.886 267.708 414.05 266.544 414.05 265.108V243.016C414.05 241.581 412.886 240.417 411.45 240.417Z" fill="white"/>
<mask id="mask4_53_954" style="mask-type:luminance" maskUnits="userSpaceOnUse" x="354" y="248" width="48" height="12">
<path d="M401.7 248.604H354.25V259.52H401.7V248.604Z" fill="white"/>
</mask>
<g mask="url(#mask4_53_954)">
<path d="M399.75 248.604H356.2C355.123 248.604 354.25 249.477 354.25 250.553V250.748C354.25 251.825 355.123 252.698 356.2 252.698H399.75C400.827 252.698 401.7 251.825 401.7 250.748V250.553C401.7 249.477 400.827 248.604 399.75 248.604Z" fill="#DDE3E9"/>
<path d="M384.15 255.427H356.2C355.123 255.427 354.25 256.3 354.25 257.376V257.571C354.25 258.648 355.123 259.52 356.2 259.52H384.15C385.227 259.52 386.1 258.648 386.1 257.571V257.376C386.1 256.3 385.227 255.427 384.15 255.427Z" fill="#DDE3E9"/>
</g>
<path fill-rule="evenodd" clip-rule="evenodd" d="M342.55 261.86C346.858 261.86 350.35 258.368 350.35 254.062C350.35 249.756 346.858 246.265 342.55 246.265C338.242 246.265 334.75 249.756 334.75 254.062C334.75 258.368 338.242 261.86 342.55 261.86Z" fill="#C5CFD6"/>
<path fill-rule="evenodd" clip-rule="evenodd" d="M339.391 275.504C338.53 275.504 337.671 275.522 336.811 275.566C336.155 275.601 335.154 275.465 334.599 275.873C334.023 276.298 334.062 277.166 334.153 277.779C334.629 281.023 335.79 283.899 338.22 286.197C341.962 289.735 346.252 291.533 351.328 292.334C354.894 292.896 358.185 292.115 360.81 289.58C362.728 293.139 364.183 297.076 364.913 301.05C365.273 303.011 365.383 304.949 365.32 306.946C365.279 308.224 365.208 309.501 365.071 310.774C365.011 311.326 364.729 312.163 364.946 312.686C365.2 313.3 366.057 313.36 366.442 312.836C366.763 312.401 366.704 311.545 366.77 311.03C366.879 310.173 366.98 309.316 367.052 308.456C367.169 307.063 367.256 305.667 367.25 304.269C367.235 301.128 366.536 297.976 365.581 294.994C363.748 289.274 360.774 284.191 356.149 280.203C353.304 277.751 350.049 276.758 346.356 276.224C344.057 275.892 341.72 275.504 339.391 275.504Z" fill="#89C5CC"/>
<path fill-rule="evenodd" clip-rule="evenodd" d="M352.671 298.247C343.377 298.247 337.117 305.735 334.158 313.518C333.042 316.451 332.781 319.672 332.35 322.752C332.213 323.741 332.264 325.247 331.862 326.128C331.717 326.447 331.382 326.562 331.542 326.997C331.639 327.26 331.828 327.422 332.114 327.474C332.698 327.582 333.525 326.945 334.026 326.694C338.183 324.61 340.915 321.387 343.143 317.444C344.525 315 345.926 312.463 346.746 309.78C347.248 308.141 347.539 306.415 347.711 304.714C347.779 304.045 347.844 303.359 347.84 302.686C347.836 302.017 347.525 301.664 347.301 301.082C350.402 299.909 353.903 299.589 357.044 300.805C359.95 301.93 362.363 304.103 363.715 306.834C364.066 307.544 364.337 308.292 364.534 309.056C364.663 309.557 364.669 310.205 364.909 310.657C365.489 311.754 366.709 311.021 366.592 310C366.265 307.154 364.636 304.295 362.554 302.316C359.927 299.82 356.368 298.247 352.671 298.247Z" fill="#89C5CC"/>
<path d="M460.85 133.854H367.9C365.028 133.854 362.7 136.181 362.7 139.052V324.887C362.7 327.758 365.028 330.085 367.9 330.085H460.85C463.722 330.085 466.05 327.758 466.05 324.887V139.052C466.05 136.181 463.722 133.854 460.85 133.854Z" fill="#DDE3E9"/>
<path fill-rule="evenodd" clip-rule="evenodd" d="M414.05 317.74C419.435 317.74 423.8 313.376 423.8 307.993C423.8 302.61 419.435 298.247 414.05 298.247C408.666 298.247 404.3 302.61 404.3 307.993C404.3 313.376 408.666 317.74 414.05 317.74Z" fill="white"/>
<path fill-rule="evenodd" clip-rule="evenodd" d="M405.6 146.849C406.319 146.849 406.9 146.268 406.9 145.55C406.9 144.832 406.319 144.25 405.6 144.25C404.882 144.25 404.3 144.832 404.3 145.55C404.3 146.268 404.882 146.849 405.6 146.849Z" fill="white"/>
<path d="M422.5 144.25H411.45C410.732 144.25 410.15 144.832 410.15 145.55C410.15 146.267 410.732 146.849 411.45 146.849H422.5C423.218 146.849 423.8 146.267 423.8 145.55C423.8 144.832 423.218 144.25 422.5 144.25Z" fill="white"/>
<path d="M454.35 152.047H374.4C372.964 152.047 371.8 153.211 371.8 154.646V184.536C371.8 185.972 372.964 187.135 374.4 187.135H454.35C455.786 187.135 456.95 185.972 456.95 184.536V154.646C456.95 153.211 455.786 152.047 454.35 152.047Z" fill="white"/>
<mask id="mask5_53_954" style="mask-type:luminance" maskUnits="userSpaceOnUse" x="377" y="162" width="49" height="15">
<path d="M425.1 162.574H377.65V176.609H425.1V162.574Z" fill="white"/>
</mask>
<g mask="url(#mask5_53_954)">
<path d="M423.15 162.574H379.6C378.523 162.574 377.65 163.446 377.65 164.523V165.888C377.65 166.964 378.523 167.837 379.6 167.837H423.15C424.227 167.837 425.1 166.964 425.1 165.888V164.523C425.1 163.446 424.227 162.574 423.15 162.574Z" fill="#DDE3E9"/>
<path d="M407.55 171.346H379.6C378.523 171.346 377.65 172.218 377.65 173.295V174.66C377.65 175.736 378.523 176.609 379.6 176.609H407.55C408.627 176.609 409.5 175.736 409.5 174.66V173.295C409.5 172.218 408.627 171.346 407.55 171.346Z" fill="#DDE3E9"/>
</g>
<path fill-rule="evenodd" clip-rule="evenodd" d="M447.85 174.14C450.363 174.14 452.4 172.103 452.4 169.591C452.4 167.079 450.363 165.043 447.85 165.043C445.337 165.043 443.3 167.079 443.3 169.591C443.3 172.103 445.337 174.14 447.85 174.14Z" fill="#DDE3E9"/>
<path fill-rule="evenodd" clip-rule="evenodd" d="M447.85 171.541C448.927 171.541 449.8 170.668 449.8 169.591C449.8 168.515 448.927 167.642 447.85 167.642C446.773 167.642 445.9 168.515 445.9 169.591C445.9 170.668 446.773 171.541 447.85 171.541Z" fill="#F2F2F2"/>
<path d="M454.35 192.333H374.4C372.964 192.333 371.8 193.497 371.8 194.933V217.025C371.8 218.46 372.964 219.624 374.4 219.624H454.35C455.786 219.624 456.95 218.46 456.95 217.025V194.933C456.95 193.497 455.786 192.333 454.35 192.333Z" fill="white"/>
<mask id="mask6_53_954" style="mask-type:luminance" maskUnits="userSpaceOnUse" x="397" y="200" width="48" height="12">
<path d="M444.6 200.521H397.15V211.437H444.6V200.521Z" fill="white"/>
</mask>
<g mask="url(#mask6_53_954)">
<path d="M442.65 200.521H399.1C398.023 200.521 397.15 201.393 397.15 202.47V202.665C397.15 203.741 398.023 204.614 399.1 204.614H442.65C443.727 204.614 444.6 203.741 444.6 202.665V202.47C444.6 201.393 443.727 200.521 442.65 200.521Z" fill="#DDE3E9"/>
<path d="M427.05 207.343H399.1C398.023 207.343 397.15 208.216 397.15 209.293V209.488C397.15 210.564 398.023 211.437 399.1 211.437H427.05C428.127 211.437 429 210.564 429 209.488V209.293C429 208.216 428.127 207.343 427.05 207.343Z" fill="#DDE3E9"/>
</g>
<path fill-rule="evenodd" clip-rule="evenodd" d="M385.45 213.776C389.758 213.776 393.25 210.285 393.25 205.979C393.25 201.673 389.758 198.182 385.45 198.182C381.143 198.182 377.65 201.673 377.65 205.979C377.65 210.285 381.143 213.776 385.45 213.776Z" fill="#C5CFD6"/>
<path d="M454.35 224.822H374.4C372.964 224.822 371.8 225.986 371.8 227.421V249.514C371.8 250.949 372.964 252.113 374.4 252.113H454.35C455.786 252.113 456.95 250.949 456.95 249.514V227.421C456.95 225.986 455.786 224.822 454.35 224.822Z" fill="white"/>
<mask id="mask7_53_954" style="mask-type:luminance" maskUnits="userSpaceOnUse" x="377" y="233" width="49" height="11">
<path d="M425.1 233.009H377.65V243.925H425.1V233.009Z" fill="white"/>
</mask>
<g mask="url(#mask7_53_954)">
<path d="M423.15 233.009H379.6C378.523 233.009 377.65 233.882 377.65 234.959V235.154C377.65 236.23 378.523 237.103 379.6 237.103H423.15C424.227 237.103 425.1 236.23 425.1 235.154V234.959C425.1 233.882 424.227 233.009 423.15 233.009Z" fill="#DDE3E9"/>
<path d="M407.55 239.832H379.6C378.523 239.832 377.65 240.705 377.65 241.781V241.976C377.65 243.053 378.523 243.926 379.6 243.926H407.55C408.627 243.926 409.5 243.053 409.5 241.976V241.781C409.5 240.705 408.627 239.832 407.55 239.832Z" fill="#AFB9C5"/>
</g>
<path fill-rule="evenodd" clip-rule="evenodd" d="M447.85 243.016C450.363 243.016 452.4 240.979 452.4 238.467C452.4 235.955 450.363 233.919 447.85 233.919C445.337 233.919 443.3 235.955 443.3 238.467C443.3 240.979 445.337 243.016 447.85 243.016Z" fill="#DDE3E9"/>
<path fill-rule="evenodd" clip-rule="evenodd" d="M447.85 240.417C448.927 240.417 449.8 239.544 449.8 238.467C449.8 237.391 448.927 236.518 447.85 236.518C446.773 236.518 445.9 237.391 445.9 238.467C445.9 239.544 446.773 240.417 447.85 240.417Z" fill="#F2F2F2"/>
<path d="M454.35 257.311H374.4C372.964 257.311 371.8 258.475 371.8 259.91V282.002C371.8 283.438 372.964 284.602 374.4 284.602H454.35C455.786 284.602 456.95 283.438 456.95 282.002V259.91C456.95 258.475 455.786 257.311 454.35 257.311Z" fill="white"/>
<mask id="mask8_53_954" style="mask-type:luminance" maskUnits="userSpaceOnUse" x="397" y="265" width="48" height="12">
<path d="M444.6 265.498H397.15V276.414H444.6V265.498Z" fill="white"/>
</mask>
<g mask="url(#mask8_53_954)">
<path d="M442.65 265.498H399.1C398.023 265.498 397.15 266.371 397.15 267.447V267.642C397.15 268.719 398.023 269.592 399.1 269.592H442.65C443.727 269.592 444.6 268.719 444.6 267.642V267.447C444.6 266.371 443.727 265.498 442.65 265.498Z" fill="#DDE3E9"/>
<path d="M427.05 272.321H399.1C398.023 272.321 397.15 273.194 397.15 274.27V274.465C397.15 275.542 398.023 276.414 399.1 276.414H427.05C428.127 276.414 429 275.542 429 274.465V274.27C429 273.194 428.127 272.321 427.05 272.321Z" fill="#DDE3E9"/>
</g>
<path fill-rule="evenodd" clip-rule="evenodd" d="M385.45 278.754C389.758 278.754 393.25 275.263 393.25 270.956C393.25 266.65 389.758 263.159 385.45 263.159C381.143 263.159 377.65 266.65 377.65 270.956C377.65 275.263 381.143 278.754 385.45 278.754Z" fill="#C5CFD6"/>
<path d="M618.15 150.098H410.8C407.928 150.098 405.6 152.425 405.6 155.296V369.722C405.6 372.592 407.928 374.92 410.8 374.92H618.15C621.022 374.92 623.35 372.592 623.35 369.722V155.296C623.35 152.425 621.022 150.098 618.15 150.098Z" fill="#F2F2F2"/>
<path d="M607.75 178.038H572.65C569.778 178.038 567.45 180.365 567.45 183.236V225.472C567.45 228.343 569.778 230.67 572.65 230.67H607.75C610.622 230.67 612.95 228.343 612.95 225.472V183.236C612.95 180.365 610.622 178.038 607.75 178.038Z" fill="white"/>
<path fill-rule="evenodd" clip-rule="evenodd" d="M590.2 208.577C595.944 208.577 600.6 203.923 600.6 198.181C600.6 192.439 595.944 187.785 590.2 187.785C584.456 187.785 579.8 192.439 579.8 198.181C579.8 203.923 584.456 208.577 590.2 208.577Z" fill="#DDE3E9"/>
<path d="M604.5 211.177H575.9C574.823 211.177 573.95 212.05 573.95 213.126C573.95 214.203 574.823 215.075 575.9 215.075H604.5C605.577 215.075 606.45 214.203 606.45 213.126C606.45 212.05 605.577 211.177 604.5 211.177Z" fill="#DDE3E9"/>
<path d="M599.3 217.674H581.1C580.023 217.674 579.15 218.547 579.15 219.624C579.15 220.7 580.023 221.573 581.1 221.573H599.3C600.377 221.573 601.25 220.7 601.25 219.624C601.25 218.547 600.377 217.674 599.3 217.674Z" fill="#DDE3E9"/>
<path d="M405.6 155.296C405.6 152.425 407.928 150.098 410.8 150.098H618.15C621.022 150.098 623.35 152.425 623.35 155.296V167.642H405.6V155.296Z" fill="#C5CFD6"/>
<path fill-rule="evenodd" clip-rule="evenodd" d="M414.05 161.793C415.486 161.793 416.65 160.63 416.65 159.194C416.65 157.759 415.486 156.595 414.05 156.595C412.614 156.595 411.45 157.759 411.45 159.194C411.45 160.63 412.614 161.793 414.05 161.793Z" fill="#F2F2F2"/>
<path fill-rule="evenodd" clip-rule="evenodd" d="M421.85 161.793C423.286 161.793 424.45 160.63 424.45 159.194C424.45 157.759 423.286 156.595 421.85 156.595C420.414 156.595 419.25 157.759 419.25 159.194C419.25 160.63 420.414 161.793 421.85 161.793Z" fill="#F2F2F2"/>
<path fill-rule="evenodd" clip-rule="evenodd" d="M429.65 161.793C431.086 161.793 432.25 160.63 432.25 159.194C432.25 157.759 431.086 156.595 429.65 156.595C428.214 156.595 427.05 157.759 427.05 159.194C427.05 160.63 428.214 161.793 429.65 161.793Z" fill="#F2F2F2"/>
<path d="M607.75 235.868H572.65C569.778 235.868 567.45 238.195 567.45 241.066V356.726C567.45 359.597 569.778 361.924 572.65 361.924H607.75C610.622 361.924 612.95 359.597 612.95 356.726V241.066C612.95 238.195 610.622 235.868 607.75 235.868Z" fill="white"/>
<path d="M598.65 247.564H581.75C580.314 247.564 579.15 248.728 579.15 250.163V261.859C579.15 263.294 580.314 264.458 581.75 264.458H598.65C600.086 264.458 601.25 263.294 601.25 261.859V250.163C601.25 248.728 600.086 247.564 598.65 247.564Z" fill="#DDE3E9"/>
<path d="M598.65 269.656H581.75C580.314 269.656 579.15 270.82 579.15 272.255V283.302C579.15 284.737 580.314 285.901 581.75 285.901H598.65C600.086 285.901 601.25 284.737 601.25 283.302V272.255C601.25 270.82 600.086 269.656 598.65 269.656Z" fill="#AFB9C5"/>
<path d="M598.65 291.099H581.75C580.314 291.099 579.15 292.262 579.15 293.698V304.744C579.15 306.179 580.314 307.343 581.75 307.343H598.65C600.086 307.343 601.25 306.179 601.25 304.744V293.698C601.25 292.262 600.086 291.099 598.65 291.099Z" fill="#DDE3E9"/>
<path d="M598.65 333.984H581.75C580.314 333.984 579.15 335.148 579.15 336.583V347.629C579.15 349.065 580.314 350.228 581.75 350.228H598.65C600.086 350.228 601.25 349.065 601.25 347.629V336.583C601.25 335.148 600.086 333.984 598.65 333.984Z" fill="#DDE3E9"/>
<path d="M598.65 312.542H581.75C580.314 312.542 579.15 313.705 579.15 315.141V326.187C579.15 327.622 580.314 328.786 581.75 328.786H598.65C600.086 328.786 601.25 327.622 601.25 326.187V315.141C601.25 313.705 600.086 312.542 598.65 312.542Z" fill="#C5CFD6"/>
<path d="M559.65 178.688H418.6C417.164 178.688 416 179.852 416 181.287V206.628C416 208.064 417.164 209.227 418.6 209.227H559.65C561.086 209.227 562.25 208.064 562.25 206.628V181.287C562.25 179.852 561.086 178.688 559.65 178.688Z" fill="white"/>
<mask id="mask9_53_954" style="mask-type:luminance" maskUnits="userSpaceOnUse" x="421" y="187" width="110" height="14">
<path d="M530.4 187.85H421.85V200.065H530.4V187.85Z" fill="white"/>
</mask>
<g mask="url(#mask9_53_954)">
<path d="M528.45 187.85H423.8C422.723 187.85 421.85 188.722 421.85 189.799V190.481C421.85 191.558 422.723 192.431 423.8 192.431H528.45C529.527 192.431 530.4 191.558 530.4 190.481V189.799C530.4 188.722 529.527 187.85 528.45 187.85Z" fill="#DDE3E9"/>
<path d="M492.762 195.484H423.8C422.723 195.484 421.85 196.357 421.85 197.434V198.116C421.85 199.193 422.723 200.065 423.8 200.065H492.762C493.839 200.065 494.713 199.193 494.713 198.116V197.434C494.713 196.357 493.839 195.484 492.762 195.484Z" fill="#DDE3E9"/>
</g>
<path fill-rule="evenodd" clip-rule="evenodd" d="M546.62 198.506C549.133 198.506 551.17 196.47 551.17 193.958C551.17 191.446 549.133 189.409 546.62 189.409C544.107 189.409 542.07 191.446 542.07 193.958C542.07 196.47 544.107 198.506 546.62 198.506Z" fill="#DDE3E9"/>
<path fill-rule="evenodd" clip-rule="evenodd" d="M546.62 195.907C547.697 195.907 548.57 195.034 548.57 193.958C548.57 192.881 547.697 192.008 546.62 192.008C545.543 192.008 544.67 192.881 544.67 193.958C544.67 195.034 545.543 195.907 546.62 195.907Z" fill="#F2F2F2"/>
<path d="M559.65 214.426H418.6C417.164 214.426 416 215.589 416 217.025V237.168C416 238.603 417.164 239.767 418.6 239.767H559.65C561.086 239.767 562.25 238.603 562.25 237.168V217.025C562.25 215.589 561.086 214.426 559.65 214.426Z" fill="white"/>
<mask id="mask10_53_954" style="mask-type:luminance" maskUnits="userSpaceOnUse" x="421" y="222" width="110" height="11">
<path d="M530.4 222.028H421.85V232.165H530.4V222.028Z" fill="white"/>
</mask>
<g mask="url(#mask10_53_954)">
<path d="M528.499 222.028H423.751C422.701 222.028 421.85 222.879 421.85 223.929C421.85 224.979 422.701 225.829 423.751 225.829H528.499C529.549 225.829 530.4 224.979 530.4 223.929C530.4 222.879 529.549 222.028 528.499 222.028Z" fill="#DDE3E9"/>
<path d="M492.811 228.364H423.751C422.701 228.364 421.85 229.215 421.85 230.264C421.85 231.314 422.701 232.165 423.751 232.165H492.811C493.861 232.165 494.713 231.314 494.713 230.264C494.713 229.215 493.861 228.364 492.811 228.364Z" fill="#DDE3E9"/>
</g>
<path fill-rule="evenodd" clip-rule="evenodd" d="M546.62 231.645C549.133 231.645 551.17 229.608 551.17 227.096C551.17 224.584 549.133 222.548 546.62 222.548C544.107 222.548 542.07 224.584 542.07 227.096C542.07 229.608 544.107 231.645 546.62 231.645Z" fill="#DDE3E9"/>
<path fill-rule="evenodd" clip-rule="evenodd" d="M546.62 229.046C547.697 229.046 548.57 228.173 548.57 227.096C548.57 226.02 547.697 225.147 546.62 225.147C545.543 225.147 544.67 226.02 544.67 227.096C544.67 228.173 545.543 229.046 546.62 229.046Z" fill="#F2F2F2"/>
<path d="M559.65 244.965H418.6C417.164 244.965 416 246.128 416 247.564V267.707C416 269.142 417.164 270.306 418.6 270.306H559.65C561.086 270.306 562.25 269.142 562.25 267.707V247.564C562.25 246.128 561.086 244.965 559.65 244.965Z" fill="white"/>
<mask id="mask11_53_954" style="mask-type:luminance" maskUnits="userSpaceOnUse" x="421" y="252" width="110" height="11">
<path d="M530.4 252.567H421.85V262.704H530.4V252.567Z" fill="white"/>
</mask>
<g mask="url(#mask11_53_954)">
<path d="M528.499 252.567H423.751C422.701 252.567 421.85 253.418 421.85 254.468C421.85 255.518 422.701 256.369 423.751 256.369H528.499C529.549 256.369 530.4 255.518 530.4 254.468C530.4 253.418 529.549 252.567 528.499 252.567Z" fill="#DDE3E9"/>
<path d="M492.811 258.903H423.751C422.701 258.903 421.85 259.754 421.85 260.803C421.85 261.853 422.701 262.704 423.751 262.704H492.811C493.861 262.704 494.713 261.853 494.713 260.803C494.713 259.754 493.861 258.903 492.811 258.903Z" fill="#DDE3E9"/>
</g>
<path fill-rule="evenodd" clip-rule="evenodd" d="M546.62 262.184C549.133 262.184 551.17 260.147 551.17 257.635C551.17 255.123 549.133 253.087 546.62 253.087C544.107 253.087 542.07 255.123 542.07 257.635C542.07 260.147 544.107 262.184 546.62 262.184Z" fill="#DDE3E9"/>
<path fill-rule="evenodd" clip-rule="evenodd" d="M546.62 259.585C547.697 259.585 548.57 258.712 548.57 257.635C548.57 256.559 547.697 255.686 546.62 255.686C545.543 255.686 544.67 256.559 544.67 257.635C544.67 258.712 545.543 259.585 546.62 259.585Z" fill="#AFB9C5"/>
<path d="M559.65 336.583H418.6C417.164 336.583 416 337.747 416 339.182V359.325C416 360.761 417.164 361.924 418.6 361.924H559.65C561.086 361.924 562.25 360.761 562.25 359.325V339.182C562.25 337.747 561.086 336.583 559.65 336.583Z" fill="white"/>
<mask id="mask12_53_954" style="mask-type:luminance" maskUnits="userSpaceOnUse" x="421" y="344" width="110" height="11">
<path d="M530.4 344.186H421.85V354.322H530.4V344.186Z" fill="white"/>
</mask>
<g mask="url(#mask12_53_954)">
<path d="M528.499 344.186H423.751C422.701 344.186 421.85 345.036 421.85 346.086C421.85 347.136 422.701 347.987 423.751 347.987H528.499C529.549 347.987 530.4 347.136 530.4 346.086C530.4 345.036 529.549 344.186 528.499 344.186Z" fill="#DDE3E9"/>
<path d="M492.811 350.521H423.751C422.701 350.521 421.85 351.372 421.85 352.422C421.85 353.471 422.701 354.322 423.751 354.322H492.811C493.861 354.322 494.713 353.471 494.713 352.422C494.713 351.372 493.861 350.521 492.811 350.521Z" fill="#DDE3E9"/>
</g>
<path fill-rule="evenodd" clip-rule="evenodd" d="M546.62 353.802C549.133 353.802 551.17 351.766 551.17 349.254C551.17 346.741 549.133 344.705 546.62 344.705C544.107 344.705 542.07 346.741 542.07 349.254C542.07 351.766 544.107 353.802 546.62 353.802Z" fill="#DDE3E9"/>
<path fill-rule="evenodd" clip-rule="evenodd" d="M546.62 351.203C547.697 351.203 548.57 350.33 548.57 349.254C548.57 348.177 547.697 347.304 546.62 347.304C545.543 347.304 544.67 348.177 544.67 349.254C544.67 350.33 545.543 351.203 546.62 351.203Z" fill="#F2F2F2"/>
<path d="M559.65 306.044H418.6C417.164 306.044 416 307.208 416 308.643V328.786C416 330.222 417.164 331.385 418.6 331.385H559.65C561.086 331.385 562.25 330.222 562.25 328.786V308.643C562.25 307.208 561.086 306.044 559.65 306.044Z" fill="white"/>
<mask id="mask13_53_954" style="mask-type:luminance" maskUnits="userSpaceOnUse" x="421" y="313" width="110" height="11">
<path d="M530.4 313.646H421.85V323.783H530.4V313.646Z" fill="white"/>
</mask>
<g mask="url(#mask13_53_954)">
<path d="M528.499 313.646H423.751C422.701 313.646 421.85 314.497 421.85 315.547C421.85 316.597 422.701 317.448 423.751 317.448H528.499C529.549 317.448 530.4 316.597 530.4 315.547C530.4 314.497 529.549 313.646 528.499 313.646Z" fill="#DDE3E9"/>
<path d="M492.811 319.982H423.751C422.701 319.982 421.85 320.833 421.85 321.883C421.85 322.932 422.701 323.783 423.751 323.783H492.811C493.861 323.783 494.713 322.932 494.713 321.883C494.713 320.833 493.861 319.982 492.811 319.982Z" fill="#DDE3E9"/>
</g>
<path fill-rule="evenodd" clip-rule="evenodd" d="M546.62 323.263C549.133 323.263 551.17 321.226 551.17 318.714C551.17 316.202 549.133 314.166 546.62 314.166C544.107 314.166 542.07 316.202 542.07 318.714C542.07 321.226 544.107 323.263 546.62 323.263Z" fill="#DDE3E9"/>
<path fill-rule="evenodd" clip-rule="evenodd" d="M546.62 320.664C547.697 320.664 548.57 319.791 548.57 318.714C548.57 317.638 547.697 316.765 546.62 316.765C545.543 316.765 544.67 317.638 544.67 318.714C544.67 319.791 545.543 320.664 546.62 320.664Z" fill="#F2F2F2"/>
<path d="M559.65 275.504H418.6C417.164 275.504 416 276.668 416 278.103V298.247C416 299.682 417.164 300.846 418.6 300.846H559.65C561.086 300.846 562.25 299.682 562.25 298.247V278.103C562.25 276.668 561.086 275.504 559.65 275.504Z" fill="white"/>
<mask id="mask14_53_954" style="mask-type:luminance" maskUnits="userSpaceOnUse" x="421" y="283" width="110" height="11">
<path d="M530.4 283.107H421.85V293.243H530.4V283.107Z" fill="white"/>
</mask>
<g mask="url(#mask14_53_954)">
<path d="M528.499 283.107H423.751C422.701 283.107 421.85 283.958 421.85 285.008C421.85 286.057 422.701 286.908 423.751 286.908H528.499C529.549 286.908 530.4 286.057 530.4 285.008C530.4 283.958 529.549 283.107 528.499 283.107Z" fill="#DDE3E9"/>
<path d="M492.811 289.442H423.751C422.701 289.442 421.85 290.293 421.85 291.343C421.85 292.393 422.701 293.244 423.751 293.244H492.811C493.861 293.244 494.713 292.393 494.713 291.343C494.713 290.293 493.861 289.442 492.811 289.442Z" fill="#DDE3E9"/>
</g>
<path fill-rule="evenodd" clip-rule="evenodd" d="M546.62 292.723C549.133 292.723 551.17 290.687 551.17 288.175C551.17 285.663 549.133 283.626 546.62 283.626C544.107 283.626 542.07 285.663 542.07 288.175C542.07 290.687 544.107 292.723 546.62 292.723Z" fill="#DDE3E9"/>
<path fill-rule="evenodd" clip-rule="evenodd" d="M546.62 290.124C547.697 290.124 548.57 289.252 548.57 288.175C548.57 287.098 547.697 286.226 546.62 286.226C545.543 286.226 544.67 287.098 544.67 288.175C544.67 289.252 545.543 290.124 546.62 290.124Z" fill="#F2F2F2"/>
<path fill-rule="evenodd" clip-rule="evenodd" d="M677.293 260.804C674.726 259.066 671.32 258.61 668.252 258.61C656.266 258.61 645.002 263.055 635.271 269.677C629.939 273.306 625.17 277.927 620.959 282.738C618.528 285.516 616.361 288.519 614.826 291.861C613.791 294.117 613.08 296.467 612.599 298.891C612.012 301.844 611.545 304.858 611.334 307.861C611.251 309.044 610.564 315.319 612.531 315.425C612.519 315.58 612.517 315.727 612.529 315.859C608.258 322.535 605.62 330.358 603.172 337.776C601.044 344.231 599.146 350.739 597.915 357.417C596.293 366.208 595.229 375.132 594.722 384.049C594.614 385.966 594.539 387.883 594.475 389.802C594.42 391.439 594.365 393.075 594.311 394.713C594.251 396.547 593.928 398.659 594.22 400.482C594.474 402.07 595.849 401.83 595.91 400.25C595.983 398.341 595.971 396.429 596.055 394.519C596.166 391.984 596.28 389.45 596.405 386.916C597.268 369.312 600.509 351.967 606.489 335.338C608.91 328.609 611.683 322.24 615.247 316.015C618.381 310.542 622.151 305.243 626.004 300.308C629.749 295.512 633.643 290.828 638.231 286.765C641.955 283.468 646.052 280.595 650.26 277.923C655.609 274.529 660.946 271.217 666.744 268.611C669.753 267.257 672.821 266.044 675.857 264.744C676.403 264.511 676.988 264.284 677.514 264.013C679.263 263.11 678.684 261.75 677.293 260.804Z" fill="#C1DEE2"/>
<path fill-rule="evenodd" clip-rule="evenodd" d="M629.081 322.288C633.941 322.288 638.267 322.92 642.744 324.85C646.61 326.517 650.13 328.723 653.555 331.124C658.365 334.503 662.155 338.434 664.807 343.643C666.393 346.755 667.556 351.158 666.49 354.553C665.236 358.55 661.791 361.885 657.26 361.18C654.459 360.745 651.885 358.89 649.756 357.144C647.207 355.055 645.166 352.544 643.481 349.754C640.733 345.204 639.119 340.06 636.784 335.305C635.676 333.048 634.606 330.776 633.278 328.631C632.622 327.569 631.923 326.517 630.926 325.728C630.393 325.306 628.145 324.575 629.005 323.627C616.401 323.792 605.235 333.469 602.816 345.447C602.591 346.563 602.414 347.688 602.228 348.812C602.111 349.521 602.158 352.137 601.524 352.59C600.125 353.589 600.713 350.553 600.773 350.115C600.929 348.985 601.094 347.857 601.267 346.729C602.212 340.599 604.942 334.901 609.495 330.529C614.701 325.53 621.725 322.288 629.081 322.288Z" fill="#89C5CC"/>
<path fill-rule="evenodd" clip-rule="evenodd" d="M215.11 343.559C227.242 363.908 241.374 383.61 249.861 405.858C249.519 403.235 249.156 400.615 248.75 398C246.597 384.133 243.92 370.368 241.108 356.619C239.676 349.619 238.161 342.644 236.608 335.67C235.772 331.924 234.947 328.176 234.094 324.434C233.887 323.527 233.71 321.943 233.452 320.339C241.699 347.394 249.653 374.468 255.47 402.173C256.233 405.809 256.883 409.439 257.415 413.062C257.597 412.235 257.777 411.409 257.973 410.584C260.327 400.703 263.858 390.901 268.062 381.661C270.072 377.243 272.38 372.921 275.098 368.894C276.793 366.384 280.791 363.4 282.337 360.829C273.881 376.334 270.827 395.734 265.944 412.589C264.753 416.703 263.553 420.81 262.378 424.923C269.741 410.162 281.166 398.033 297.05 392.778C277.823 405.477 266.291 427.717 258.519 450.463C258.494 450.732 258.463 451.002 258.437 451.272C260.724 446.934 263.604 443.009 267.508 440.261C275.864 434.377 285.133 436.091 293.239 441.138C286.877 437.096 275.381 440.777 270.028 444.886C266.196 447.827 262.922 451.772 260.078 455.622C259.397 456.545 258.467 457.621 257.484 458.769C256.108 467.705 253.864 476.579 250.687 485.382C251.211 482.855 250.832 478.814 250.978 476.93C250.993 476.727 251.006 476.522 251.022 476.319C250.539 478.246 250.072 480.152 249.623 482.027C250.516 478.449 251.001 474.714 251.38 470.941C251.478 469.32 251.573 467.698 251.673 466.077C251.642 462.999 251.515 459.91 251.3 456.815C250.54 453.808 249.689 450.971 248.986 448.612C246.453 440.099 242.739 431.944 238.167 424.336C233.996 417.393 229.003 411.105 223.239 405.417C220.132 402.351 216.88 399.433 213.674 396.473C212.514 395.403 210.442 392.772 208.65 391.4C221.702 398.594 235.137 406.376 244.659 417.966C243.542 413.681 242.33 409.456 241.047 405.316C234.54 384.312 226.324 362.544 215.11 343.559Z" fill="#DDE3E9"/>
<path fill-rule="evenodd" clip-rule="evenodd" d="M228.15 458.741C228.15 482.067 229.998 500.976 254.8 500.976C279.602 500.976 281.45 482.067 281.45 458.741" fill="#C5CFD6"/>
<path d="M572 124.107C572 123.03 571.127 122.158 570.05 122.158C568.973 122.158 568.1 123.03 568.1 124.107V136.453C568.1 137.529 568.973 138.402 570.05 138.402C571.127 138.402 572 137.529 572 136.453V124.107Z" fill="#DDE3E9"/>
<path d="M581.1 113.711C581.1 112.634 580.227 111.761 579.15 111.761C578.073 111.761 577.2 112.634 577.2 113.711V136.453C577.2 137.529 578.073 138.402 579.15 138.402C580.227 138.402 581.1 137.529 581.1 136.453V113.711Z" fill="#DDE3E9"/>
<path d="M590.2 108.512C590.2 107.436 589.327 106.563 588.25 106.563C587.173 106.563 586.3 107.436 586.3 108.512V136.453C586.3 137.529 587.173 138.402 588.25 138.402C589.327 138.402 590.2 137.529 590.2 136.453V108.512Z" fill="#DDE3E9"/>
<path d="M599.3 113.711C599.3 112.634 598.427 111.761 597.35 111.761C596.273 111.761 595.4 112.634 595.4 113.711V136.453C595.4 137.529 596.273 138.402 597.35 138.402C598.427 138.402 599.3 137.529 599.3 136.453V113.711Z" fill="#DDE3E9"/>
<path d="M608.4 103.314C608.4 102.237 607.527 101.365 606.45 101.365C605.373 101.365 604.5 102.237 604.5 103.314V136.453C604.5 137.529 605.373 138.402 606.45 138.402C607.527 138.402 608.4 137.529 608.4 136.453V103.314Z" fill="#C5CFD6"/>
<path fill-rule="evenodd" clip-rule="evenodd" d="M248.3 300.362C248.3 293.124 254.151 287.2 261.3 287.2V300.362L252.416 309.942C249.888 307.6 248.3 304.164 248.3 300.362Z" fill="#F2F2F2"/>
<path fill-rule="evenodd" clip-rule="evenodd" d="M260.956 300.196H274.084C274.084 303.588 272.699 306.767 270.511 309.077C268.104 311.603 264.676 313.191 260.956 313.191C257.528 313.191 254.391 311.821 251.984 309.655L260.956 300.196Z" fill="#AFB9C5"/>
<path fill-rule="evenodd" clip-rule="evenodd" d="M274.3 300.196C274.3 293.049 268.449 287.2 261.3 287.2V300.196H274.3ZM254.8 287.2L260 298.896L248.3 293.698C249.457 290.666 252.055 288.357 254.8 287.2Z" fill="#C5CFD6"/>
<path fill-rule="evenodd" clip-rule="evenodd" d="M671.301 306.16C670.046 307.485 668.278 308.318 666.315 308.318C662.532 308.318 659.464 305.263 659.464 301.495C659.464 297.727 662.532 294.673 666.315 294.673V282.002C655.557 282.002 646.75 290.776 646.75 301.495C646.75 312.215 655.557 320.988 666.315 320.988C671.963 320.988 677.066 318.606 680.55 314.817L671.301 306.16Z" fill="#F2F2F2"/>
<path fill-rule="evenodd" clip-rule="evenodd" d="M666.25 282.002V294.673C670.02 294.673 673.075 297.727 673.075 301.495H685.75C685.75 290.776 676.975 282.002 666.25 282.002Z" fill="#AFB9C5"/>
<path fill-rule="evenodd" clip-rule="evenodd" d="M672.815 301.495C672.815 303.709 671.768 305.676 670.15 306.947L678.119 317.09C682.76 313.459 685.75 307.83 685.75 301.495H672.815Z" fill="#C5CFD6"/>
<path fill-rule="evenodd" clip-rule="evenodd" d="M547.333 127.033C546.372 128.05 545.011 128.688 543.497 128.688C540.588 128.688 538.231 126.346 538.231 123.457C538.231 120.568 540.588 118.226 543.497 118.226V108.512C535.223 108.512 528.45 115.239 528.45 123.457C528.45 131.675 535.223 138.402 543.497 138.402C547.844 138.402 551.772 136.575 554.45 133.67L547.333 127.033Z" fill="#F2F2F2"/>
<path fill-rule="evenodd" clip-rule="evenodd" d="M543.4 108.512V118.226C546.29 118.226 548.632 120.568 548.632 123.457H558.35C558.35 115.239 551.621 108.512 543.4 108.512Z" fill="#AFB9C5"/>
<path fill-rule="evenodd" clip-rule="evenodd" d="M548.647 123.457C548.647 125.117 547.865 126.593 546.65 127.546L552.627 135.153C556.107 132.43 558.35 128.208 558.35 123.457H548.647Z" fill="#C5CFD6"/>
<path fill-rule="evenodd" clip-rule="evenodd" d="M310.705 138.393C310.702 138.4 310.699 138.406 310.695 138.414C310.699 138.408 310.705 138.381 310.705 138.393Z" fill="#C5CFD6"/>
<path fill-rule="evenodd" clip-rule="evenodd" d="M310.699 138.403C310.699 138.404 310.697 138.407 310.697 138.409C310.697 138.403 310.709 138.383 310.699 138.403Z" fill="#C5CFD6"/>
<path fill-rule="evenodd" clip-rule="evenodd" d="M310.744 138.293C310.734 138.319 310.723 138.344 310.712 138.37C310.718 138.357 310.723 138.346 310.728 138.333C310.593 138.671 310.679 138.452 310.744 138.293Z" fill="#C5CFD6"/>
<path fill-rule="evenodd" clip-rule="evenodd" d="M310.714 138.372C310.709 138.383 310.704 138.396 310.699 138.408C310.661 138.481 310.714 138.372 310.714 138.372Z" fill="#C5CFD6"/>
<path fill-rule="evenodd" clip-rule="evenodd" d="M310.693 138.413C310.685 138.429 310.73 138.352 310.693 138.413V138.413Z" fill="#C5CFD6"/>
<path fill-rule="evenodd" clip-rule="evenodd" d="M310.699 138.404L310.702 138.401C310.7 138.402 310.7 138.404 310.699 138.404Z" fill="#C5CFD6"/>
<path d="M338.65 104.614H282.1C280.664 104.614 279.5 105.777 279.5 107.213V142.95C279.5 144.386 280.664 145.55 282.1 145.55H338.65C340.086 145.55 341.25 144.386 341.25 142.95V107.213C341.25 105.777 340.086 104.614 338.65 104.614Z" fill="#DDE3E9"/>
<path fill-rule="evenodd" clip-rule="evenodd" d="M302.9 116.31L284.7 145.549H321.1L302.9 116.31Z" fill="#AFB9C5"/>
<path fill-rule="evenodd" clip-rule="evenodd" d="M320.775 124.107L304.85 145.55H336.7L320.775 124.107Z" fill="#C5CFD6"/>
<path fill-rule="evenodd" clip-rule="evenodd" d="M327.6 124.107C330.831 124.107 333.45 121.489 333.45 118.259C333.45 115.029 330.831 112.411 327.6 112.411C324.369 112.411 321.75 115.029 321.75 118.259C321.75 121.489 324.369 124.107 327.6 124.107Z" fill="white"/>
<path fill-rule="evenodd" clip-rule="evenodd" d="M620.746 415.847C620.748 415.853 620.751 415.86 620.755 415.868C620.751 415.861 620.746 415.835 620.746 415.847Z" fill="#C5CFD6"/>
<path fill-rule="evenodd" clip-rule="evenodd" d="M620.751 415.857C620.751 415.858 620.753 415.861 620.753 415.863C620.753 415.857 620.741 415.837 620.751 415.857Z" fill="#C5CFD6"/>
<path fill-rule="evenodd" clip-rule="evenodd" d="M620.707 415.747C620.716 415.773 620.727 415.797 620.738 415.823C620.733 415.81 620.727 415.8 620.722 415.787C620.857 416.125 620.772 415.905 620.707 415.747Z" fill="#C5CFD6"/>
<path fill-rule="evenodd" clip-rule="evenodd" d="M620.736 415.825C620.741 415.837 620.746 415.85 620.751 415.862C620.789 415.934 620.736 415.825 620.736 415.825Z" fill="#C5CFD6"/>
<path fill-rule="evenodd" clip-rule="evenodd" d="M620.757 415.867C620.72 415.806 620.765 415.883 620.757 415.867V415.867Z" fill="#C5CFD6"/>
<path fill-rule="evenodd" clip-rule="evenodd" d="M620.752 415.857L620.749 415.854C620.75 415.856 620.751 415.857 620.752 415.857Z" fill="#C5CFD6"/>
<path d="M577.2 365.823H664.3C665.736 365.823 666.9 366.987 666.9 368.422V424.303C666.9 425.738 665.736 426.902 664.3 426.902H577.2C575.764 426.902 574.6 425.738 574.6 424.303V368.422C574.6 366.987 575.764 365.823 577.2 365.823Z" fill="#DDE3E9"/>
<path fill-rule="evenodd" clip-rule="evenodd" d="M632.628 383.367L659.315 426.902H605.942L632.628 383.367Z" fill="#AFB9C5"/>
<path fill-rule="evenodd" clip-rule="evenodd" d="M605.114 395.028L628.705 426.902H581.522L605.114 395.028Z" fill="#C5CFD6"/>
<path fill-rule="evenodd" clip-rule="evenodd" d="M595.075 395.063C590.229 395.063 586.3 391.136 586.3 386.291C586.3 381.446 590.229 377.519 595.075 377.519C599.922 377.519 603.85 381.446 603.85 386.291C603.85 391.136 599.922 395.063 595.075 395.063Z" fill="white"/>
<path fill-rule="evenodd" clip-rule="evenodd" d="M347.218 320.069C351.946 322.919 356.591 324.297 358.772 323.735C364.241 322.325 364.744 302.312 360.512 294.423C356.281 286.534 334.53 283.095 333.433 298.726C333.052 304.151 335.33 308.993 338.694 312.944L332.662 341.073H350.186L347.218 320.069Z" fill="#B28B67"/>
<path fill-rule="evenodd" clip-rule="evenodd" d="M325.793 293.523C325.227 292.962 324.918 292.161 324.651 291.401C324.374 290.611 324.104 289.813 323.92 288.99C323.552 287.348 323.548 285.458 324.72 284.183C325.66 283.16 327.069 282.7 328.371 282.601C329.238 282.535 330.128 282.656 330.959 282.929C331.783 283.2 332.494 283.741 333.293 284.076C333.324 282.305 333.627 280.453 334.525 278.941C335.389 277.487 336.767 276.671 338.335 276.455C339.945 276.233 341.536 276.61 342.977 277.39C343.338 277.585 343.696 277.789 344.038 278.021C344.324 278.215 344.622 278.449 344.958 278.528C345.333 278.615 345.518 278.399 345.762 278.125C346.048 277.805 346.369 277.522 346.71 277.272C348.215 276.165 350.191 275.71 351.935 276.374C352.738 276.679 353.52 277.198 354.065 277.914C354.551 278.552 354.897 279.563 355.568 280.007C355.853 280.196 356.054 279.946 356.313 279.761C356.702 279.484 357.073 279.177 357.467 278.908C358.021 278.528 358.62 278.245 359.261 278.096C360.201 277.879 361.499 277.93 361.767 279.16C361.868 279.622 361.791 280.117 361.758 280.583C361.714 281.222 361.667 281.862 361.611 282.5C361.57 282.985 361.516 283.454 361.425 283.93C361.376 284.183 361.223 284.656 361.332 284.911C361.468 285.229 362.095 285.048 362.363 285.059C362.893 285.081 363.425 285.173 363.914 285.4C364.294 285.576 364.693 285.834 364.853 286.268C364.951 286.535 364.925 286.81 364.879 287.085C364.823 287.415 364.887 287.59 364.929 287.923C365.64 287.573 368.104 286.795 368.414 288.07C368.517 288.494 368.282 288.973 368.103 289.331C367.788 289.96 367.376 290.533 366.954 291.081C366.075 292.223 365.025 293.208 363.895 294.05C365.219 294.639 365.564 296.375 364.418 297.409C363.912 297.866 363.232 297.968 362.593 297.939C362.36 297.928 362.023 297.838 361.839 297.879C361.741 297.901 361.635 297.984 361.497 297.994C360.597 298.056 359.58 297.839 358.699 297.639C357.131 297.283 355.645 296.539 354.432 295.406C354.121 295.116 353.864 294.949 353.445 294.953C353.078 294.956 352.718 295.057 352.351 295.066C351.381 295.091 350.506 294.617 349.605 294.301C349.55 295.519 349.203 296.86 348.705 297.955C348.3 298.848 347.452 298.978 346.619 299.056C343.955 299.307 341.281 299.027 338.614 299.031C341.196 299.615 343.864 299.855 346.423 300.542C347.58 300.853 346.697 301.633 346.202 302.174C345.388 303.064 344.782 304.167 344.362 305.329C343.099 303.682 340.866 302.597 338.888 303.103C336.703 303.662 335.164 306.618 336.561 308.744C337.373 309.978 338.838 310.454 340.057 310.984C339.106 311.973 338.876 313.434 338.303 314.665C338.021 315.272 337.625 315.958 336.994 316.17C336.76 316.248 336.486 316.255 336.301 316.445C336.073 316.681 336.019 316.945 335.728 317.148C334.564 317.957 332.747 317.894 331.716 316.838C330.784 315.883 331.026 314.372 331.805 313.404C330.565 312.887 328.306 312.222 328.799 310.291C326.113 310.112 319.591 305.754 323.196 302.569C321.218 301.45 319.4 298.717 320.671 296.307C321.65 294.451 323.925 293.622 325.793 293.523Z" fill="#191847"/>
<path fill-rule="evenodd" clip-rule="evenodd" d="M306.83 433.106H363.239L370.63 523.679H286.661L306.83 433.106Z" fill="#C5CFD6"/>
<path fill-rule="evenodd" clip-rule="evenodd" d="M306.83 433.106H324.179L334.563 523.679H286.661L306.83 433.106Z" fill="black" fill-opacity="0.1"/>
<path fill-rule="evenodd" clip-rule="evenodd" d="M394.231 451.051C387.893 464.499 377.987 497.144 377.987 497.144L386.396 500.988C386.396 500.988 407.733 466.671 420.772 443.213C420.165 448.494 419.546 454.439 418.972 460.689C417.614 475.496 418.972 507.483 419.702 516.724C420.162 522.531 428.05 521.315 428.786 516.709C428.911 515.929 429.419 513.19 430.178 509.103C433.896 489.066 443.63 436.626 443.646 423.785C443.654 418.618 433.563 413.977 427.549 417.59C423.418 413.18 415.599 410.638 411.107 417.922C408.252 422.553 401.467 435.7 394.231 451.051Z" fill="#B28B67"/>
<path fill-rule="evenodd" clip-rule="evenodd" d="M378.589 485.059L407.451 416.663C414.365 405.536 433.75 418.927 431.392 425.38C426.04 440.03 398.814 487.461 397.22 491.825L378.589 485.059Z" fill="#1F28CF"/>
<path fill-rule="evenodd" clip-rule="evenodd" d="M379.044 492.996C378.597 492.38 377.725 492.234 377.141 492.722C375.946 493.72 374.121 495.345 373.477 496.46C372.49 498.171 371.165 501.782 371.165 501.782C373.149 502.928 406.831 522.381 406.831 522.381C406.831 522.381 410.874 518.586 408.09 516.49C405.307 514.393 403.496 512.954 403.496 512.954L391.138 495.92C390.922 495.623 390.505 495.563 390.215 495.787L387.592 497.807C387.592 497.807 384.072 497.5 382.339 496.499C381.239 495.864 379.887 494.159 379.044 492.996Z" fill="#E4E4E4"/>
<path fill-rule="evenodd" clip-rule="evenodd" d="M419.72 512.129C419.026 511.819 418.198 512.129 417.936 512.844C417.399 514.306 416.63 516.627 416.63 517.913C416.63 519.889 417.288 523.679 417.288 523.679C419.579 523.679 458.471 523.679 458.471 523.679C458.471 523.679 460.076 518.371 456.618 517.947C453.159 517.524 450.872 517.183 450.872 517.183L431.655 508.613C431.32 508.463 430.929 508.62 430.789 508.959L429.528 512.021C429.528 512.021 426.326 513.515 424.324 513.515C423.055 513.515 421.032 512.716 419.72 512.129Z" fill="#E4E4E4"/>
<path fill-rule="evenodd" clip-rule="evenodd" d="M445.669 429.04C445.669 448.446 436.458 493.71 436.452 497.983L416.631 497.998C416.631 497.998 420.982 437.415 419.717 436.761C418.451 436.109 367.838 441.817 352.658 441.817C330.769 441.817 321.714 428.008 320.979 402.429H364.341C373.17 403.373 419.222 412.666 436.325 415.86C443.647 417.227 445.669 423.695 445.669 429.04Z" fill="#2B44FF"/>
<path fill-rule="evenodd" clip-rule="evenodd" d="M386.496 411.386C372.629 440.277 314.255 420.77 314.255 420.77C314.255 415.763 316.24 410.744 318.325 405.473C320.559 399.822 322.91 393.88 323.05 387.353C323.309 375.345 325.553 338.964 334.92 326.674C335.091 326.119 335.264 325.562 335.439 325.003L336.088 325.309C336.188 325.204 336.291 325.103 336.393 325.003L356.831 328.165C356.831 337.412 362.747 346.181 368.072 354.075C369.368 355.995 370.629 357.864 371.761 359.675C373.244 362.048 374.917 364.463 376.632 366.938C385.317 379.471 395.064 393.536 386.496 411.386Z" fill="#C1DEE2"/>
<path fill-rule="evenodd" clip-rule="evenodd" d="M360.307 405.926C361.674 398.869 362.561 394.158 362.968 391.793C373.856 404.102 380.146 410.327 381.838 410.47C385.021 410.739 387.372 407.915 388.042 408.709C389.148 411.996 386.022 420.224 380.048 421.42C377.195 421.992 372.779 416.105 370.96 414.02C370.245 413.199 366.694 410.502 360.307 405.926ZM379.116 368.305C381.938 368.305 383.454 369.472 385.123 371.828C386.791 374.182 388.371 385.29 385.692 385.29C383.012 385.29 371.786 380.996 371.786 378.11C371.786 375.223 379.446 374 379.446 371.828C379.446 369.654 376.293 368.305 379.116 368.305Z" fill="#B28B67"/>
<path fill-rule="evenodd" clip-rule="evenodd" d="M331.614 338.676C324.445 368.574 327.365 393.79 354.609 416.662C354.288 417.811 354.097 418.498 354.097 418.498C322.118 396.14 322.103 369.046 331.614 338.676Z" fill="black" fill-opacity="0.2"/>
<path fill-rule="evenodd" clip-rule="evenodd" d="M553.035 273.978C548.3 276.831 543.647 278.209 541.463 277.646C535.986 276.236 535.483 256.208 539.721 248.312C543.958 240.416 565.742 236.975 566.84 252.619C567.221 258.048 564.941 262.894 561.571 266.847L567.613 294.998H550.063L553.035 273.978Z" fill="#B28B67"/>
<path fill-rule="evenodd" clip-rule="evenodd" d="M549.724 239.212C552.037 238.833 558.264 238.572 559.413 238.572C560.147 238.572 560.942 238.74 561.377 238.067C561.733 237.514 561.603 236.582 561.709 235.941C561.832 235.198 562.008 234.464 562.185 233.731C562.689 231.647 563.452 229.665 564.519 227.804C566.521 224.312 569.455 221.577 573.158 219.985C577.248 218.228 581.875 217.825 586.274 218.181C590.981 218.563 595.242 220.117 599.687 221.579C603.922 222.972 608.358 223.519 612.788 222.84C617.251 222.154 620.624 219.736 624.388 217.441C628.242 215.091 632.646 213.554 637.202 213.908C641.455 214.237 645.374 215.993 648.891 218.338C652.184 220.532 654.895 223.172 656.429 226.887C658.08 230.883 658.073 235.269 655.363 238.801C651.437 243.92 644.138 245.245 638.068 245.113C634.557 245.037 631.109 244.396 627.794 243.231C623.373 241.676 619.552 239.042 615.417 236.904C613.476 235.901 611.47 235.077 609.367 234.484C607.326 233.908 605.316 233.644 603.469 234.875C601.514 236.18 599.762 237.46 597.526 238.276C595.381 239.059 593.11 239.497 590.824 239.479C586.378 239.445 581.995 238.06 577.676 237.132C574.154 236.376 570.386 235.622 566.796 236.349C565.297 236.653 563.11 237.279 562.568 238.836C571.675 240.486 575.252 251.745 572.685 260.01C571.299 264.471 562.969 269.687 559.731 267.341C557.679 265.855 558.925 263.905 559.731 262.617C561.275 260.151 561.803 256.983 558.946 255.267C556.482 253.786 553.891 257.302 553.842 257.299C553.165 257.245 547.313 253.937 543.281 249.109C539.303 249.345 538.7 246.723 539.65 244.579C540.599 242.435 546.527 239.736 549.724 239.212Z" fill="#191847"/>
<path fill-rule="evenodd" clip-rule="evenodd" d="M579.289 356.727L551.812 446.699L538.502 523.214H528.065L542.13 356.727H579.289Z" fill="#997659"/>
<path fill-rule="evenodd" clip-rule="evenodd" d="M589.118 356.727C587.252 406.126 589.449 431.607 589.866 436.095C590.284 440.583 596.003 469.685 609.544 524.721L598.423 520.895C577.024 470.42 569.731 444.186 567.277 437.558C564.823 430.93 558.304 403.986 547.721 356.727H589.118Z" fill="#B28B67"/>
<path fill-rule="evenodd" clip-rule="evenodd" d="M607.595 519.952C608.29 519.641 609.119 519.951 609.381 520.667C609.917 522.131 610.686 524.454 610.686 525.743C610.686 527.721 610.028 531.516 610.028 531.516C607.736 531.516 568.845 531.516 568.845 531.516C568.845 531.516 567.24 526.2 570.699 525.776C574.157 525.353 576.445 525.011 576.445 525.011L595.661 516.431C595.995 516.281 596.387 516.438 596.527 516.776L597.789 519.843C597.789 519.843 600.991 521.339 602.992 521.339C604.261 521.339 606.284 520.539 607.595 519.952Z" fill="#E4E4E4"/>
<path fill-rule="evenodd" clip-rule="evenodd" d="M538.959 519.952C539.655 519.641 540.484 519.951 540.745 520.667C541.281 522.131 542.05 524.454 542.05 525.743C542.05 527.721 541.392 531.516 541.392 531.516C539.101 531.516 500.21 531.516 500.21 531.516C500.21 531.516 498.604 526.2 502.063 525.776C505.521 525.353 507.809 525.011 507.809 525.011L527.025 516.431C527.36 516.281 527.752 516.438 527.891 516.776L529.153 519.843C529.153 519.843 532.355 521.339 534.357 521.339C535.625 521.339 537.648 520.539 538.959 519.952Z" fill="#E4E4E4"/>
<path fill-rule="evenodd" clip-rule="evenodd" d="M582.939 356.727L571.257 402.566H535.573L540.893 356.727H582.939Z" fill="#69A1AC"/>
<path fill-rule="evenodd" clip-rule="evenodd" d="M589.511 356.727C595.277 374.038 591.702 402.566 591.702 402.566H555.288L545.275 356.727H589.511Z" fill="#89C5CC"/>
<path fill-rule="evenodd" clip-rule="evenodd" d="M629.244 379.783C626.518 375.785 608.143 321.986 608.143 321.986L592.295 324.274C592.295 324.274 618.644 380.295 620.149 382.901C622.105 386.285 620.373 391.846 619.199 395.616C619.017 396.199 618.848 396.74 618.709 397.222C621.174 397.932 622.112 396.524 623.101 395.039C624.218 393.363 625.4 391.588 628.92 392.658C630.28 393.072 631.586 393.603 632.863 394.121C637.272 395.913 641.323 397.559 645.977 393.707C646.715 393.096 647.337 391.099 644.992 389.936C639.152 387.039 630.576 381.737 629.244 379.783ZM492.668 377.003L510.374 354.152L518.841 364.959L499.274 380.504C495.108 389.664 492.477 393.738 491.383 392.727C490.46 391.874 490.672 390.768 490.868 389.749C491.021 388.956 491.163 388.215 490.75 387.688C489.808 386.486 485.631 387.837 481.722 389.289C477.813 390.74 478.468 388.632 479.18 387.48C482.561 383.874 487.057 380.382 492.668 377.003Z" fill="#B28B67"/>
<path fill-rule="evenodd" clip-rule="evenodd" d="M553.514 283.89L547.102 283.697C542.129 319.877 494.783 350.715 493.5 364.159C493.03 369.089 496.809 371.017 495.236 372.72L504.211 377.521C505.363 375.723 508.718 378.245 514.571 375.329C520.425 372.413 559.306 325.089 553.514 283.89Z" fill="#DB2721"/>
<path fill-rule="evenodd" clip-rule="evenodd" d="M563.947 274.993C565.352 274.695 566.733 275.591 567.032 276.995L567.99 281.499C581.046 288.893 614.055 311.83 628.743 361.099C630.286 366.274 629.238 369.31 628.401 371.735C627.829 373.395 627.354 374.768 627.876 376.346L617.636 380.776C617.468 379.581 615.998 378.86 614.101 377.93C611.343 376.578 607.683 374.784 605.813 370.445C604.04 366.332 601.573 361.23 598.689 355.575C599.602 363.473 599.124 370.922 596.708 377.376C590.681 393.476 541.392 383.672 534.338 369.102C530.574 361.327 533.329 353.968 536.974 344.237C541.6 331.883 547.658 315.704 543.632 289.995L541.997 282.311C541.698 280.908 542.594 279.528 543.999 279.229L563.947 274.993Z" fill="#FF4133"/>
</svg>
