<svg width="719" height="596" viewBox="0 0 719 596" fill="none" xmlns="http://www.w3.org/2000/svg">
<g opacity="0.504511">
<path fill-rule="evenodd" clip-rule="evenodd" d="M663.66 476.795C672.85 545.536 449.985 590.372 258.159 559.082C66.3342 527.791 -21.666 405.598 69.8697 340.489C161.405 275.38 654.47 408.055 663.66 476.795Z" fill="#F2F2F2"/>
</g>
<path fill-rule="evenodd" clip-rule="evenodd" d="M387.965 190.352C391.433 187.701 396.812 189.39 400.303 190.955C401.648 191.558 405.086 193.488 407.635 195.66C407.298 194.155 406.998 192.636 406.735 191.105C405.657 184.81 404.914 178.395 404.557 172.018C404.464 170.354 404.585 168.496 404.708 166.613V166.61C404.749 165.973 404.791 165.333 404.825 164.697C404.685 164.547 404.591 164.339 404.551 164.058C404.537 164.175 404.528 164.268 404.522 164.34C404.511 164.456 404.506 164.514 404.488 164.518C404.469 164.523 404.437 164.475 404.372 164.375C404.347 164.337 404.318 164.291 404.282 164.238C401.702 160.379 399.535 156.029 399.238 151.248C398.986 147.194 402.316 139.522 407.037 144.833C409.149 147.205 408.6 163.863 405.428 164.883C406.275 170.403 407.341 175.914 408.676 181.354C408.876 181.319 409.08 181.316 409.281 181.343C409.262 179.991 409.26 178.515 409.315 178.007C409.791 173.635 413.441 164.759 419.253 166.482C423.718 167.807 420.981 173.259 419.461 175.645C417.015 179.487 414.248 181.15 410.743 183.148C410.673 183.974 410.141 184.454 409.513 184.61C411.859 193.396 414.942 201.965 418.977 210.061L419.084 209.546C419.597 207.089 420.194 204.224 420.572 203.622C422.55 200.473 426.927 196.627 430.964 198.49C439.442 202.409 430.24 213.672 423.022 214.896C422.722 215.312 422.404 215.646 422.066 215.837C423.469 218.28 424.968 220.672 426.572 223.003C428.977 226.509 431.562 230.004 434.272 233.479C434.356 230.76 435.428 224.703 435.732 224.052C437.583 220.1 442.918 216.033 447.245 218.841C452.113 222.007 447.699 227.988 444.923 230.695C443.785 231.805 438.157 235.873 436.172 235.891C442.719 244.084 449.946 252.136 457.294 259.898C456.685 256.423 455.89 246.855 455.979 245.794C456.435 240.312 460.035 231.543 467.129 233.68C474.01 235.749 470.966 244.858 468.61 249.2C467.183 251.828 465.211 254.497 462.831 256.33C462.403 256.66 461.842 256.931 461.283 257.2C460.609 257.524 459.936 257.848 459.497 258.277C459.105 258.659 458.984 259.097 458.865 259.532C458.739 259.991 458.614 260.447 458.172 260.827C462.143 265.004 466.142 269.092 470.083 273.068C471.943 274.945 473.837 276.784 475.749 278.601C476.795 278.167 478.287 278.738 478.209 280.221C478.198 280.436 478.148 280.622 478.081 280.792C479.53 282.141 480.988 283.482 482.458 284.807C482.425 284.421 482.434 283.876 482.502 283.124C481.444 284.63 481.488 282.437 481.522 280.764C481.534 280.173 481.544 279.647 481.504 279.372C481.349 278.297 481.148 277.233 480.947 276.17C480.518 273.9 480.09 271.638 480.111 269.295C480.157 264.322 483.304 255.987 489.927 258.949C496.016 261.666 493.801 269.036 491.504 273.657C490.049 276.581 488.059 279.192 485.98 281.691C485.609 282.137 485.197 282.74 484.79 283.339C484.185 284.227 483.589 285.102 483.148 285.428C488.802 290.5 494.589 295.423 500.376 300.346L500.379 300.348C502.97 302.552 505.562 304.758 508.141 306.976C508.254 306.489 508.347 306.005 508.426 305.554C508.265 305.736 508.045 305.821 507.764 305.804C507.689 305.431 507.58 304.935 507.449 304.339C505.856 297.067 501.002 274.916 514.145 279.209C523.774 282.363 516.977 301.651 509.795 308.398C514.154 312.165 518.47 315.982 522.686 319.911C525.737 322.754 528.698 325.693 531.545 328.732C530.072 324.798 528.683 319.704 529.595 315.652C530.922 309.753 537.139 304.184 543.209 307.54C550.776 311.742 544.955 317.482 539.495 322.864C536.708 325.612 534.015 328.266 533.247 330.575C542.3 340.542 550.029 351.615 555.193 364.229C560.81 377.945 566.024 396.376 563.14 411.722C563.672 404.974 561.395 396.503 559.796 390.551C559.578 389.742 559.373 388.979 559.189 388.273C556.787 379.044 553.373 370.065 548.875 361.661C541.669 348.2 532.151 336.773 521.163 326.399C518.661 327.272 515.943 328.888 513.692 330.226C512.312 331.047 511.107 331.764 510.235 332.14C506.031 333.956 497.958 336.559 495.28 330.839C492.646 325.215 499.369 322.069 503.535 320.808C507.561 319.592 511.19 319.74 514.946 320.736C509.13 315.574 503.172 310.574 497.215 305.576L497.214 305.575C496.118 304.655 495.023 303.736 493.928 302.816C492.414 304.059 490.742 305.857 488.966 307.765C483.33 313.82 476.653 320.993 470.69 315.132C461.69 306.287 478.902 297.298 486.235 297.999C487.135 298.085 488.006 298.275 488.855 298.533C481.377 292.178 474.015 285.691 467.052 278.748C465.803 278.977 463.813 280.817 461.424 283.029C456.054 287.999 448.661 294.841 443.092 289.454C439.072 285.565 440.449 279.508 444.334 276.045C448.235 272.567 453.891 272.573 458.698 273.744C460.776 274.248 462.693 275.21 464.48 276.382C464.556 276.386 464.629 276.39 464.702 276.394C457.85 269.49 450.957 262.431 444.318 255.131C444.202 255.168 444.083 255.208 443.964 255.247C443.563 255.739 442.89 255.918 442.275 255.809C441.936 255.926 441.589 256.047 441.235 256.169C435.976 257.986 429.217 260.322 423.975 259.314C420.117 258.573 416.617 255.432 419.883 251.566C422.537 248.422 429.74 248.873 433.253 249.618C434.967 249.982 436.833 251.036 438.705 252.094C439.492 252.538 440.28 252.983 441.058 253.378C441.26 252.97 441.613 252.709 442.014 252.583C435.458 245.247 429.202 237.657 423.528 229.738C421.811 230.004 419.906 230.76 417.941 231.539C413.214 233.414 408.14 235.426 404.499 231.092C399.123 224.694 409.233 220.959 414.039 221.567C415.662 221.772 417.262 222.232 418.807 222.841C414.678 216.321 411.524 209.353 409.309 202.032C409.288 202.043 409.268 202.054 409.248 202.065V202.066C409.217 202.083 409.185 202.101 409.147 202.118C409.18 202.099 409.21 202.081 409.239 202.062C409.261 202.048 409.282 202.034 409.305 202.02C409.084 201.288 408.872 200.553 408.67 199.814C408.295 199.605 407.944 199.451 407.776 199.389C409.96 200.896 400.748 201.633 399.023 201.771C395.209 202.076 390.099 202.19 387.301 199.061C384.951 196.433 385.089 192.551 387.965 190.352ZM563.549 411.744C563.387 413.967 562.986 416.004 562.237 417.683C562.799 415.771 563.23 413.784 563.549 411.744Z" fill="#F2F2F2"/>
<path opacity="0.2" fill-rule="evenodd" clip-rule="evenodd" d="M214.797 48.3298C212.266 46.4143 208.338 47.6379 205.788 48.7706C204.806 49.2075 202.295 50.6042 200.433 52.1757C200.68 51.0869 200.9 49.9887 201.092 48.8815C201.882 44.329 202.426 39.6903 202.69 35.0787C202.758 33.8759 202.67 32.5321 202.581 31.1707V31.1696C202.551 30.7087 202.521 30.2458 202.497 29.7856C202.599 29.6768 202.668 29.5265 202.697 29.323C202.707 29.4074 202.713 29.4751 202.718 29.5268C202.726 29.6106 202.729 29.6526 202.743 29.656C202.756 29.6595 202.78 29.6239 202.827 29.5525C202.845 29.5248 202.867 29.4917 202.893 29.4534C204.778 26.6615 206.362 23.5158 206.581 20.0586C206.766 17.1265 204.338 11.5802 200.889 15.4223C199.346 17.1382 199.74 29.1833 202.056 29.9204C201.435 33.912 200.655 37.8971 199.679 41.8316C199.533 41.8061 199.384 41.8039 199.237 41.8239C199.251 40.8459 199.253 39.7786 199.213 39.4116C198.867 36.2504 196.205 29.8334 191.962 31.0817C188.701 32.0411 190.697 35.9823 191.806 37.7072C193.59 40.4843 195.61 41.6862 198.168 43.1296C198.219 43.7265 198.608 44.0734 199.066 44.186C197.35 50.5401 195.096 56.7377 192.147 62.5922L192.069 62.2202C191.695 60.4438 191.26 58.3727 190.984 57.9378C189.542 55.6616 186.347 52.8821 183.399 54.2309C177.207 57.0674 183.922 65.2076 189.192 66.0907C189.411 66.3906 189.642 66.6318 189.889 66.77C188.864 68.5373 187.769 70.2679 186.597 71.9539C184.839 74.49 182.951 77.0179 180.971 79.5311C180.911 77.566 180.13 73.1866 179.908 72.7162C178.558 69.8591 174.665 66.9206 171.504 68.9524C167.948 71.2431 171.169 75.5668 173.195 77.5233C174.025 78.3254 178.133 81.2645 179.583 81.277C174.799 87.2041 169.519 93.0291 164.151 98.6441C164.597 96.1311 165.181 89.2121 165.117 88.4441C164.786 84.4806 162.16 78.142 156.981 79.6894C151.955 81.1884 154.175 87.7731 155.893 90.9121C156.934 92.8121 158.373 94.7421 160.11 96.0661C160.423 96.3051 160.832 96.4991 161.24 96.6941C161.732 96.9281 162.223 97.1621 162.544 97.4721C162.83 97.7481 162.918 98.0651 163.004 98.3801C163.096 98.7121 163.187 99.0411 163.51 99.3161C160.609 102.337 157.688 105.296 154.809 108.172C153.45 109.529 152.067 110.861 150.67 112.175C149.906 111.862 148.817 112.275 148.873 113.347C148.881 113.503 148.918 113.637 148.966 113.76C147.908 114.736 146.843 115.705 145.769 116.664C145.794 116.385 145.787 115.991 145.738 115.448C146.51 116.537 146.478 114.95 146.454 113.741C146.446 113.313 146.438 112.933 146.467 112.735C146.581 111.957 146.729 111.188 146.876 110.419C147.19 108.778 147.503 107.141 147.488 105.447C147.456 101.852 145.162 95.8251 140.325 97.9691C135.878 99.9361 137.493 105.265 139.169 108.605C140.229 110.719 141.681 112.606 143.199 114.413C143.469 114.735 143.77 115.172 144.067 115.604C144.508 116.246 144.943 116.878 145.265 117.114C141.135 120.783 136.909 124.345 132.682 127.907H132.681L132.68 127.908C130.786 129.504 128.893 131.099 127.008 132.704C126.927 132.352 126.859 132.003 126.801 131.676C126.919 131.808 127.079 131.87 127.285 131.858C127.34 131.588 127.419 131.229 127.515 130.798C128.681 125.539 132.233 109.519 122.636 112.629C115.604 114.913 120.559 128.858 125.8 133.734C122.617 136.459 119.463 139.22 116.384 142.063C114.155 144.119 111.993 146.247 109.912 148.445C110.99 145.599 112.005 141.916 111.341 138.985C110.375 134.721 105.837 130.696 101.404 133.125C95.8768 136.167 100.126 140.314 104.11 144.204C106.144 146.19 108.109 148.109 108.669 149.779C102.056 156.989 96.4078 164.999 92.6328 174.121C88.5268 184.042 84.7128 197.371 86.8128 208.467C86.4268 203.588 88.0918 197.46 89.2618 193.157C89.4218 192.571 89.5718 192.019 89.7058 191.508C91.4638 184.834 93.9598 178.34 97.2468 172.262C102.513 162.526 109.467 154.26 117.494 146.754C119.32 147.384 121.304 148.552 122.947 149.519C123.954 150.112 124.834 150.63 125.47 150.902C128.539 152.214 134.432 154.093 136.39 149.956C138.315 145.887 133.408 143.615 130.367 142.705C127.428 141.827 124.778 141.935 122.035 142.657C126.284 138.922 130.636 135.304 134.987 131.688C135.788 131.023 136.588 130.358 137.387 129.692C138.493 130.59 139.713 131.889 141.009 133.268C145.122 137.644 149.994 142.829 154.35 138.588C160.924 132.189 148.361 125.695 143.007 126.206C142.349 126.268 141.713 126.406 141.093 126.593C146.556 121.994 151.933 117.301 157.02 112.278C157.932 112.443 159.384 113.773 161.127 115.371H161.128C165.047 118.963 170.442 123.908 174.51 120.01C177.446 117.197 176.444 112.818 173.608 110.315C170.761 107.801 166.632 107.808 163.121 108.657C161.604 109.022 160.204 109.718 158.899 110.566C158.843 110.569 158.79 110.572 158.737 110.575C163.742 105.58 168.777 100.473 173.628 95.1921C173.712 95.2191 173.799 95.2471 173.886 95.2751C174.179 95.6311 174.67 95.7611 175.119 95.6821C175.365 95.7651 175.616 95.8511 175.872 95.9391L175.878 95.9411C179.717 97.2531 184.652 98.9401 188.479 98.2091C191.296 97.6721 193.853 95.4001 191.47 92.6051C189.533 90.3331 184.274 90.6621 181.709 91.2021C180.457 91.4661 179.094 92.2291 177.727 92.9941C177.152 93.3161 176.577 93.6381 176.008 93.9241C175.861 93.6291 175.604 93.4391 175.311 93.3481C180.1 88.0411 184.671 82.5515 188.817 76.8231C190.07 77.0151 191.461 77.5606 192.895 78.1232C196.346 79.4771 200.05 80.9301 202.71 77.7954C206.637 73.1665 199.257 70.4697 195.748 70.911C194.563 71.0598 193.394 71.3934 192.266 71.8338C195.283 67.1178 197.588 62.0774 199.209 56.7841C199.224 56.7919 199.239 56.8 199.253 56.808C199.276 56.8207 199.299 56.8334 199.327 56.8455C199.302 56.8325 199.281 56.8188 199.26 56.8052C199.244 56.7951 199.228 56.7851 199.211 56.7753C199.373 56.2458 199.528 55.7138 199.676 55.1799C199.95 55.0285 200.206 54.917 200.329 54.8711C198.734 55.9619 205.46 56.4919 206.719 56.5911C209.504 56.8101 213.234 56.8906 215.279 54.6273C216.995 52.7262 216.896 49.9188 214.797 48.3298ZM86.3958 208.029C86.5188 209.511 86.8838 210.863 87.6038 211.971C87.0758 210.705 86.6798 209.386 86.3958 208.029Z" fill="#C1DEE2"/>
<g opacity="0.7">
<path fill-rule="evenodd" clip-rule="evenodd" d="M488.322 309.769C501.974 309.061 518.859 317.03 520.315 331.87C521.373 342.652 521.046 353.404 522.683 364.171C523.992 372.775 526.761 381.035 530.538 388.873C534.17 396.41 541.703 402.826 543.662 410.878C544.911 416.009 544.212 423.226 542.49 428.244C540.396 434.346 541.509 433.864 545.682 438.984C553.859 449.017 561.223 459.306 566.43 471.289C573.93 488.549 578.848 508.724 576.064 527.617C575.71 530.016 575.29 538.626 571.986 539.228C568.296 539.901 570.022 534.977 570.219 533.386C571.474 523.237 572.59 514.366 571.075 504.058C565.232 464.287 536.701 438.084 518.123 404.33C517.102 402.589 514.946 398.444 513.447 395.71C511.08 391.392 508.701 383.178 505.497 379.976C499.463 373.946 505.011 386.07 506.186 388.384C507.673 391.312 509.308 394.424 510.832 396.989C517.802 408.881 525.582 421.861 532.78 434.12C501.647 441.213 479.721 403.784 471.366 379.177C464.482 358.904 456.246 311.504 488.322 309.769Z" fill="#69A1AC"/>
<path fill-rule="evenodd" clip-rule="evenodd" d="M671.305 272.12C648.483 273.931 633.831 288.991 627.011 310.055C623.335 321.406 622.913 333.067 620.87 344.733C617.798 362.283 611.186 375.584 598.264 388.088C594.262 391.96 591.312 395.936 589.216 400.19C585.054 404.437 581.431 409.243 578.769 415.119C575.369 422.623 574.407 431.627 578.332 439.108C579.388 441.12 582.021 445.157 584.75 446.991C574.533 468.751 568.915 492.583 569.548 516.385C569.931 530.752 570.632 545.126 571.451 559.476C571.671 563.329 572.926 569.692 574.81 563.23C576.535 557.319 574.372 548.04 574.172 541.866C573.198 511.785 572.366 484.434 584.748 456.33C586.047 453.384 587.424 450.462 588.857 447.564C588.942 447.515 589.02 447.456 589.099 447.399C589.153 447.441 589.203 447.486 589.258 447.528C589.349 447.364 589.475 447.17 589.621 446.953C590.032 446.528 590.391 445.992 590.733 445.394C591.831 443.872 593.074 442.083 593.081 441.104C593.081 441.097 593.077 441.085 593.077 441.077C600.742 428.564 609.522 416.741 618.49 405.148C618.423 405.233 628.218 391.896 626.704 399.271C625.974 402.826 618.769 409.594 615.859 413.359C609.422 421.734 601.863 432.347 595.582 442.609C594.737 443.095 593.543 445.479 592.679 447.256C592.202 448.156 591.757 449.063 591.32 449.854C613.577 457.207 630.89 442.395 642.696 425.167C642.71 425.146 642.723 425.125 642.736 425.105C646.329 420.345 650.009 415.618 654.607 411.855C662.277 405.575 670.492 404.467 679.536 401.377C704.2 392.95 714.686 360.986 718.016 337.269C721.774 310.512 703.394 269.482 671.305 272.12Z" fill="#89C5CC"/>
<path fill-rule="evenodd" clip-rule="evenodd" d="M626.223 197.19C602.799 221.568 591.482 255.382 582.522 287.171C572.514 322.675 565.903 358.727 565.649 395.641C565.483 419.894 564.823 444.298 566.239 468.522C566.741 477.125 567.599 485.744 568.962 494.254C569.075 494.954 572.126 513.957 575.045 509.529C576.705 507.011 571.917 489.816 571.556 486.952C569.521 470.821 569.048 454.572 569.147 438.325C569.31 411.574 568.522 384.961 571.233 358.309C571.637 354.329 571.957 350.15 572.902 346.257C573.906 342.118 572.627 343.925 575.896 342.286C579.073 340.694 582.998 340.921 586.294 338.923C599.366 330.996 606.053 310.634 611.258 297.274C617.211 281.997 620.829 265.705 623.719 249.627C625.841 237.815 627.358 226.074 628.216 214.109C628.487 210.338 628.503 206.395 629.244 202.687C629.444 201.687 630.445 199.918 630.409 199.032C630.332 197.157 629.201 196.055 629.108 194.48C628.127 195.362 627.165 196.266 626.223 197.19Z" fill="#89C5CC"/>
<path fill-rule="evenodd" clip-rule="evenodd" d="M498.5 521.999C498.5 562.316 531.183 594.999 571.5 594.999C611.817 594.999 644.5 562.316 644.5 521.999" fill="#89C5CC"/>
<path fill-rule="evenodd" clip-rule="evenodd" d="M621.528 458.085C639.595 456.753 659.771 471.329 668.486 486.497C675.512 498.726 674.328 514.785 669.989 527.778C667.083 536.476 660.741 548.878 650.165 548.999C636.933 549.15 636.295 532.796 636.039 523.236C635.699 510.525 634.093 499.453 624.077 490.789C622.841 489.72 621.543 488.719 620.246 487.718C619.094 486.829 617.943 485.941 616.834 485.005C616.657 484.855 616.478 484.706 616.3 484.556C612.758 481.579 609.039 478.453 608.586 473.546C607.93 466.436 611.943 465.156 618.071 466.477C618.269 466.52 618.806 466.723 619.536 467C622.666 468.186 629.344 470.718 628.081 467.692C627.605 466.552 625.868 465.648 623.675 464.971C618.001 464.354 611.233 463.638 609.287 464.066C588.292 468.672 580.117 497.755 577.946 516.233C577.712 518.227 577.523 520.228 577.357 522.232H573.5C573.768 517.393 574.121 512.562 574.93 507.776C578.025 489.473 587.7 462.591 608.92 459.62C609.703 459.51 612.583 459.491 616.071 459.696C617.724 458.772 619.576 458.213 621.528 458.085Z" fill="#69A1AC"/>
</g>
<g opacity="0.5">
<path fill-rule="evenodd" clip-rule="evenodd" d="M178.723 176.445C182.925 170.453 190.724 155.235 196.638 153.094C200.448 151.715 199.337 165.98 199.384 168.7C199.567 179.224 198.543 189.681 197.278 200.116C194.998 218.937 187.545 235.697 177.322 251.715C172.062 259.957 165.891 268.3 157.345 273.442C153.412 275.811 148.679 276.207 144.794 278.248C140.269 280.623 142.733 278.703 140.694 283.417C137.863 289.963 136.957 298.408 135.647 305.392C129.632 337.455 115.068 506.945 117.593 539.558C117.817 542.449 113.787 543.14 113.585 539.611C112.516 520.9 121.77 391.322 126.44 348.947C131.109 306.571 135.834 269.134 140.571 254.474C146.319 236.687 156.699 215.298 165.34 198.711C169.354 191.006 173.729 183.565 178.723 176.445Z" fill="#69A1AC"/>
<path fill-rule="evenodd" clip-rule="evenodd" d="M209.914 384.278C220.849 376.25 232.686 391.401 222.79 399.43C217.32 403.868 211.601 402.29 208.382 398.591C206.292 401.139 204.336 403.803 202.456 406.052C196.729 412.909 191.317 419.928 186.144 427.111C175.398 442.035 166.189 457.801 156.56 473.278C147.058 488.554 137.632 503.908 129.019 519.571C121.723 532.841 111.998 548.452 109.5 563C113.29 532.146 127.672 502.49 144.798 475.291C161.785 448.314 181.279 418.853 207.581 397.564C204.904 393.627 204.83 388.008 209.914 384.278Z" fill="#C1DEE2"/>
<path fill-rule="evenodd" clip-rule="evenodd" d="M2.4132 309.031C8.5324 310.227 18.5312 324.07 23.5753 329.344C29.5699 335.612 35.0084 342.292 40.1349 349.292C51.1711 364.358 61.0411 380.376 69.4339 397.08C83.116 424.311 94.078 452.265 102.033 481.918C106.903 500.069 110.056 518.883 111.924 537.565C112.277 541.089 115.971 568.253 110.648 568.985C105.861 569.644 107.34 548.359 107.109 545.463C104.498 512.798 96.677 481.015 85.799 450.226C83.429 443.519 81.228 435.304 77.4381 429.268C74.7092 424.921 77.4186 426.437 72.6228 424.792C68.5049 423.378 63.8131 423.724 59.5963 421.993C50.4356 418.237 43.1006 410.944 36.6709 403.608C24.1758 389.351 14.274 373.928 9.1126 355.66C6.2495 345.532 3.6184 335.344 2.1583 324.902C1.7806 322.203 -1.5282 308.26 2.4132 309.031Z" fill="#69A1AC"/>
<path fill-rule="evenodd" clip-rule="evenodd" d="M26.5614 78.716C49.6113 118.69 68.5528 162.601 80.783 207.076C88.194 234.023 93.376 261.675 98.525 289.126C106.497 331.632 114.038 374.134 116.183 417.395C118.341 460.906 122.608 511.092 108.361 553C115.478 510.452 108.702 465.162 107.502 422.35C106.929 401.912 105.268 381.674 103.088 361.355C100.973 341.645 97.518 322.029 94.301 302.474C92.734 292.95 91.088 283.441 89.412 273.937C88.911 271.101 88.7 262.687 86.901 260.75C85.091 258.8 75.8543 258.005 72.9544 256.574C67.1149 253.693 61.6221 249.6 56.7609 245.275C47.4418 236.984 39.3347 226.151 32.9359 215.472C18.1307 190.764 12.2116 160.61 12.5108 131.994C12.5682 126.438 21.5034 66.61 17.9149 65.7861C18.131 65.533 18.3353 65.2718 18.528 65C21.2448 69.5488 23.9108 74.1284 26.5614 78.716Z" fill="#89C5CC"/>
<path fill-rule="evenodd" clip-rule="evenodd" d="M275.346 222.887C275.702 222.374 278.017 218.807 276.851 219.035C279.224 218.57 273.587 222.969 279.5 220.27C276.692 222.922 278.313 226.366 278.35 229.935C278.411 235.73 277.442 241.476 276.351 247.146C274.626 256.109 272.057 264.823 268.328 273.159C260.201 291.326 246.401 308.814 230.018 320.172C221.93 325.779 214.004 327.689 204.78 330.27C198.953 331.901 198.491 334.915 195.398 340.569C188.96 352.345 182.636 364.078 176.957 376.251C170.177 390.788 163.595 405.34 157.386 420.132C136.469 469.957 119.445 521.578 110.505 575C110.286 543.519 117.569 511.095 126.755 481.088C133.447 459.226 142.158 438.151 151.45 417.29C153.701 412.236 157.113 405.735 158.07 400.155C158.739 396.245 156.692 392.486 155.755 388.367C152.101 372.33 152.363 354.363 155.571 338.24C159.109 320.461 169.339 312.209 186.645 309.691C192.974 308.769 201.019 309.107 206.822 306.408C213.145 303.47 215.753 293.81 219.349 287.61C229.006 270.953 240.48 254.979 253.655 240.945C257.303 237.059 261.226 233.473 265.388 230.15C268.013 228.053 273.558 225.47 275.346 222.887Z" fill="#89C5CC"/>
<path fill-rule="evenodd" clip-rule="evenodd" d="M76.345 546.729C75.8997 543.71 78.2396 541 81.291 541H142.709C145.76 541 148.1 543.71 147.655 546.729L142.908 578.918C141.461 588.73 133.041 596 123.122 596H100.878C90.959 596 82.539 588.73 81.092 578.918L76.345 546.729Z" fill="#C1DEE2"/>
</g>
<path fill-rule="evenodd" clip-rule="evenodd" d="M25.9175 557.456C25.9175 578.743 27.5974 596 50.1454 596C72.6933 596 74.3732 578.743 74.3732 557.456" fill="#F2F2F2"/>
<path fill-rule="evenodd" clip-rule="evenodd" d="M56.8534 544.174C56.0269 545.603 55.29 547.061 54.639 548.54C54.616 545.493 54.7845 542.424 55.2446 539.313C56.031 533.983 57.2322 528.682 58.3609 523.388C59.1721 519.584 59.1208 512.752 62.1994 509.72C63.0436 509.065 63.2468 510.351 63.2468 510.908C63.2575 511.026 63.2445 508.632 62.4251 509.049C57.5544 511.564 55.9763 519.474 54.4169 523.434C52.1418 529.215 50.2061 535.124 49.409 541.138C49.2076 542.657 49.098 544.176 49.0727 545.692C48.9071 545.287 48.7516 544.878 48.5796 544.474C45.7684 537.881 41.9747 531.447 37.2431 525.514C36.0784 524.054 21.4342 509.649 20.2878 511.854C20.4009 512.174 20.6377 512.44 20.9988 512.651C21.02 512.675 21.0206 512.662 21.0083 512.626C21.8683 514.016 24.3137 516.161 25.0754 517.379C26.9923 520.442 28.4821 523.693 29.9961 526.882C33.1948 533.622 36.1621 540.429 39.0386 547.25C39.7084 548.839 40.4065 550.419 41.1187 551.994C33.7769 541.405 23.9826 531.791 10.5 526.287C15.1049 528.63 18.124 533.037 21.2339 536.412C24.9846 540.483 28.9351 544.444 32.6929 548.51C37.1253 553.307 42.3405 558.358 46.6038 563.666C50.7333 572.336 54.7462 581.015 57.2234 590.128C56.2084 586.98 57.1438 582.628 56.9701 579.324C56.8322 576.693 56.5247 574.084 56.1035 571.48C56.6243 572.655 57.0732 573.83 57.2764 574.924C57.0908 573.09 56.877 571.268 56.6472 569.455C57.2369 567.758 57.816 566.175 58.2072 564.87C60.2118 558.179 62.5988 551.602 65.8495 545.193C68.8574 539.264 72.3077 533.41 76.0673 527.735C77.821 525.089 79.599 522.453 81.366 519.812C82.522 518.083 83.623 515.316 85.233 513.659C74.8261 523.174 63.456 532.757 56.8534 544.174Z" fill="#F2F2F2"/>
<path fill-rule="evenodd" clip-rule="evenodd" d="M688.133 109.827C685.15 99.8757 678.146 92.0867 670.875 84.9508C656.72 71.0579 649.107 62.4681 644.062 42.1454C641.095 30.1931 638.075 17.5274 628.665 8.85588C621.813 2.54108 610.021 -2.76442 600.858 1.75738C586.761 10.1714 582.975 27.4383 584.397 42.8998C586.159 62.0632 595.11 73.8794 612.307 80.9377C621.997 84.913 628.438 90.1587 633.698 99.2987C637.905 106.607 640.358 115.759 645.645 122.384C653.55 132.289 663.441 136.691 675.634 135.046C664.214 114.035 650.871 92.8257 634.778 75.1349C633.271 73.3564 624.386 66.5489 626.178 63.5178C628.152 60.1804 637.274 72.7173 637.209 72.6415C641.886 78.01 646.214 83.7149 650.463 89.4747C650.453 89.4797 650.44 89.4837 650.428 89.4887C654.804 95.3997 659.144 101.397 663.402 107.469C665.124 110.038 666.8 112.639 668.405 115.306C670.759 119.219 674.496 130.325 678.349 132.731C679.173 133.245 679.936 133.533 680.648 133.651C683.277 137.956 685.835 142.295 688.268 146.685C694.621 158.151 700.074 170.257 702.576 183.202C703.307 186.981 702.79 201.114 705.369 203.842C710.085 208.831 708.703 199.223 708.421 196.323C706.079 172.31 697.458 151.852 684.941 131.664C688.786 126.642 689.342 113.859 688.133 109.827Z" fill="#F2F2F2"/>
<path fill-rule="evenodd" clip-rule="evenodd" d="M526.631 121.43C531.602 115.573 543.552 114.579 550.861 114.971C559.904 115.456 569.194 117.658 577.798 120.32C591.971 124.704 605.744 132.706 618.227 140.451C619.731 141.384 638.264 152.529 636.624 154.485C634.998 156.423 616.805 143.184 612.75 140.902C604.097 136.032 596.162 130.272 586.624 127.055C576.749 123.724 566.305 122.405 555.92 122.496C554.587 122.508 550.24 121.579 550.146 123.551C550.054 125.479 557.248 124.473 558.516 124.485C563.755 124.533 569.027 125.026 574.191 125.934C583.868 127.635 592.965 131.061 601.253 136.317C598.94 141.694 593.397 144.173 587.581 142.827C582.555 141.664 577.656 138.795 572.734 137.966C569.345 137.395 565.951 137.735 562.664 138.69C553.994 141.209 548.994 146.371 539.461 142.78C531.989 139.966 519.491 129.853 526.631 121.43Z" fill="#F2F2F2"/>
<path fill-rule="evenodd" clip-rule="evenodd" d="M505.252 27.0513C494.214 26.2462 481.888 35.0557 476.563 44.2232C472.271 51.6147 472.994 61.3207 475.645 69.1734C477.42 74.4307 481.295 81.9263 487.757 81.9994C495.841 82.0908 496.23 72.2066 496.387 66.4283C496.594 58.7462 497.576 52.054 503.695 46.8177C504.45 46.1715 505.243 45.5664 506.036 44.9614C506.739 44.4243 507.443 43.8873 508.12 43.3217C508.228 43.2313 508.337 43.1408 508.446 43.0501C510.61 41.251 512.882 39.3615 513.159 36.3961C513.56 32.0986 511.108 31.3252 507.364 32.1236C507.243 32.1493 506.915 32.2724 506.469 32.4397C504.557 33.1566 500.477 34.6865 501.249 32.8577C501.539 32.1686 502.601 31.6225 503.94 31.2134C507.407 30.8405 511.542 30.4078 512.731 30.6663C525.558 33.4502 530.552 51.0278 531.878 62.1957C532.029 63.4603 532.149 64.7292 532.253 66H534.605C534.44 63.0154 534.225 60.0357 533.721 57.0845C531.831 46.0223 525.919 29.7749 512.955 27.9794C512.477 27.9125 510.717 27.9012 508.586 28.0249C507.576 27.4665 506.445 27.1289 505.252 27.0513Z" fill="#F2F2F2"/>
</svg>
