<svg width="368" height="694" viewBox="0 0 368 694" fill="none" xmlns="http://www.w3.org/2000/svg">
<path d="M105.205 634.433L91.2281 668.038L68.4404 655.925L82.3466 622.964L105.205 634.433Z" fill="#FCC9A7"/>
<path d="M98.9062 666.077C98.9062 664.059 97.1723 662.749 95.4385 663.492C92.0415 664.944 86.4511 666.183 79.7634 663.174C72.8281 660.058 71.5542 654.923 71.5188 651.56C71.5188 649.789 70.245 648.444 68.6527 648.692L17.8048 656.021C14.7263 656.481 11.8248 658.252 9.77249 661.014C7.82633 663.598 8.74633 667.352 11.4709 668.202L87.3708 691.288C90.3431 692.208 93.5985 690.048 94.4831 686.578L98.7646 669.582C98.8354 669.299 98.8708 669.016 98.8708 668.733L98.9062 666.077Z" fill="#1F252A"/>
<path d="M311.248 552.92L343.094 570.482L328.622 591.833L297.377 574.413L311.248 552.92Z" fill="#FCC9A7"/>
<path d="M341.963 562.622C339.946 562.409 338.46 564.003 338.991 565.773C340.052 569.278 340.689 575.014 336.974 581.317C333.117 587.868 327.88 588.611 324.518 588.222C322.749 588.045 321.298 589.142 321.334 590.736L323.067 642.113C323.174 645.229 324.624 648.309 327.137 650.646C329.472 652.842 333.329 652.381 334.461 649.726L365.636 576.75C366.875 573.881 365.07 570.411 361.744 569.172L345.324 563.047C345.041 562.94 344.758 562.869 344.475 562.834L341.963 562.622Z" fill="#1F252A"/>
<path d="M122.047 309.821L134.326 388.64L196.39 500.282L303.252 593.264L328.163 549.18L243.417 470.079L193.701 311.167L122.047 309.821Z" fill="#092330"/>
<path d="M222.893 305.312C222.893 305.312 235.242 328.682 216.064 366.003L156.512 479.735L111.113 652.102L66.0332 636.345L98.4101 462.03L155.804 325.991L122.047 309.809L222.893 305.312Z" fill="#0C2C40"/>
<path d="M93.0668 83.5498C100.922 92.154 114.262 92.7559 122.825 84.9307C131.424 77.0701 132.025 63.7213 124.205 55.1171C116.35 46.5129 103.045 45.9109 94.4114 53.7361C85.813 61.6322 85.2114 74.9456 93.0668 83.5498Z" fill="#FCC9A7"/>
<path d="M76.2236 94.3769L94.5529 72.2822L109.167 86.9766L91.9698 108.044L76.2236 94.3769Z" fill="#FCC9A7"/>
<path d="M117.588 42.6745L100.78 65.1941C98.5863 68.133 98.6571 72.2049 100.957 75.0376L114.58 91.8564C117.765 95.7868 123.709 95.8222 126.929 91.9627L145.931 69.3369C148.549 66.2209 148.408 61.6179 145.612 58.6436L129.796 41.9309C126.399 38.3547 120.56 38.6734 117.588 42.6745Z" fill="#1C2226"/>
<path d="M134.963 122.053L68.3333 155.513L104.921 99.0373L80.7887 78.1465L4.49948 182.742C-2.4359 191.736 0.253339 204.837 10.1964 210.325C15.2564 213.122 21.3426 213.406 26.6502 211.069L125.444 171.801L134.963 122.053Z" fill="#F7ECE7"/>
<path d="M111.113 154.175C111.113 154.175 122.896 246.626 122.047 309.829C122.047 309.829 157.396 325.409 232.34 302.641L213.799 130.735L177.707 118.59L134.962 122.06L111.113 154.175Z" fill="#F7ECE7"/>
<path d="M147.063 113.048L147.983 119.067C148.054 119.492 147.912 119.953 147.594 120.271L138.358 130.079C137.509 130.964 136.023 130.469 135.881 129.265L134.926 122.042C134.855 121.581 135.032 121.121 135.386 120.802L144.621 112.198C145.506 111.419 146.921 111.879 147.063 113.048Z" fill="#FCF3F0"/>
<path d="M159.412 128.617C170.381 127.732 178.555 118.065 177.67 107.089L175.016 74.9385L135.244 78.196L143.453 122.633C144.763 128.299 148.407 129.502 159.412 128.617Z" fill="#FCC9A7"/>
<path d="M176.362 86.1771C176.362 86.1771 167.799 110.538 150.425 107.528C134.467 104.766 135.245 78.1748 135.245 78.1748L176.362 86.1771Z" fill="#F4BE9A"/>
<path d="M153.185 98.6824L156.723 98.2932C174.345 96.3812 187.119 80.5183 185.208 62.8851L183.05 42.7732C181.139 25.1399 165.287 12.3574 147.665 14.2695L144.127 14.659C126.505 16.571 113.731 32.4339 115.642 50.0673L117.8 70.1791C119.711 87.8478 135.563 100.594 153.185 98.6824Z" fill="#FCC9A7"/>
<path d="M153.185 98.6824L156.723 98.2932C174.345 96.3812 187.119 80.5183 185.208 62.8851L183.05 42.7732C181.139 25.1399 165.287 12.3574 147.665 14.2695L144.127 14.659C126.505 16.571 113.731 32.4339 115.642 50.0673L117.8 70.1791C119.711 87.8478 135.563 100.594 153.185 98.6824Z" fill="#FCC9A7"/>
<path d="M184.5 56.5139C182.094 56.266 172.01 63.9142 169.391 60.5858C165.782 55.9827 162.491 47.591 167.162 38.8806C167.94 37.4289 168.153 35.7293 167.657 34.1359C166.737 31.2678 164.26 27.9394 157.431 30.3471C146.497 34.2066 121.905 46.5996 114.793 28.86C105.805 6.51742 176.503 12.7493 176.503 12.7493L192.603 36.0479L185.703 69.2608L184.5 56.5139Z" fill="#1C2226"/>
<path d="M174.664 59.8782C175.336 66.1808 180.998 70.7485 187.296 70.0403C193.595 69.3675 198.159 63.7022 197.451 57.3996C196.779 51.0969 191.118 46.5293 184.819 47.2374C178.521 47.9456 173.991 53.5755 174.664 59.8782Z" fill="#FCC9A7"/>
<path d="M155.803 135.431L164.826 274.621L148.018 290.413L138.04 275.117L148.018 132.67L155.803 135.431Z" fill="#0C2C40"/>
<path d="M142.357 125.845L143.737 123.933L143.384 122.269H163.27L164.827 127.474L151.593 139.159L142.357 125.845Z" fill="#0C2C40"/>
<path d="M176.397 105.202L157.572 118.02C155.449 119.472 155.166 122.517 157.006 124.323L171.797 138.875C173.46 140.504 176.184 140.433 177.741 138.663L192.638 121.915C194.089 120.286 194.018 117.772 192.461 116.25L181.563 105.592C180.183 104.281 178.024 104.104 176.397 105.202Z" fill="#FCF3F0"/>
<path d="M96.6412 111.823L68.4751 94.8271" stroke="#EADDD8" stroke-width="0.7599" stroke-miterlimit="10" stroke-linecap="round" stroke-linejoin="round"/>
<path d="M147.949 245.3L138.077 350.923C137.687 354.889 140.412 358.501 144.34 359.28L265.39 382.437C269.849 383.287 274.06 380.171 274.555 375.674L285.63 275.291C286.055 271.396 283.507 267.784 279.686 266.864L157.432 238.502C152.867 237.404 148.409 240.626 147.949 245.3Z" fill="#AFAFAF"/>
<path d="M156.547 247.177L146.675 352.799C146.321 356.766 149.01 360.378 152.938 361.157L273.989 384.314C278.447 385.163 282.658 382.047 283.153 377.551L294.229 277.167C294.653 273.273 292.106 269.661 288.284 268.74L166.03 240.343C161.43 239.281 156.972 242.503 156.547 247.177Z" fill="#D1D1D1"/>
<path d="M202.228 344.398C192.497 335.475 177.353 336.147 168.436 345.884C159.519 355.622 160.191 370.776 169.922 379.699C179.653 388.622 194.797 387.949 203.714 378.212C212.631 368.439 211.959 353.321 202.228 344.398Z" fill="#FCC9A7"/>
<path d="M220.168 330.443L201.697 357.282L183.722 342.128L200.989 316.599L220.168 330.443Z" fill="#FCC9A7"/>
<path d="M213.835 130.733C213.835 130.733 240.904 133.46 248.759 177.755L279.898 242.482C280.747 245.314 281.313 248.218 281.596 251.121L216.099 345.271L186.553 327.744L239.524 242.765L207.359 191.812L213.835 130.733Z" fill="#F7ECE7"/>
<path d="M196.177 315.022L226.006 331.027" stroke="#EADDD8" stroke-width="0.7599" stroke-miterlimit="10" stroke-linecap="round" stroke-linejoin="round"/>
<path d="M223.106 216.782L204.033 183.569" stroke="#EADDD8" stroke-width="0.7599" stroke-miterlimit="10" stroke-linecap="round" stroke-linejoin="round"/>
<path d="M122.082 36.7537C108.565 30.6281 111.396 14.836 114.475 9.84347C114.475 9.84347 115.076 18.731 121.127 16.6773C121.127 16.6773 120.313 3.43459 138.041 0C138.041 0 131.494 11.8971 154.813 9.63102C183.439 6.83378 185.102 24.9628 183.51 47.4823L174.734 41.1797L167.941 25.4939H144.764L122.082 36.7537Z" fill="#1C2226"/>
</svg>
