<svg width="577" height="541" viewBox="0 0 577 541" fill="none" xmlns="http://www.w3.org/2000/svg">
<path d="M342.592 257.883V533.899" stroke="#2A272D" stroke-width="1.9882" stroke-miterlimit="10"/>
<path d="M542.246 257.883V533.899" stroke="#2A272D" stroke-width="1.9882" stroke-miterlimit="10"/>
<path d="M224.544 343.114C224.544 343.114 262.855 334.429 268.623 359.369C273.605 380.77 221.496 379.951 221.496 379.951L106.921 380.639C106.921 380.639 63.7591 385.62 42.4238 335.838C21.0886 286.056 0.539881 155.685 0.539881 155.685C0.539881 155.685 -2.54079 137.758 12.4037 135.136C29.9701 132.055 33.4112 170.006 33.4112 170.006C33.4112 170.006 59.9574 330.922 98.4985 338.788C104.43 340 109.15 344.49 115.213 344.425L224.544 343.114Z" fill="#FFEEE3"/>
<path d="M326.369 213.128L362.551 210.637C365.5 210.44 368.319 211.784 369.99 214.177L390.211 244.754L373.005 245.573L363.304 230.661C363.304 230.661 335.349 237.642 325.025 230.661L326.369 213.128Z" fill="#F2C09E"/>
<path d="M180.627 114.065L228.967 203.896L329.417 207.108V240.143L223.33 244.797C209.304 245.42 195.998 238.701 188.132 227.067L139.857 140.382L180.627 114.065Z" fill="#EFC375"/>
<path d="M329.417 207.087V240.122L318.208 240.614V206.727L329.417 207.087Z" fill="#F7E5DA"/>
<path d="M276.782 473.366L282.452 513.087L311.03 511.317L306.933 470.318L276.782 473.366Z" fill="#FCC9A7"/>
<path d="M276.062 509.057C276.685 507.189 278.913 506.435 280.519 507.582C283.665 509.811 289.204 512.465 297.168 511.449C305.459 510.4 308.376 505.976 309.392 502.863C309.917 501.224 311.686 500.339 313.292 500.962L364.812 521.15C367.958 522.363 370.449 524.788 371.793 527.868C373.038 530.753 370.973 533.997 367.794 534.063L280.552 535.341C277.111 535.406 274.358 532.555 274.489 529.114L275.112 512.269C275.112 511.974 275.177 511.711 275.275 511.449L276.062 509.057Z" fill="#1F252A"/>
<path d="M189.966 106.359L198.16 119.501C198.684 120.746 198.913 123.761 196.652 124.876L193.473 127.17L186.656 116.748L189.966 106.359Z" fill="#FFEEE3"/>
<path d="M174.695 120.255L172.106 119.01C163.585 114.848 160.045 104.557 164.207 96.0361L191.868 39.4043L222.576 54.4143L190.622 117.83C187.214 124.876 181.741 123.697 174.695 120.255Z" fill="#FCC9A7"/>
<path d="M245.484 65.5985C236.472 84.017 214.219 91.6858 195.8 82.6733C177.382 73.6607 169.713 51.4405 178.725 32.9893C187.738 14.5708 209.958 6.90187 228.409 15.9145C246.861 24.927 254.497 47.18 245.484 65.5985Z" fill="#FCC9A7"/>
<path d="M200.651 102.226C191.901 97.9656 188.263 87.3799 192.556 78.6295L208.156 46.6758L245.78 65.0615L233.064 91.116C227.165 103.111 212.646 108.125 200.651 102.226Z" fill="#FCC9A7"/>
<path d="M240.897 72.5874L242.929 86.8765C243.093 89.1378 240.7 90.6126 238.603 89.5966L229.361 87.0731L240.897 72.5874Z" fill="#FCC9A7"/>
<path d="M208.319 65.4337C208.319 65.4337 221.33 66.2858 223.46 46.1959C223.46 46.1959 246.074 60.6161 255.283 54.8808C255.283 54.8808 258.102 -1.94762 211.138 0.0515356C164.174 2.05069 160.503 52.7505 160.503 52.7505L186.853 76.5438L208.319 65.4337Z" fill="#1C2226"/>
<path d="M210.187 66.2556C207.729 71.3354 201.601 73.4329 196.521 70.9422C191.474 68.4514 189.344 62.3556 191.835 57.2758C194.293 52.196 200.421 50.0985 205.501 52.5893C210.548 55.08 212.645 61.1758 210.187 66.2556Z" fill="#FCC9A7"/>
<path d="M181.512 58.71L174.531 74.9982C174.531 74.9982 189.869 87.2881 197.603 71.4587L186.461 68.3125L181.512 58.71Z" fill="#1C2226"/>
<path d="M223.46 46.1875C223.46 46.1875 254.103 69.8496 266.197 50.0219C275.832 34.1925 265.115 23.9346 249.646 26.4909C242.96 27.6052 239.65 23.0825 234.407 19.5103L223.46 46.1875Z" fill="#1C2226"/>
<path d="M195.932 135.12C195.932 135.12 195.243 120.667 190.655 115.653C186.067 110.639 161.618 96.8086 161.618 96.8086C161.618 96.8086 126.453 107.001 104.855 147.181C88.0428 178.479 72.2134 257.691 72.2134 257.691L173.679 272.407C182.429 213.218 198.816 186.246 195.932 135.12Z" fill="#FFD686"/>
<path d="M163.322 94.0129L159.094 95.9137C157.586 96.602 157.259 98.6339 158.504 99.7482L185.312 123.607C186.394 124.59 188.098 124.295 188.852 123.05L191.867 117.839C192.424 116.856 192.195 115.61 191.31 114.889L165.681 94.3734C165.026 93.7835 164.108 93.6524 163.322 94.0129Z" fill="#FFEEE3"/>
<path d="M315.192 218.505L351.375 216.014C354.324 215.817 357.143 217.161 358.814 219.554L377.364 245.936L360.027 248.164L352.129 236.006C352.129 236.006 324.172 242.986 313.849 236.006L315.192 218.505Z" fill="#FCC9A7"/>
<path d="M160.078 120.748L214.678 212.873L318.241 215.724V245.515L206.485 250.398C195.998 250.857 186.002 245.842 180.103 237.125L119.309 147.064L160.078 120.748Z" fill="#FFD686"/>
<path d="M318.24 215.713V245.471L307.032 245.962V215.713H318.24Z" fill="#FFEEE3"/>
<path d="M72.2138 257.678L271.802 286.616C287.074 288.845 298.872 301.2 300.347 316.571L315.226 486.565L270.655 489.449L249.221 342.101L123.897 345.346C89.8784 345.346 63.7911 315.129 68.7398 281.471L72.2138 257.678Z" fill="#54585A"/>
<path d="M425.966 244.799H320.699V251.616H425.966V244.799Z" fill="#2A272D"/>
<path d="M425.999 251.619L460.05 152.153L452.906 150.448L419.51 245.982L425.999 251.619Z" fill="#2A272D"/>
<path d="M198.979 101.332C198.979 101.332 189.508 95.728 189.508 83.9297C189.508 83.9297 183.609 96.7112 195.637 107.952L198.979 101.332Z" fill="#F2C09E"/>
<path d="M43.6043 540.319C45.1774 540.319 46.6195 539.237 47.0455 537.631L99.1547 332.177C103.481 315.169 118.72 303.272 136.287 303.272C153.329 303.272 168.47 314.71 173.123 331.096C191.345 395.298 233.754 535.37 234.18 536.779C234.737 538.647 236.736 539.729 238.604 539.139C240.472 538.582 241.554 536.583 240.964 534.715C240.538 533.305 198.129 393.299 179.94 329.162C174.434 309.728 156.475 296.16 136.254 296.16C115.443 296.16 97.3521 310.253 92.2395 330.407L40.1304 535.894C39.6388 537.795 40.7859 539.729 42.6867 540.22C43.0144 540.286 43.3094 540.319 43.6043 540.319Z" fill="#1F252A"/>
<path d="M180.136 237.109L148.838 190.801" stroke="#EFC375" stroke-width="0.7847" stroke-miterlimit="10" stroke-linecap="round" stroke-linejoin="round"/>
<path d="M576.722 251.61H304.019V263.9H576.722V251.61Z" fill="#FFEEE3"/>
<path d="M342.592 293.754H542.246" stroke="#2A272D" stroke-width="1.9882" stroke-miterlimit="10"/>
</svg>
